solid 
facet normal 0.0 -0.0 -1.0
outer loop
vertex -44.352000000000004 -35.2085 0.0
vertex -39.71 -36.3535 0.0
vertex -43.713 -37.0395 0.0
endloop
endfacet
facet normal -0.0 -0.0 -1.0
outer loop
vertex -45.153999999999996 -32.0365 0.0
vertex -39.71 -36.3535 0.0
vertex -44.352000000000004 -35.2085 0.0
endloop
endfacet
facet normal 0.0 -0.0 -1.0
outer loop
vertex -45.153999999999996 -32.0365 0.0
vertex -31.637 -33.4955 0.0
vertex -39.71 -36.3535 0.0
endloop
endfacet
facet normal -0.0 -0.0 -1.0
outer loop
vertex -46.733999999999995 -27.909499999999998 0.0
vertex -31.637 -33.4955 0.0
vertex -45.153999999999996 -32.0365 0.0
endloop
endfacet
facet normal 0.0 -0.0 -1.0
outer loop
vertex -46.733999999999995 -27.909499999999998 0.0
vertex -23.845999999999997 -29.455499999999997 0.0
vertex -31.637 -33.4955 0.0
endloop
endfacet
facet normal -0.9338985549040607 -0.35753809468098247 -0.0
outer loop
vertex -46.733999999999995 -27.909499999999998 2.0
vertex -46.733999999999995 -27.909499999999998 0.0
vertex -45.153999999999996 -32.0365 0.0
endloop
endfacet
facet normal -0.9441554200654777 -0.3295004442500515 -0.0
outer loop
vertex -44.352000000000004 -35.2085 2.0
vertex -44.352000000000004 -35.2085 0.0
vertex -43.713 -37.0395 0.0
endloop
endfacet
facet normal 0.16890914196673804 -0.98563162579133 0.0
outer loop
vertex -43.713 -37.0395 2.0
vertex -43.713 -37.0395 0.0
vertex -39.71 -36.3535 0.0
endloop
endfacet
facet normal -0.9694918068524121 -0.2451237166127447 -0.0
outer loop
vertex -45.153999999999996 -32.0365 2.0
vertex -45.153999999999996 -32.0365 0.0
vertex -44.352000000000004 -35.2085 0.0
endloop
endfacet
facet normal -0.9506545339076583 -0.310251441835188 -0.0
outer loop
vertex -48.028000000000006 -23.944499999999998 2.0
vertex -48.028000000000006 -23.944499999999998 0.0
vertex -46.733999999999995 -27.909499999999998 0.0
endloop
endfacet
facet normal -0.9649839104831134 -0.26230907820492694 -0.0
outer loop
vertex -49.099000000000004 -20.004499999999997 2.0
vertex -49.099000000000004 -20.004499999999997 0.0
vertex -48.028000000000006 -23.944499999999998 0.0
endloop
endfacet
facet normal 0.3337239314509381 -0.9426708532552227 0.0
outer loop
vertex -39.71 -36.3535 2.0
vertex -39.71 -36.3535 0.0
vertex -31.637 -33.4955 0.0
endloop
endfacet
facet normal 0.46033712008219946 -0.8877441838020831 0.0
outer loop
vertex -31.637 -33.4955 2.0
vertex -31.637 -33.4955 0.0
vertex -23.845999999999997 -29.455499999999997 0.0
endloop
endfacet
facet normal -0.0 0.0 -1.0
outer loop
vertex -8.073999999999998 10.924500000000005 0.0
vertex -46.733999999999995 -27.909499999999998 0.0
vertex -48.028000000000006 -23.944499999999998 0.0
endloop
endfacet
facet normal -0.0 0.0 -0.9999999999999999
outer loop
vertex -8.073999999999998 10.924500000000005 0.0
vertex -48.028000000000006 -23.944499999999998 0.0
vertex -49.099000000000004 -20.004499999999997 0.0
endloop
endfacet
facet normal -0.0 0.0 -1.0
outer loop
vertex -8.073999999999998 10.924500000000005 0.0
vertex -23.845999999999997 -29.455499999999997 0.0
vertex -46.733999999999995 -27.909499999999998 0.0
endloop
endfacet
facet normal -0.0 0.0 -1.0
outer loop
vertex -8.073999999999998 10.924500000000005 0.0
vertex -49.099000000000004 -20.004499999999997 0.0
vertex -49.956 -16.097499999999997 0.0
endloop
endfacet
facet normal -0.0 0.0 -1.0
outer loop
vertex -8.75 11.491500000000006 0.0
vertex -49.956 -16.097499999999997 0.0
vertex -50.604 -12.235499999999998 0.0
endloop
endfacet
facet normal -0.0 0.0 -1.0
outer loop
vertex -8.75 11.491500000000006 0.0
vertex -50.604 -12.235499999999998 0.0
vertex -51.051 -8.427499999999998 0.0
endloop
endfacet
facet normal -0.976777533304773 -0.21425603942723057 -0.0
outer loop
vertex -49.956 -16.097499999999997 2.0
vertex -49.956 -16.097499999999997 0.0
vertex -49.099000000000004 -20.004499999999997 0.0
endloop
endfacet
facet normal -0.9862138915986948 -0.16547555716104367 -0.0
outer loop
vertex -50.604 -12.235499999999998 2.0
vertex -50.604 -12.235499999999998 0.0
vertex -49.956 -16.097499999999997 0.0
endloop
endfacet
facet normal -0.9931808361449953 -0.11658398995714696 -0.0
outer loop
vertex -51.051 -8.427499999999998 2.0
vertex -51.051 -8.427499999999998 0.0
vertex -50.604 -12.235499999999998 0.0
endloop
endfacet
facet normal -0.9977234020062641 -0.06743895824407822 -0.0
outer loop
vertex -51.304 -4.684499999999996 2.0
vertex -51.304 -4.684499999999996 0.0
vertex -51.051 -8.427499999999998 0.0
endloop
endfacet
facet normal -0.9998431086213965 -0.017713219422291766 -0.0
outer loop
vertex -51.369 -1.0154999999999959 2.0
vertex -51.369 -1.0154999999999959 0.0
vertex -51.304 -4.684499999999996 0.0
endloop
endfacet
facet normal 0.5476686077029863 -0.8366953424853472 0.0
outer loop
vertex -23.845999999999997 -29.455499999999997 2.0
vertex -23.845999999999997 -29.455499999999997 0.0
vertex -17.071999999999996 -25.021499999999996 0.0
endloop
endfacet
facet normal 0.6013230283584724 -0.7990060172275274 0.0
outer loop
vertex -17.071999999999996 -25.021499999999996 2.0
vertex -17.071999999999996 -25.021499999999996 0.0
vertex -9.925999999999998 -19.643499999999996 0.0
endloop
endfacet
facet normal -0.0 0.0 -1.0
outer loop
vertex -17.071999999999996 -25.021499999999996 0.0
vertex -23.845999999999997 -29.455499999999997 0.0
vertex -8.073999999999998 10.924500000000005 0.0
endloop
endfacet
facet normal 0.0 -0.0 -1.0
outer loop
vertex -17.071999999999996 -25.021499999999996 0.0
vertex -8.073999999999998 10.924500000000005 0.0
vertex -9.925999999999998 -19.643499999999996 0.0
endloop
endfacet
facet normal 0.0 0.0 -1.0
outer loop
vertex -9.925999999999998 -19.643499999999996 0.0
vertex -6.071999999999999 9.5425 0.0
vertex -3.919999999999998 8.4515 0.0
endloop
endfacet
facet normal 0.0 0.0 -1.0
outer loop
vertex -9.925999999999998 -19.643499999999996 0.0
vertex 0.6829999999999998 7.098500000000005 0.0
vertex 4.362000000000002 -8.137499999999996 0.0
endloop
endfacet
facet normal 0.0 0.0 -1.0
outer loop
vertex -9.925999999999998 -19.643499999999996 0.0
vertex -3.919999999999998 8.4515 0.0
vertex -1.6600000000000001 7.6434999999999995 0.0
endloop
endfacet
facet normal 0.0 0.0 -1.0
outer loop
vertex -9.925999999999998 -19.643499999999996 0.0
vertex -1.6600000000000001 7.6434999999999995 0.0
vertex 0.6829999999999998 7.098500000000005 0.0
endloop
endfacet
facet normal 0.6272046414979634 -0.7788545035392752 0.0
outer loop
vertex -9.925999999999998 -19.643499999999996 2.0
vertex -9.925999999999998 -19.643499999999996 0.0
vertex 4.362000000000002 -8.137499999999996 0.0
endloop
endfacet
facet normal -0.9338985549040607 -0.35753809468098247 0.0
outer loop
vertex -45.153999999999996 -32.0365 2.0
vertex -46.733999999999995 -27.909499999999998 2.0
vertex -45.153999999999996 -32.0365 0.0
endloop
endfacet
facet normal -0.9441554200654777 -0.3295004442500515 0.0
outer loop
vertex -43.713 -37.0395 2.0
vertex -44.352000000000004 -35.2085 2.0
vertex -43.713 -37.0395 0.0
endloop
endfacet
facet normal -0.9694918068524121 -0.2451237166127447 0.0
outer loop
vertex -44.352000000000004 -35.2085 2.0
vertex -45.153999999999996 -32.0365 2.0
vertex -44.352000000000004 -35.2085 0.0
endloop
endfacet
facet normal 0.16890914196673804 -0.98563162579133 0.0
outer loop
vertex -39.71 -36.3535 2.0
vertex -43.713 -37.0395 2.0
vertex -39.71 -36.3535 0.0
endloop
endfacet
facet normal -0.9506545339076583 -0.310251441835188 0.0
outer loop
vertex -46.733999999999995 -27.909499999999998 2.0
vertex -48.028000000000006 -23.944499999999998 2.0
vertex -46.733999999999995 -27.909499999999998 0.0
endloop
endfacet
facet normal -0.9649839104831134 -0.26230907820492694 0.0
outer loop
vertex -48.028000000000006 -23.944499999999998 2.0
vertex -49.099000000000004 -20.004499999999997 2.0
vertex -48.028000000000006 -23.944499999999998 0.0
endloop
endfacet
facet normal -0.976777533304773 -0.21425603942723057 0.0
outer loop
vertex -49.099000000000004 -20.004499999999997 2.0
vertex -49.956 -16.097499999999997 2.0
vertex -49.099000000000004 -20.004499999999997 0.0
endloop
endfacet
facet normal 0.3337239314509381 -0.9426708532552227 0.0
outer loop
vertex -31.637 -33.4955 2.0
vertex -39.71 -36.3535 2.0
vertex -31.637 -33.4955 0.0
endloop
endfacet
facet normal 0.46033712008219946 -0.8877441838020831 0.0
outer loop
vertex -23.845999999999997 -29.455499999999997 2.0
vertex -31.637 -33.4955 2.0
vertex -23.845999999999997 -29.455499999999997 0.0
endloop
endfacet
facet normal -0.0 0.0 1.0
outer loop
vertex -44.352000000000004 -35.2085 2.0
vertex -43.713 -37.0395 2.0
vertex -39.71 -36.3535 2.0
endloop
endfacet
facet normal 0.0 0.0 1.0
outer loop
vertex -45.153999999999996 -32.0365 2.0
vertex -44.352000000000004 -35.2085 2.0
vertex -39.71 -36.3535 2.0
endloop
endfacet
facet normal -0.0 0.0 1.0
outer loop
vertex -45.153999999999996 -32.0365 2.0
vertex -39.71 -36.3535 2.0
vertex -31.637 -33.4955 2.0
endloop
endfacet
facet normal 0.0 0.0 1.0
outer loop
vertex -46.733999999999995 -27.909499999999998 2.0
vertex -45.153999999999996 -32.0365 2.0
vertex -31.637 -33.4955 2.0
endloop
endfacet
facet normal -0.0 0.0 1.0
outer loop
vertex -46.733999999999995 -27.909499999999998 2.0
vertex -31.637 -33.4955 2.0
vertex -23.845999999999997 -29.455499999999997 2.0
endloop
endfacet
facet normal -0.9862138915986948 -0.16547555716104367 0.0
outer loop
vertex -49.956 -16.097499999999997 2.0
vertex -50.604 -12.235499999999998 2.0
vertex -49.956 -16.097499999999997 0.0
endloop
endfacet
facet normal -0.9931808361449953 -0.11658398995714696 0.0
outer loop
vertex -50.604 -12.235499999999998 2.0
vertex -51.051 -8.427499999999998 2.0
vertex -50.604 -12.235499999999998 0.0
endloop
endfacet
facet normal -0.9977234020062641 -0.06743895824407822 0.0
outer loop
vertex -51.051 -8.427499999999998 2.0
vertex -51.304 -4.684499999999996 2.0
vertex -51.051 -8.427499999999998 0.0
endloop
endfacet
facet normal -0.9998431086213965 -0.017713219422291766 0.0
outer loop
vertex -51.304 -4.684499999999996 2.0
vertex -51.369 -1.0154999999999959 2.0
vertex -51.304 -4.684499999999996 0.0
endloop
endfacet
facet normal 0.0 0.0 1.0
outer loop
vertex -8.073999999999998 10.924500000000005 2.0
vertex -48.028000000000006 -23.944499999999998 2.0
vertex -46.733999999999995 -27.909499999999998 2.0
endloop
endfacet
facet normal 0.0 0.0 0.9999999999999999
outer loop
vertex -8.073999999999998 10.924500000000005 2.0
vertex -49.099000000000004 -20.004499999999997 2.0
vertex -48.028000000000006 -23.944499999999998 2.0
endloop
endfacet
facet normal 0.0 0.0 1.0
outer loop
vertex -8.073999999999998 10.924500000000005 2.0
vertex -46.733999999999995 -27.909499999999998 2.0
vertex -23.845999999999997 -29.455499999999997 2.0
endloop
endfacet
facet normal 0.0 0.0 1.0
outer loop
vertex -8.073999999999998 10.924500000000005 2.0
vertex -49.956 -16.097499999999997 2.0
vertex -49.099000000000004 -20.004499999999997 2.0
endloop
endfacet
facet normal 0.0 0.0 1.0
outer loop
vertex -8.75 11.491500000000006 2.0
vertex -50.604 -12.235499999999998 2.0
vertex -49.956 -16.097499999999997 2.0
endloop
endfacet
facet normal 0.0 0.0 1.0
outer loop
vertex -8.75 11.491500000000006 2.0
vertex -51.051 -8.427499999999998 2.0
vertex -50.604 -12.235499999999998 2.0
endloop
endfacet
facet normal 0.5476686077029863 -0.8366953424853472 0.0
outer loop
vertex -17.071999999999996 -25.021499999999996 2.0
vertex -23.845999999999997 -29.455499999999997 2.0
vertex -17.071999999999996 -25.021499999999996 0.0
endloop
endfacet
facet normal 0.6013230283584724 -0.7990060172275274 0.0
outer loop
vertex -9.925999999999998 -19.643499999999996 2.0
vertex -17.071999999999996 -25.021499999999996 2.0
vertex -9.925999999999998 -19.643499999999996 0.0
endloop
endfacet
facet normal 0.6272046414979634 -0.7788545035392752 0.0
outer loop
vertex 4.362000000000002 -8.137499999999996 2.0
vertex -9.925999999999998 -19.643499999999996 2.0
vertex 4.362000000000002 -8.137499999999996 0.0
endloop
endfacet
facet normal 0.0 -0.0 1.0
outer loop
vertex -17.071999999999996 -25.021499999999996 2.0
vertex -8.073999999999998 10.924500000000005 2.0
vertex -23.845999999999997 -29.455499999999997 2.0
endloop
endfacet
facet normal 0.0 0.0 1.0
outer loop
vertex -17.071999999999996 -25.021499999999996 2.0
vertex -9.925999999999998 -19.643499999999996 2.0
vertex -8.073999999999998 10.924500000000005 2.0
endloop
endfacet
facet normal 0.0 -0.0 1.0
outer loop
vertex -9.925999999999998 -19.643499999999996 2.0
vertex -3.919999999999998 8.4515 2.0
vertex -6.071999999999999 9.5425 2.0
endloop
endfacet
facet normal 0.0 -0.0 1.0
outer loop
vertex -9.925999999999998 -19.643499999999996 2.0
vertex 4.362000000000002 -8.137499999999996 2.0
vertex 0.6829999999999998 7.098500000000005 2.0
endloop
endfacet
facet normal 0.0 -0.0 1.0
outer loop
vertex -9.925999999999998 -19.643499999999996 2.0
vertex -1.6600000000000001 7.6434999999999995 2.0
vertex -3.919999999999998 8.4515 2.0
endloop
endfacet
facet normal 0.0 -0.0 1.0
outer loop
vertex -9.925999999999998 -19.643499999999996 2.0
vertex 0.6829999999999998 7.098500000000005 2.0
vertex -1.6600000000000001 7.6434999999999995 2.0
endloop
endfacet
facet normal -0.0 0.0 -1.0
outer loop
vertex -10.459 13.2375 0.0
vertex -51.051 -8.427499999999998 0.0
vertex -51.304 -4.684499999999996 0.0
endloop
endfacet
facet normal -0.0 0.0 -1.0
outer loop
vertex -10.459 13.2375 0.0
vertex -51.304 -4.684499999999996 0.0
vertex -51.369 -1.0154999999999959 0.0
endloop
endfacet
facet normal -0.0 0.0 -1.0
outer loop
vertex -10.459 13.2375 0.0
vertex -51.369 -1.0154999999999959 0.0
vertex -51.254999999999995 2.5665000000000013 0.0
endloop
endfacet
facet normal -0.0 0.0 -1.0
outer loop
vertex -11.913 15.209500000000002 0.0
vertex -51.254999999999995 2.5665000000000013 0.0
vertex -50.968 6.0525000000000055 0.0
endloop
endfacet
facet normal -0.0 0.0 -1.0
outer loop
vertex -11.913 15.209500000000002 0.0
vertex -50.968 6.0525000000000055 0.0
vertex -50.515 9.431500000000003 0.0
endloop
endfacet
facet normal -0.0 0.0 -1.0
outer loop
vertex -13.088999999999999 17.3565 0.0
vertex -50.515 9.431500000000003 0.0
vertex -49.775999999999996 13.7135 0.0
endloop
endfacet
facet normal -0.0 0.0 -1.0
outer loop
vertex -13.994 19.6435 0.0
vertex -49.775999999999996 13.7135 0.0
vertex -14.656999999999996 22.135500000000004 0.0
endloop
endfacet
facet normal -0.9994939437645137 0.03180969000255694 0.0
outer loop
vertex -51.254999999999995 2.5665000000000013 2.0
vertex -51.254999999999995 2.5665000000000013 0.0
vertex -51.369 -1.0154999999999959 0.0
endloop
endfacet
facet normal -0.9966280735919044 0.08205170887001381 0.0
outer loop
vertex -50.968 6.0525000000000055 2.0
vertex -50.968 6.0525000000000055 0.0
vertex -51.254999999999995 2.5665000000000013 0.0
endloop
endfacet
facet normal -0.9911328606986816 0.13287457410373069 0.0
outer loop
vertex -50.515 9.431500000000003 2.0
vertex -50.515 9.431500000000003 0.0
vertex -50.968 6.0525000000000055 0.0
endloop
endfacet
facet normal -0.9854321994172611 0.17006875183777692 0.0
outer loop
vertex -49.775999999999996 13.7135 2.0
vertex -49.775999999999996 13.7135 0.0
vertex -50.515 9.431500000000003 0.0
endloop
endfacet
facet normal -0.0 0.0 -1.0
outer loop
vertex -45.413 36.99550000000001 0.0
vertex -49.775999999999996 13.7135 0.0
vertex -48.91799999999999 37.039500000000004 0.0
endloop
endfacet
facet normal -0.0 0.0 -1.0
outer loop
vertex -38.876 36.191500000000005 0.0
vertex -49.775999999999996 13.7135 0.0
vertex -45.413 36.99550000000001 0.0
endloop
endfacet
facet normal -0.0 0.0 -1.0
outer loop
vertex -32.830999999999996 34.8065 0.0
vertex -49.775999999999996 13.7135 0.0
vertex -38.876 36.191500000000005 0.0
endloop
endfacet
facet normal -0.0 0.0 -1.0
outer loop
vertex -26.241 32.6065 0.0
vertex -49.775999999999996 13.7135 0.0
vertex -32.830999999999996 34.8065 0.0
endloop
endfacet
facet normal -0.0 0.0 -1.0
outer loop
vertex -14.656999999999996 22.135500000000004 0.0
vertex -49.775999999999996 13.7135 0.0
vertex -15.317 26.293500000000005 0.0
endloop
endfacet
facet normal -0.0 0.0 -0.9999999999999999
outer loop
vertex -19.848999999999997 29.794500000000003 0.0
vertex -49.775999999999996 13.7135 0.0
vertex -26.241 32.6065 0.0
endloop
endfacet
facet normal -0.0 0.0 -1.0
outer loop
vertex -15.317 26.293500000000005 0.0
vertex -49.775999999999996 13.7135 0.0
vertex -19.848999999999997 29.794500000000003 0.0
endloop
endfacet
facet normal -0.9993241915557509 0.03675813068485116 0.0
outer loop
vertex -48.91799999999999 37.039500000000004 2.0
vertex -48.91799999999999 37.039500000000004 0.0
vertex -49.775999999999996 13.7135 0.0
endloop
endfacet
facet normal 0.012552505969901219 0.999921214193336 0.0
outer loop
vertex -45.413 36.99550000000001 2.0
vertex -45.413 36.99550000000001 0.0
vertex -48.91799999999999 37.039500000000004 0.0
endloop
endfacet
facet normal 0.12207236453630474 0.9925212027037587 0.0
outer loop
vertex -38.876 36.191500000000005 2.0
vertex -38.876 36.191500000000005 0.0
vertex -45.413 36.99550000000001 0.0
endloop
endfacet
facet normal 0.22332828040789668 0.9747432888561234 0.0
outer loop
vertex -32.830999999999996 34.8065 2.0
vertex -32.830999999999996 34.8065 0.0
vertex -38.876 36.191500000000005 0.0
endloop
endfacet
facet normal 0.31665954172539756 0.9485392636228936 0.0
outer loop
vertex -26.241 32.6065 2.0
vertex -26.241 32.6065 0.0
vertex -32.830999999999996 34.8065 0.0
endloop
endfacet
facet normal -0.0 0.0 -0.9999999999999999
outer loop
vertex -8.073999999999998 10.924500000000005 0.0
vertex -49.956 -16.097499999999997 0.0
vertex -8.75 11.491500000000006 0.0
endloop
endfacet
facet normal -0.0 0.0 -1.0
outer loop
vertex -8.75 11.491500000000006 0.0
vertex -51.051 -8.427499999999998 0.0
vertex -10.459 13.2375 0.0
endloop
endfacet
facet normal -0.0 0.0 -1.0
outer loop
vertex -10.459 13.2375 0.0
vertex -51.254999999999995 2.5665000000000013 0.0
vertex -11.913 15.209500000000002 0.0
endloop
endfacet
facet normal -0.0 0.0 -1.0
outer loop
vertex -11.913 15.209500000000002 0.0
vertex -50.515 9.431500000000003 0.0
vertex -13.088999999999999 17.3565 0.0
endloop
endfacet
facet normal -0.0 0.0 -1.0
outer loop
vertex -13.088999999999999 17.3565 0.0
vertex -49.775999999999996 13.7135 0.0
vertex -13.994 19.6435 0.0
endloop
endfacet
facet normal 0.0 0.0 -1.0
outer loop
vertex -9.925999999999998 -19.643499999999996 0.0
vertex -8.073999999999998 10.924500000000005 0.0
vertex -6.071999999999999 9.5425 0.0
endloop
endfacet
facet normal 0.9298442910532189 0.36795325028559883 0.0
outer loop
vertex -13.088999999999999 17.3565 2.0
vertex -13.088999999999999 17.3565 0.0
vertex -13.994 19.6435 0.0
endloop
endfacet
facet normal 0.45218024970038334 0.8919265786940646 0.0
outer loop
vertex -3.919999999999998 8.4515 2.0
vertex -3.919999999999998 8.4515 0.0
vertex -6.071999999999999 9.5425 0.0
endloop
endfacet
facet normal 0.33665310730068787 0.9416287407172699 0.0
outer loop
vertex -1.6600000000000001 7.6434999999999995 2.0
vertex -1.6600000000000001 7.6434999999999995 0.0
vertex -3.919999999999998 8.4515 0.0
endloop
endfacet
facet normal 0.22655935209272232 0.9739973613821168 0.0
outer loop
vertex 0.6829999999999998 7.098500000000005 2.0
vertex 0.6829999999999998 7.098500000000005 0.0
vertex -1.6600000000000001 7.6434999999999995 0.0
endloop
endfacet
facet normal 0.642633724874732 0.7661735414732275 0.0
outer loop
vertex -8.073999999999998 10.924500000000005 2.0
vertex -8.073999999999998 10.924500000000005 0.0
vertex -8.75 11.491500000000006 0.0
endloop
endfacet
facet normal 0.5680979269777543 0.8229609622354989 0.0
outer loop
vertex -6.071999999999999 9.5425 2.0
vertex -6.071999999999999 9.5425 0.0
vertex -8.073999999999998 10.924500000000005 0.0
endloop
endfacet
facet normal 0.7146382925544177 0.6994941821165538 0.0
outer loop
vertex -8.75 11.491500000000006 2.0
vertex -8.75 11.491500000000006 0.0
vertex -10.459 13.2375 0.0
endloop
endfacet
facet normal 0.877051191716623 0.480396926622612 0.0
outer loop
vertex -11.913 15.209500000000002 2.0
vertex -11.913 15.209500000000002 0.0
vertex -13.088999999999999 17.3565 0.0
endloop
endfacet
facet normal 0.8048711417664879 0.5934496146696111 0.0
outer loop
vertex -10.459 13.2375 2.0
vertex -10.459 13.2375 0.0
vertex -11.913 15.209500000000002 0.0
endloop
endfacet
facet normal 0.0 0.0 -1.0
outer loop
vertex -15.317 26.293500000000005 0.0
vertex -19.848999999999997 29.794500000000003 0.0
vertex -15.391999999999996 27.342500000000005 0.0
endloop
endfacet
facet normal 0.9663828176953991 0.2571074671476907 0.0
outer loop
vertex -13.994 19.6435 2.0
vertex -13.994 19.6435 0.0
vertex -14.656999999999996 22.135500000000004 0.0
endloop
endfacet
facet normal 0.9876355284644627 0.1567675442007092 0.0
outer loop
vertex -14.656999999999996 22.135500000000004 2.0
vertex -14.656999999999996 22.135500000000004 0.0
vertex -15.317 26.293500000000005 0.0
endloop
endfacet
facet normal 0.9974538708329177 0.07131462374877466 0.0
outer loop
vertex -15.317 26.293500000000005 2.0
vertex -15.317 26.293500000000005 0.0
vertex -15.391999999999996 27.342500000000005 0.0
endloop
endfacet
facet normal 0.4026810259620169 0.9153403691142314 0.0
outer loop
vertex -19.848999999999997 29.794500000000003 2.0
vertex -19.848999999999997 29.794500000000003 0.0
vertex -26.241 32.6065 0.0
endloop
endfacet
facet normal 0.4820168486424457 0.8761619471449358 0.0
outer loop
vertex -15.391999999999996 27.342500000000005 2.0
vertex -15.391999999999996 27.342500000000005 0.0
vertex -19.848999999999997 29.794500000000003 0.0
endloop
endfacet
facet normal -0.9994939437645137 0.03180969000255694 0.0
outer loop
vertex -51.369 -1.0154999999999959 2.0
vertex -51.254999999999995 2.5665000000000013 2.0
vertex -51.369 -1.0154999999999959 0.0
endloop
endfacet
facet normal -0.9966280735919044 0.08205170887001381 0.0
outer loop
vertex -51.254999999999995 2.5665000000000013 2.0
vertex -50.968 6.0525000000000055 2.0
vertex -51.254999999999995 2.5665000000000013 0.0
endloop
endfacet
facet normal -0.9911328606986816 0.13287457410373069 0.0
outer loop
vertex -50.968 6.0525000000000055 2.0
vertex -50.515 9.431500000000003 2.0
vertex -50.968 6.0525000000000055 0.0
endloop
endfacet
facet normal -0.9854321994172611 0.17006875183777692 0.0
outer loop
vertex -50.515 9.431500000000003 2.0
vertex -49.775999999999996 13.7135 2.0
vertex -50.515 9.431500000000003 0.0
endloop
endfacet
facet normal 0.0 0.0 1.0
outer loop
vertex -10.459 13.2375 2.0
vertex -51.304 -4.684499999999996 2.0
vertex -51.051 -8.427499999999998 2.0
endloop
endfacet
facet normal 0.0 0.0 1.0
outer loop
vertex -10.459 13.2375 2.0
vertex -51.369 -1.0154999999999959 2.0
vertex -51.304 -4.684499999999996 2.0
endloop
endfacet
facet normal 0.0 0.0 1.0
outer loop
vertex -10.459 13.2375 2.0
vertex -51.254999999999995 2.5665000000000013 2.0
vertex -51.369 -1.0154999999999959 2.0
endloop
endfacet
facet normal 0.0 0.0 1.0
outer loop
vertex -11.913 15.209500000000002 2.0
vertex -50.968 6.0525000000000055 2.0
vertex -51.254999999999995 2.5665000000000013 2.0
endloop
endfacet
facet normal 0.0 0.0 0.9999999999999999
outer loop
vertex -11.913 15.209500000000002 2.0
vertex -50.515 9.431500000000003 2.0
vertex -50.968 6.0525000000000055 2.0
endloop
endfacet
facet normal 0.0 0.0 1.0
outer loop
vertex -13.088999999999999 17.3565 2.0
vertex -49.775999999999996 13.7135 2.0
vertex -50.515 9.431500000000003 2.0
endloop
endfacet
facet normal 0.0 0.0 1.0
outer loop
vertex -13.994 19.6435 2.0
vertex -14.656999999999996 22.135500000000004 2.0
vertex -49.775999999999996 13.7135 2.0
endloop
endfacet
facet normal -0.9993241915557509 0.03675813068485116 0.0
outer loop
vertex -49.775999999999996 13.7135 2.0
vertex -48.91799999999999 37.039500000000004 2.0
vertex -49.775999999999996 13.7135 0.0
endloop
endfacet
facet normal 0.012552505969901219 0.999921214193336 0.0
outer loop
vertex -48.91799999999999 37.039500000000004 2.0
vertex -45.413 36.99550000000001 2.0
vertex -48.91799999999999 37.039500000000004 0.0
endloop
endfacet
facet normal 0.12207236453630474 0.9925212027037587 0.0
outer loop
vertex -45.413 36.99550000000001 2.0
vertex -38.876 36.191500000000005 2.0
vertex -45.413 36.99550000000001 0.0
endloop
endfacet
facet normal 0.22332828040789668 0.9747432888561234 0.0
outer loop
vertex -38.876 36.191500000000005 2.0
vertex -32.830999999999996 34.8065 2.0
vertex -38.876 36.191500000000005 0.0
endloop
endfacet
facet normal 0.31665954172539756 0.9485392636228936 0.0
outer loop
vertex -32.830999999999996 34.8065 2.0
vertex -26.241 32.6065 2.0
vertex -32.830999999999996 34.8065 0.0
endloop
endfacet
facet normal 0.0 0.0 1.0
outer loop
vertex -45.413 36.99550000000001 2.0
vertex -48.91799999999999 37.039500000000004 2.0
vertex -49.775999999999996 13.7135 2.0
endloop
endfacet
facet normal 0.0 0.0 1.0
outer loop
vertex -38.876 36.191500000000005 2.0
vertex -45.413 36.99550000000001 2.0
vertex -49.775999999999996 13.7135 2.0
endloop
endfacet
facet normal 0.0 0.0 1.0
outer loop
vertex -32.830999999999996 34.8065 2.0
vertex -38.876 36.191500000000005 2.0
vertex -49.775999999999996 13.7135 2.0
endloop
endfacet
facet normal 0.0 0.0 1.0
outer loop
vertex -26.241 32.6065 2.0
vertex -32.830999999999996 34.8065 2.0
vertex -49.775999999999996 13.7135 2.0
endloop
endfacet
facet normal 0.0 0.0 1.0
outer loop
vertex -14.656999999999996 22.135500000000004 2.0
vertex -15.317 26.293500000000005 2.0
vertex -49.775999999999996 13.7135 2.0
endloop
endfacet
facet normal 0.0 0.0 1.0
outer loop
vertex -19.848999999999997 29.794500000000003 2.0
vertex -26.241 32.6065 2.0
vertex -49.775999999999996 13.7135 2.0
endloop
endfacet
facet normal 0.0 0.0 1.0
outer loop
vertex -15.317 26.293500000000005 2.0
vertex -19.848999999999997 29.794500000000003 2.0
vertex -49.775999999999996 13.7135 2.0
endloop
endfacet
facet normal 0.45218024970038334 0.8919265786940646 0.0
outer loop
vertex -6.071999999999999 9.5425 2.0
vertex -3.919999999999998 8.4515 2.0
vertex -6.071999999999999 9.5425 0.0
endloop
endfacet
facet normal 0.33665310730068787 0.9416287407172699 0.0
outer loop
vertex -3.919999999999998 8.4515 2.0
vertex -1.6600000000000001 7.6434999999999995 2.0
vertex -3.919999999999998 8.4515 0.0
endloop
endfacet
facet normal 0.22655935209272232 0.9739973613821168 0.0
outer loop
vertex -1.6600000000000001 7.6434999999999995 2.0
vertex 0.6829999999999998 7.098500000000005 2.0
vertex -1.6600000000000001 7.6434999999999995 0.0
endloop
endfacet
facet normal 0.7146382925544177 0.6994941821165538 0.0
outer loop
vertex -10.459 13.2375 2.0
vertex -8.75 11.491500000000006 2.0
vertex -10.459 13.2375 0.0
endloop
endfacet
facet normal 0.642633724874732 0.7661735414732275 0.0
outer loop
vertex -8.75 11.491500000000006 2.0
vertex -8.073999999999998 10.924500000000005 2.0
vertex -8.75 11.491500000000006 0.0
endloop
endfacet
facet normal 0.5680979269777543 0.8229609622354989 0.0
outer loop
vertex -8.073999999999998 10.924500000000005 2.0
vertex -6.071999999999999 9.5425 2.0
vertex -8.073999999999998 10.924500000000005 0.0
endloop
endfacet
facet normal 0.8048711417664879 0.5934496146696111 0.0
outer loop
vertex -11.913 15.209500000000002 2.0
vertex -10.459 13.2375 2.0
vertex -11.913 15.209500000000002 0.0
endloop
endfacet
facet normal 0.877051191716623 0.480396926622612 0.0
outer loop
vertex -13.088999999999999 17.3565 2.0
vertex -11.913 15.209500000000002 2.0
vertex -13.088999999999999 17.3565 0.0
endloop
endfacet
facet normal 0.0 0.0 1.0
outer loop
vertex -8.073999999999998 10.924500000000005 2.0
vertex -8.75 11.491500000000006 2.0
vertex -49.956 -16.097499999999997 2.0
endloop
endfacet
facet normal 0.0 0.0 1.0
outer loop
vertex -8.75 11.491500000000006 2.0
vertex -10.459 13.2375 2.0
vertex -51.051 -8.427499999999998 2.0
endloop
endfacet
facet normal 0.0 0.0 1.0
outer loop
vertex -10.459 13.2375 2.0
vertex -11.913 15.209500000000002 2.0
vertex -51.254999999999995 2.5665000000000013 2.0
endloop
endfacet
facet normal 0.0 0.0 1.0
outer loop
vertex -11.913 15.209500000000002 2.0
vertex -13.088999999999999 17.3565 2.0
vertex -50.515 9.431500000000003 2.0
endloop
endfacet
facet normal 0.0 0.0 1.0
outer loop
vertex -13.088999999999999 17.3565 2.0
vertex -13.994 19.6435 2.0
vertex -49.775999999999996 13.7135 2.0
endloop
endfacet
facet normal 0.0 -0.0 0.9999999999999999
outer loop
vertex -9.925999999999998 -19.643499999999996 2.0
vertex -6.071999999999999 9.5425 2.0
vertex -8.073999999999998 10.924500000000005 2.0
endloop
endfacet
facet normal 0.9298442910532189 0.36795325028559883 0.0
outer loop
vertex -13.994 19.6435 2.0
vertex -13.088999999999999 17.3565 2.0
vertex -13.994 19.6435 0.0
endloop
endfacet
facet normal 0.9663828176953991 0.2571074671476907 0.0
outer loop
vertex -14.656999999999996 22.135500000000004 2.0
vertex -13.994 19.6435 2.0
vertex -14.656999999999996 22.135500000000004 0.0
endloop
endfacet
facet normal 0.9876355284644627 0.1567675442007092 0.0
outer loop
vertex -15.317 26.293500000000005 2.0
vertex -14.656999999999996 22.135500000000004 2.0
vertex -15.317 26.293500000000005 0.0
endloop
endfacet
facet normal 0.9974538708329177 0.07131462374877466 0.0
outer loop
vertex -15.391999999999996 27.342500000000005 2.0
vertex -15.317 26.293500000000005 2.0
vertex -15.391999999999996 27.342500000000005 0.0
endloop
endfacet
facet normal 0.4026810259620169 0.9153403691142314 0.0
outer loop
vertex -26.241 32.6065 2.0
vertex -19.848999999999997 29.794500000000003 2.0
vertex -26.241 32.6065 0.0
endloop
endfacet
facet normal 0.4820168486424457 0.8761619471449358 0.0
outer loop
vertex -19.848999999999997 29.794500000000003 2.0
vertex -15.391999999999996 27.342500000000005 2.0
vertex -19.848999999999997 29.794500000000003 0.0
endloop
endfacet
facet normal 0.0 0.0 1.0
outer loop
vertex -15.317 26.293500000000005 2.0
vertex -15.391999999999996 27.342500000000005 2.0
vertex -19.848999999999997 29.794500000000003 2.0
endloop
endfacet
facet normal 0.0 0.0 -1.0
outer loop
vertex 4.362000000000002 -8.137499999999996 0.0
vertex 9.308000000000002 7.185500000000001 0.0
vertex 12.959000000000001 -2.676499999999997 0.0
endloop
endfacet
facet normal 0.5361891736182389 -0.8440978439106392 0.0
outer loop
vertex 4.362000000000002 -8.137499999999996 2.0
vertex 4.362000000000002 -8.137499999999996 0.0
vertex 12.959000000000001 -2.676499999999997 0.0
endloop
endfacet
facet normal 0.35528752535722113 -0.9347570670102163 0.0
outer loop
vertex 12.959000000000001 -2.676499999999997 2.0
vertex 12.959000000000001 -2.676499999999997 0.0
vertex 21.857 0.7055000000000042 0.0
endloop
endfacet
facet normal 0.5361891736182389 -0.8440978439106392 0.0
outer loop
vertex 12.959000000000001 -2.676499999999997 2.0
vertex 4.362000000000002 -8.137499999999996 2.0
vertex 12.959000000000001 -2.676499999999997 0.0
endloop
endfacet
facet normal 0.35528752535722113 -0.9347570670102163 0.0
outer loop
vertex 21.857 0.7055000000000042 2.0
vertex 12.959000000000001 -2.676499999999997 2.0
vertex 21.857 0.7055000000000042 0.0
endloop
endfacet
facet normal 0.0 -0.0 1.0
outer loop
vertex 4.362000000000002 -8.137499999999996 2.0
vertex 12.959000000000001 -2.676499999999997 2.0
vertex 9.308000000000002 7.185500000000001 2.0
endloop
endfacet
facet normal 0.0 0.0 -1.0
outer loop
vertex 4.362000000000002 -8.137499999999996 0.0
vertex 0.6829999999999998 7.098500000000005 0.0
vertex 3.0920000000000023 6.793500000000005 0.0
endloop
endfacet
facet normal 0.0 0.0 -1.0
outer loop
vertex 4.362000000000002 -8.137499999999996 0.0
vertex 3.0920000000000023 6.793500000000005 0.0
vertex 5.083 6.709500000000002 0.0
endloop
endfacet
facet normal 0.0 0.0 -1.0
outer loop
vertex 4.362000000000002 -8.137499999999996 0.0
vertex 5.083 6.709500000000002 0.0
vertex 6.1530000000000005 6.760500000000004 0.0
endloop
endfacet
facet normal 0.0 0.0 -1.0
outer loop
vertex 4.362000000000002 -8.137499999999996 0.0
vertex 6.1530000000000005 6.760500000000004 0.0
vertex 9.308000000000002 7.185500000000001 0.0
endloop
endfacet
facet normal 0.0 0.0 -1.0
outer loop
vertex 12.959000000000001 -2.676499999999997 0.0
vertex 9.308000000000002 7.185500000000001 0.0
vertex 12.339000000000002 7.482500000000005 0.0
endloop
endfacet
facet normal 0.0 0.0 -1.0
outer loop
vertex 12.959000000000001 -2.676499999999997 0.0
vertex 12.339000000000002 7.482500000000005 0.0
vertex 15.352 7.668500000000005 0.0
endloop
endfacet
facet normal 0.0 0.0 -1.0
outer loop
vertex 12.959000000000001 -2.676499999999997 0.0
vertex 15.352 7.668500000000005 0.0
vertex 18.336000000000002 7.746500000000001 0.0
endloop
endfacet
facet normal 0.0 0.0 -1.0
outer loop
vertex 12.959000000000001 -2.676499999999997 0.0
vertex 18.336000000000002 7.746500000000001 0.0
vertex 21.857 0.7055000000000042 0.0
endloop
endfacet
facet normal 0.0 0.0 -1.0
outer loop
vertex 21.857 0.7055000000000042 0.0
vertex 18.336000000000002 7.746500000000001 0.0
vertex 21.28 7.7215000000000025 0.0
endloop
endfacet
facet normal 0.0 0.0 -1.0
outer loop
vertex 21.857 0.7055000000000042 0.0
vertex 21.28 7.7215000000000025 0.0
vertex 24.171 7.595500000000005 0.0
endloop
endfacet
facet normal 0.0 0.0 -1.0
outer loop
vertex 21.857 0.7055000000000042 0.0
vertex 24.171 7.595500000000005 0.0
vertex 26.997 7.372500000000006 0.0
endloop
endfacet
facet normal 0.12560584003420835 0.9920802250570772 0.0
outer loop
vertex 3.0920000000000023 6.793500000000005 2.0
vertex 3.0920000000000023 6.793500000000005 0.0
vertex 0.6829999999999998 7.098500000000005 0.0
endloop
endfacet
facet normal 0.04215235576844532 0.9991111944639447 0.0
outer loop
vertex 5.083 6.709500000000002 2.0
vertex 5.083 6.709500000000002 0.0
vertex 3.0920000000000023 6.793500000000005 0.0
endloop
endfacet
facet normal -0.04760950211207755 0.9988660247043345 0.0
outer loop
vertex 6.1530000000000005 6.760500000000004 2.0
vertex 6.1530000000000005 6.760500000000004 0.0
vertex 5.083 6.709500000000002 0.0
endloop
endfacet
facet normal -0.13350101037550044 0.9910486770228396 0.0
outer loop
vertex 9.308000000000002 7.185500000000001 2.0
vertex 9.308000000000002 7.185500000000001 0.0
vertex 6.1530000000000005 6.760500000000004 0.0
endloop
endfacet
facet normal -0.09752040812658364 0.9952335253591614 0.0
outer loop
vertex 12.339000000000002 7.482500000000005 2.0
vertex 12.339000000000002 7.482500000000005 0.0
vertex 9.308000000000002 7.185500000000001 0.0
endloop
endfacet
facet normal -0.061615199472770436 0.9980999785562219 0.0
outer loop
vertex 15.352 7.668500000000005 2.0
vertex 15.352 7.668500000000005 0.0
vertex 12.339000000000002 7.482500000000005 0.0
endloop
endfacet
facet normal -0.026130484640058883 0.9996585405889731 0.0
outer loop
vertex 18.336000000000002 7.746500000000001 2.0
vertex 18.336000000000002 7.746500000000001 0.0
vertex 15.352 7.668500000000005 0.0
endloop
endfacet
facet normal 0.18028820649959534 -0.983613827981876 0.0
outer loop
vertex 21.857 0.7055000000000042 2.0
vertex 21.857 0.7055000000000042 0.0
vertex 32.654 2.6845000000000034 0.0
endloop
endfacet
facet normal 0.008491541662789575 0.9999639462101568 0.0
outer loop
vertex 21.28 7.7215000000000025 2.0
vertex 21.28 7.7215000000000025 0.0
vertex 18.336000000000002 7.746500000000001 0.0
endloop
endfacet
facet normal 0.04354219999037088 0.999051588667972 0.0
outer loop
vertex 24.171 7.595500000000005 2.0
vertex 24.171 7.595500000000005 0.0
vertex 21.28 7.7215000000000025 0.0
endloop
endfacet
facet normal 0.0 0.0 -0.9999999999999999
outer loop
vertex 21.857 0.7055000000000042 0.0
vertex 26.997 7.372500000000006 0.0
vertex 32.654 2.6845000000000034 0.0
endloop
endfacet
facet normal 0.0 0.0 -1.0
outer loop
vertex 32.654 2.6845000000000034 0.0
vertex 26.997 7.372500000000006 0.0
vertex 32.406 6.651500000000002 0.0
endloop
endfacet
facet normal 0.0 0.0 -0.9999999999999999
outer loop
vertex 32.654 2.6845000000000034 0.0
vertex 37.457 5.584500000000002 0.0
vertex 43.292 2.848500000000005 0.0
endloop
endfacet
facet normal 0.0 0.0 -1.0
outer loop
vertex 32.654 2.6845000000000034 0.0
vertex 32.406 6.651500000000002 0.0
vertex 34.964 6.163500000000003 0.0
endloop
endfacet
facet normal 0.0 0.0 -1.0
outer loop
vertex 32.654 2.6845000000000034 0.0
vertex 34.964 6.163500000000003 0.0
vertex 37.457 5.584500000000002 0.0
endloop
endfacet
facet normal 0.0 0.0 -1.0
outer loop
vertex 43.292 2.848500000000005 0.0
vertex 37.457 5.584500000000002 0.0
vertex 46.179 3.327500000000004 0.0
endloop
endfacet
facet normal 0.0 0.0 -0.9999999999999999
outer loop
vertex 43.292 2.848500000000005 0.0
vertex 46.179 3.327500000000004 0.0
vertex 51.369 1.7805 0.0
endloop
endfacet
facet normal 0.07866558268887192 0.9969010613396999 0.0
outer loop
vertex 26.997 7.372500000000006 2.0
vertex 26.997 7.372500000000006 0.0
vertex 24.171 7.595500000000005 0.0
endloop
endfacet
facet normal 0.13212770896319498 0.9912327015005797 0.0
outer loop
vertex 32.406 6.651500000000002 2.0
vertex 32.406 6.651500000000002 0.0
vertex 26.997 7.372500000000006 0.0
endloop
endfacet
facet normal 0.015414600002934667 -0.9998811879952285 0.0
outer loop
vertex 32.654 2.6845000000000034 2.0
vertex 32.654 2.6845000000000034 0.0
vertex 43.292 2.848500000000005 0.0
endloop
endfacet
facet normal 0.18739443205370238 0.9822847483470719 0.0
outer loop
vertex 34.964 6.163500000000003 2.0
vertex 34.964 6.163500000000003 0.0
vertex 32.406 6.651500000000002 0.0
endloop
endfacet
facet normal 0.22622901249739596 0.9740741418929326 0.0
outer loop
vertex 37.457 5.584500000000002 2.0
vertex 37.457 5.584500000000002 0.0
vertex 34.964 6.163500000000003 0.0
endloop
endfacet
facet normal 0.25051914510875056 0.9681116453870291 0.0
outer loop
vertex 46.179 3.327500000000004 2.0
vertex 46.179 3.327500000000004 0.0
vertex 37.457 5.584500000000002 0.0
endloop
endfacet
facet normal -0.13108631716346952 -0.9913709585480696 -0.0
outer loop
vertex 43.292 2.848500000000005 2.0
vertex 43.292 2.848500000000005 0.0
vertex 51.369 1.7805 0.0
endloop
endfacet
facet normal 0.2856534003391033 0.958332997905586 0.0
outer loop
vertex 51.369 1.7805 2.0
vertex 51.369 1.7805 0.0
vertex 46.179 3.327500000000004 0.0
endloop
endfacet
facet normal 0.12560584003420835 0.9920802250570772 0.0
outer loop
vertex 0.6829999999999998 7.098500000000005 2.0
vertex 3.0920000000000023 6.793500000000005 2.0
vertex 0.6829999999999998 7.098500000000005 0.0
endloop
endfacet
facet normal 0.04215235576844532 0.9991111944639447 0.0
outer loop
vertex 3.0920000000000023 6.793500000000005 2.0
vertex 5.083 6.709500000000002 2.0
vertex 3.0920000000000023 6.793500000000005 0.0
endloop
endfacet
facet normal -0.04760950211207755 0.9988660247043345 0.0
outer loop
vertex 5.083 6.709500000000002 2.0
vertex 6.1530000000000005 6.760500000000004 2.0
vertex 5.083 6.709500000000002 0.0
endloop
endfacet
facet normal -0.13350101037550044 0.9910486770228396 0.0
outer loop
vertex 6.1530000000000005 6.760500000000004 2.0
vertex 9.308000000000002 7.185500000000001 2.0
vertex 6.1530000000000005 6.760500000000004 0.0
endloop
endfacet
facet normal -0.09752040812658364 0.9952335253591614 0.0
outer loop
vertex 9.308000000000002 7.185500000000001 2.0
vertex 12.339000000000002 7.482500000000005 2.0
vertex 9.308000000000002 7.185500000000001 0.0
endloop
endfacet
facet normal -0.061615199472770436 0.9980999785562219 0.0
outer loop
vertex 12.339000000000002 7.482500000000005 2.0
vertex 15.352 7.668500000000005 2.0
vertex 12.339000000000002 7.482500000000005 0.0
endloop
endfacet
facet normal -0.026130484640058883 0.9996585405889731 0.0
outer loop
vertex 15.352 7.668500000000005 2.0
vertex 18.336000000000002 7.746500000000001 2.0
vertex 15.352 7.668500000000005 0.0
endloop
endfacet
facet normal 0.008491541662789575 0.9999639462101568 0.0
outer loop
vertex 18.336000000000002 7.746500000000001 2.0
vertex 21.28 7.7215000000000025 2.0
vertex 18.336000000000002 7.746500000000001 0.0
endloop
endfacet
facet normal 0.04354219999037088 0.999051588667972 0.0
outer loop
vertex 21.28 7.7215000000000025 2.0
vertex 24.171 7.595500000000005 2.0
vertex 21.28 7.7215000000000025 0.0
endloop
endfacet
facet normal 0.07866558268887192 0.9969010613396999 0.0
outer loop
vertex 24.171 7.595500000000005 2.0
vertex 26.997 7.372500000000006 2.0
vertex 24.171 7.595500000000005 0.0
endloop
endfacet
facet normal 0.0 0.0 1.0
outer loop
vertex 4.362000000000002 -8.137499999999996 2.0
vertex 3.0920000000000023 6.793500000000005 2.0
vertex 0.6829999999999998 7.098500000000005 2.0
endloop
endfacet
facet normal 0.0 -0.0 1.0
outer loop
vertex 4.362000000000002 -8.137499999999996 2.0
vertex 5.083 6.709500000000002 2.0
vertex 3.0920000000000023 6.793500000000005 2.0
endloop
endfacet
facet normal 0.0 -0.0 1.0
outer loop
vertex 4.362000000000002 -8.137499999999996 2.0
vertex 6.1530000000000005 6.760500000000004 2.0
vertex 5.083 6.709500000000002 2.0
endloop
endfacet
facet normal 0.0 -0.0 1.0
outer loop
vertex 4.362000000000002 -8.137499999999996 2.0
vertex 9.308000000000002 7.185500000000001 2.0
vertex 6.1530000000000005 6.760500000000004 2.0
endloop
endfacet
facet normal 0.0 0.0 1.0
outer loop
vertex 12.959000000000001 -2.676499999999997 2.0
vertex 12.339000000000002 7.482500000000005 2.0
vertex 9.308000000000002 7.185500000000001 2.0
endloop
endfacet
facet normal 0.0 -0.0 1.0
outer loop
vertex 12.959000000000001 -2.676499999999997 2.0
vertex 15.352 7.668500000000005 2.0
vertex 12.339000000000002 7.482500000000005 2.0
endloop
endfacet
facet normal 0.0 -0.0 1.0
outer loop
vertex 12.959000000000001 -2.676499999999997 2.0
vertex 18.336000000000002 7.746500000000001 2.0
vertex 15.352 7.668500000000005 2.0
endloop
endfacet
facet normal 0.0 -0.0 1.0
outer loop
vertex 12.959000000000001 -2.676499999999997 2.0
vertex 21.857 0.7055000000000042 2.0
vertex 18.336000000000002 7.746500000000001 2.0
endloop
endfacet
facet normal 0.0 0.0 1.0
outer loop
vertex 21.857 0.7055000000000042 2.0
vertex 21.28 7.7215000000000025 2.0
vertex 18.336000000000002 7.746500000000001 2.0
endloop
endfacet
facet normal 0.0 -0.0 1.0
outer loop
vertex 21.857 0.7055000000000042 2.0
vertex 24.171 7.595500000000005 2.0
vertex 21.28 7.7215000000000025 2.0
endloop
endfacet
facet normal 0.0 -0.0 1.0
outer loop
vertex 21.857 0.7055000000000042 2.0
vertex 26.997 7.372500000000006 2.0
vertex 24.171 7.595500000000005 2.0
endloop
endfacet
facet normal 0.18028820649959534 -0.983613827981876 0.0
outer loop
vertex 32.654 2.6845000000000034 2.0
vertex 21.857 0.7055000000000042 2.0
vertex 32.654 2.6845000000000034 0.0
endloop
endfacet
facet normal 0.13212770896319498 0.9912327015005797 0.0
outer loop
vertex 26.997 7.372500000000006 2.0
vertex 32.406 6.651500000000002 2.0
vertex 26.997 7.372500000000006 0.0
endloop
endfacet
facet normal 0.18739443205370238 0.9822847483470719 0.0
outer loop
vertex 32.406 6.651500000000002 2.0
vertex 34.964 6.163500000000003 2.0
vertex 32.406 6.651500000000002 0.0
endloop
endfacet
facet normal 0.22622901249739596 0.9740741418929326 0.0
outer loop
vertex 34.964 6.163500000000003 2.0
vertex 37.457 5.584500000000002 2.0
vertex 34.964 6.163500000000003 0.0
endloop
endfacet
facet normal 0.015414600002934667 -0.9998811879952285 0.0
outer loop
vertex 43.292 2.848500000000005 2.0
vertex 32.654 2.6845000000000034 2.0
vertex 43.292 2.848500000000005 0.0
endloop
endfacet
facet normal 0.25051914510875056 0.9681116453870291 0.0
outer loop
vertex 37.457 5.584500000000002 2.0
vertex 46.179 3.327500000000004 2.0
vertex 37.457 5.584500000000002 0.0
endloop
endfacet
facet normal 0.2856534003391033 0.958332997905586 0.0
outer loop
vertex 46.179 3.327500000000004 2.0
vertex 51.369 1.7805 2.0
vertex 46.179 3.327500000000004 0.0
endloop
endfacet
facet normal -0.13108631716346952 -0.9913709585480696 0.0
outer loop
vertex 51.369 1.7805 2.0
vertex 43.292 2.848500000000005 2.0
vertex 51.369 1.7805 0.0
endloop
endfacet
facet normal 0.0 -0.0 0.9999999999999999
outer loop
vertex 21.857 0.7055000000000042 2.0
vertex 32.654 2.6845000000000034 2.0
vertex 26.997 7.372500000000006 2.0
endloop
endfacet
facet normal 0.0 0.0 1.0
outer loop
vertex 32.654 2.6845000000000034 2.0
vertex 32.406 6.651500000000002 2.0
vertex 26.997 7.372500000000006 2.0
endloop
endfacet
facet normal 0.0 -0.0 0.9999999999999999
outer loop
vertex 32.654 2.6845000000000034 2.0
vertex 43.292 2.848500000000005 2.0
vertex 37.457 5.584500000000002 2.0
endloop
endfacet
facet normal 0.0 -0.0 1.0
outer loop
vertex 32.654 2.6845000000000034 2.0
vertex 34.964 6.163500000000003 2.0
vertex 32.406 6.651500000000002 2.0
endloop
endfacet
facet normal 0.0 -0.0 1.0
outer loop
vertex 32.654 2.6845000000000034 2.0
vertex 37.457 5.584500000000002 2.0
vertex 34.964 6.163500000000003 2.0
endloop
endfacet
facet normal 0.0 -0.0 1.0
outer loop
vertex 43.292 2.848500000000005 2.0
vertex 46.179 3.327500000000004 2.0
vertex 37.457 5.584500000000002 2.0
endloop
endfacet
facet normal -0.0 -0.0 0.9999999999999999
outer loop
vertex 43.292 2.848500000000005 2.0
vertex 51.369 1.7805 2.0
vertex 46.179 3.327500000000004 2.0
endloop
endfacet

endsolid
