solid 
facet normal -0.0 -0.0 -1.0
outer loop
vertex -70.592 -10.122 0.0
vertex -67.847 -15.64 0.0
vertex -71.104 -15.596999999999994 0.0
endloop
endfacet
facet normal -0.0 -0.0 -1.0
outer loop
vertex -70.592 -10.122 0.0
vertex -60.97599999999999 -16.48599999999999 0.0
vertex -67.847 -15.64 0.0
endloop
endfacet
facet normal 0.0 -0.0 -1.0
outer loop
vertex -40.172 -23.274 0.0
vertex -36.410999999999994 -22.945999999999998 0.0
vertex -37.14099999999999 -24.940999999999995 0.0
endloop
endfacet
facet normal 0.0 -0.0 -1.0
outer loop
vertex -40.172 -23.274 0.0
vertex -35.965999999999994 -22.010999999999996 0.0
vertex -36.410999999999994 -22.945999999999998 0.0
endloop
endfacet
facet normal -0.013201182992095313 -0.9999128605871659 -0.0
outer loop
vertex -71.104 -15.596999999999994 2.0
vertex -71.104 -15.596999999999994 0.0
vertex -67.847 -15.64 0.0
endloop
endfacet
facet normal -0.12220336189844545 -0.992505082274503 -0.0
outer loop
vertex -67.847 -15.64 2.0
vertex -67.847 -15.64 0.0
vertex -60.97599999999999 -16.48599999999999 0.0
endloop
endfacet
facet normal -0.21988828007319827 -0.9755250608192753 -0.0
outer loop
vertex -60.97599999999999 -16.48599999999999 2.0
vertex -60.97599999999999 -16.48599999999999 0.0
vertex -53.260999999999996 -18.224999999999994 0.0
endloop
endfacet
facet normal -0.3163990187904826 -0.9486261966172027 -0.0
outer loop
vertex -53.260999999999996 -18.224999999999994 2.0
vertex -53.260999999999996 -18.224999999999994 0.0
vertex -46.614 -20.441999999999993 0.0
endloop
endfacet
facet normal -0.4024433334864132 -0.9154448991241055 -0.0
outer loop
vertex -46.614 -20.441999999999993 2.0
vertex -46.614 -20.441999999999993 0.0
vertex -40.172 -23.274 0.0
endloop
endfacet
facet normal -0.48190765235254096 -0.8762220121659023 -0.0
outer loop
vertex -40.172 -23.274 2.0
vertex -40.172 -23.274 0.0
vertex -37.14099999999999 -24.940999999999995 0.0
endloop
endfacet
facet normal 0.9391043278416319 -0.3436321600623505 0.0
outer loop
vertex -37.14099999999999 -24.940999999999995 2.0
vertex -37.14099999999999 -24.940999999999995 0.0
vertex -36.410999999999994 -22.945999999999998 0.0
endloop
endfacet
facet normal 0.9029497527568912 -0.42974613901263725 0.0
outer loop
vertex -36.410999999999994 -22.945999999999998 2.0
vertex -36.410999999999994 -22.945999999999998 0.0
vertex -35.965999999999994 -22.010999999999996 0.0
endloop
endfacet
facet normal 0.8644910785032169 -0.5026481624241204 0.0
outer loop
vertex -35.965999999999994 -22.010999999999996 2.0
vertex -35.965999999999994 -22.010999999999996 0.0
vertex -35.019999999999996 -20.384 0.0
endloop
endfacet
facet normal -0.0 -0.0 -0.9999999999999999
outer loop
vertex -70.08699999999999 -6.682000000000002 0.0
vertex -60.97599999999999 -16.48599999999999 0.0
vertex -70.592 -10.122 0.0
endloop
endfacet
facet normal -0.0 -0.0 -1.0
outer loop
vertex -69.451 -3.5759999999999934 0.0
vertex -60.97599999999999 -16.48599999999999 0.0
vertex -70.08699999999999 -6.682000000000002 0.0
endloop
endfacet
facet normal -0.0 -0.0 -1.0
outer loop
vertex -68.68199999999999 -0.8509999999999991 0.0
vertex -60.97599999999999 -16.48599999999999 0.0
vertex -69.451 -3.5759999999999934 0.0
endloop
endfacet
facet normal -0.0 -0.0 -1.0
outer loop
vertex -68.68199999999999 -0.8509999999999991 0.0
vertex -53.260999999999996 -18.224999999999994 0.0
vertex -60.97599999999999 -16.48599999999999 0.0
endloop
endfacet
facet normal -0.0 -0.0 -1.0
outer loop
vertex -65.05699999999999 10.740000000000009 0.0
vertex -46.614 -20.441999999999993 0.0
vertex -53.260999999999996 -18.224999999999994 0.0
endloop
endfacet
facet normal -0.0 -0.0 -1.0
outer loop
vertex -67.44099999999999 2.456000000000003 0.0
vertex -53.260999999999996 -18.224999999999994 0.0
vertex -68.68199999999999 -0.8509999999999991 0.0
endloop
endfacet
facet normal -0.0 -0.0 -1.0
outer loop
vertex -66.685 5.344999999999999 0.0
vertex -53.260999999999996 -18.224999999999994 0.0
vertex -67.44099999999999 2.456000000000003 0.0
endloop
endfacet
facet normal -0.0 -0.0 -0.9999999999999999
outer loop
vertex -65.05699999999999 10.740000000000009 0.0
vertex -53.260999999999996 -18.224999999999994 0.0
vertex -66.685 5.344999999999999 0.0
endloop
endfacet
facet normal -0.0 -0.0 -1.0
outer loop
vertex -57.178999999999995 24.941000000000003 0.0
vertex -40.172 -23.274 0.0
vertex -46.614 -20.441999999999993 0.0
endloop
endfacet
facet normal 0.0 -0.0 -1.0
outer loop
vertex -57.178999999999995 24.941000000000003 0.0
vertex -35.965999999999994 -22.010999999999996 0.0
vertex -40.172 -23.274 0.0
endloop
endfacet
facet normal 0.0 -0.0 -1.0
outer loop
vertex -57.178999999999995 24.941000000000003 0.0
vertex -35.019999999999996 -20.384 0.0
vertex -35.965999999999994 -22.010999999999996 0.0
endloop
endfacet
facet normal 0.0 -0.0 -1.0
outer loop
vertex -57.178999999999995 24.941000000000003 0.0
vertex -34.443 -19.552999999999997 0.0
vertex -35.019999999999996 -20.384 0.0
endloop
endfacet
facet normal 0.0 -0.0 -1.0
outer loop
vertex -57.178999999999995 24.941000000000003 0.0
vertex -32.63099999999999 -17.444999999999993 0.0
vertex -34.443 -19.552999999999997 0.0
endloop
endfacet
facet normal 0.0 -0.0 -1.0
outer loop
vertex -57.178999999999995 24.941000000000003 0.0
vertex -30.531999999999993 -15.613 0.0
vertex -32.63099999999999 -17.444999999999993 0.0
endloop
endfacet
facet normal 0.0 -0.0 -1.0
outer loop
vertex -57.178999999999995 24.941000000000003 0.0
vertex -28.226999999999993 -14.083999999999989 0.0
vertex -30.531999999999993 -15.613 0.0
endloop
endfacet
facet normal 0.0 -0.0 -1.0
outer loop
vertex -57.178999999999995 24.941000000000003 0.0
vertex -25.753999999999994 -12.84599999999999 0.0
vertex -28.226999999999993 -14.083999999999989 0.0
endloop
endfacet
facet normal -0.9956558528587803 0.09310973455044685 0.0
outer loop
vertex -70.592 -10.122 2.0
vertex -70.592 -10.122 0.0
vertex -71.104 -15.596999999999994 0.0
endloop
endfacet
facet normal -0.9893956344525169 0.1452455800577125 0.0
outer loop
vertex -70.08699999999999 -6.682000000000002 2.0
vertex -70.08699999999999 -6.682000000000002 0.0
vertex -70.592 -10.122 0.0
endloop
endfacet
facet normal -0.9796726886720011 0.20060264970875297 0.0
outer loop
vertex -69.451 -3.5759999999999934 2.0
vertex -69.451 -3.5759999999999934 0.0
vertex -70.08699999999999 -6.682000000000002 0.0
endloop
endfacet
facet normal -0.9624118106951205 0.27159437887139615 0.0
outer loop
vertex -68.68199999999999 -0.8509999999999991 2.0
vertex -68.68199999999999 -0.8509999999999991 0.0
vertex -69.451 -3.5759999999999934 0.0
endloop
endfacet
facet normal 0.8214085553322329 -0.570340236373881 0.0
outer loop
vertex -35.019999999999996 -20.384 2.0
vertex -35.019999999999996 -20.384 0.0
vertex -34.443 -19.552999999999997 0.0
endloop
endfacet
facet normal 0.7583416786885939 -0.6518572683983553 0.0
outer loop
vertex -34.443 -19.552999999999997 2.0
vertex -34.443 -19.552999999999997 0.0
vertex -32.63099999999999 -17.444999999999993 0.0
endloop
endfacet
facet normal 0.6575638820565269 -0.753398792814768 0.0
outer loop
vertex -32.63099999999999 -17.444999999999993 2.0
vertex -32.63099999999999 -17.444999999999993 0.0
vertex -30.531999999999993 -15.613 0.0
endloop
endfacet
facet normal 0.5527798294990296 -0.8333273427045482 0.0
outer loop
vertex -30.531999999999993 -15.613 2.0
vertex -30.531999999999993 -15.613 0.0
vertex -28.226999999999993 -14.083999999999989 0.0
endloop
endfacet
facet normal 0.4476474499351095 -0.8942101322209417 0.0
outer loop
vertex -28.226999999999993 -14.083999999999989 2.0
vertex -28.226999999999993 -14.083999999999989 0.0
vertex -25.753999999999994 -12.84599999999999 0.0
endloop
endfacet
facet normal 0.3455220723335611 -0.9384106230911505 0.0
outer loop
vertex -25.753999999999994 -12.84599999999999 2.0
vertex -25.753999999999994 -12.84599999999999 0.0
vertex -23.143999999999995 -11.884999999999991 0.0
endloop
endfacet
facet normal 0.24579845226500974 -0.9693209586427634 0.0
outer loop
vertex -23.143999999999995 -11.884999999999991 2.0
vertex -23.143999999999995 -11.884999999999991 0.0
vertex -20.418999999999993 -11.193999999999988 0.0
endloop
endfacet
facet normal 0.14174067269429913 -0.989903824471937 0.0
outer loop
vertex -20.418999999999993 -11.193999999999988 2.0
vertex -20.418999999999993 -11.193999999999988 0.0
vertex -17.380999999999993 -10.759 0.0
endloop
endfacet
facet normal 0.02659649733320503 -0.9996462505954818 0.0
outer loop
vertex -17.380999999999993 -10.759 2.0
vertex -17.380999999999993 -10.759 0.0
vertex -10.577999999999994 -10.577999999999989 0.0
endloop
endfacet
facet normal 0.0024893237238272146 -0.999996901628899 0.0
outer loop
vertex -10.577999999999994 -10.577999999999989 2.0
vertex -10.577999999999994 -10.577999999999989 0.0
vertex 20.354000000000006 -10.50099999999999 0.0
endloop
endfacet
facet normal -0.013201182992095313 -0.9999128605871659 0.0
outer loop
vertex -67.847 -15.64 2.0
vertex -71.104 -15.596999999999994 2.0
vertex -67.847 -15.64 0.0
endloop
endfacet
facet normal -0.12220336189844545 -0.992505082274503 0.0
outer loop
vertex -60.97599999999999 -16.48599999999999 2.0
vertex -67.847 -15.64 2.0
vertex -60.97599999999999 -16.48599999999999 0.0
endloop
endfacet
facet normal -0.9956558528587803 0.09310973455044685 0.0
outer loop
vertex -71.104 -15.596999999999994 2.0
vertex -70.592 -10.122 2.0
vertex -71.104 -15.596999999999994 0.0
endloop
endfacet
facet normal -0.21988828007319827 -0.9755250608192753 0.0
outer loop
vertex -53.260999999999996 -18.224999999999994 2.0
vertex -60.97599999999999 -16.48599999999999 2.0
vertex -53.260999999999996 -18.224999999999994 0.0
endloop
endfacet
facet normal -0.3163990187904826 -0.9486261966172027 0.0
outer loop
vertex -46.614 -20.441999999999993 2.0
vertex -53.260999999999996 -18.224999999999994 2.0
vertex -46.614 -20.441999999999993 0.0
endloop
endfacet
facet normal -0.4024433334864132 -0.9154448991241055 0.0
outer loop
vertex -40.172 -23.274 2.0
vertex -46.614 -20.441999999999993 2.0
vertex -40.172 -23.274 0.0
endloop
endfacet
facet normal -0.48190765235254096 -0.8762220121659023 0.0
outer loop
vertex -37.14099999999999 -24.940999999999995 2.0
vertex -40.172 -23.274 2.0
vertex -37.14099999999999 -24.940999999999995 0.0
endloop
endfacet
facet normal 0.9391043278416319 -0.3436321600623505 0.0
outer loop
vertex -36.410999999999994 -22.945999999999998 2.0
vertex -37.14099999999999 -24.940999999999995 2.0
vertex -36.410999999999994 -22.945999999999998 0.0
endloop
endfacet
facet normal 0.9029497527568912 -0.42974613901263725 0.0
outer loop
vertex -35.965999999999994 -22.010999999999996 2.0
vertex -36.410999999999994 -22.945999999999998 2.0
vertex -35.965999999999994 -22.010999999999996 0.0
endloop
endfacet
facet normal 0.0 0.0 1.0
outer loop
vertex -70.592 -10.122 2.0
vertex -71.104 -15.596999999999994 2.0
vertex -67.847 -15.64 2.0
endloop
endfacet
facet normal 0.0 0.0 1.0
outer loop
vertex -70.592 -10.122 2.0
vertex -67.847 -15.64 2.0
vertex -60.97599999999999 -16.48599999999999 2.0
endloop
endfacet
facet normal -0.0 0.0 0.9999999999999999
outer loop
vertex -40.172 -23.274 2.0
vertex -37.14099999999999 -24.940999999999995 2.0
vertex -36.410999999999994 -22.945999999999998 2.0
endloop
endfacet
facet normal 0.0 0.0 1.0
outer loop
vertex -40.172 -23.274 2.0
vertex -36.410999999999994 -22.945999999999998 2.0
vertex -35.965999999999994 -22.010999999999996 2.0
endloop
endfacet
facet normal -0.9893956344525169 0.1452455800577125 0.0
outer loop
vertex -70.592 -10.122 2.0
vertex -70.08699999999999 -6.682000000000002 2.0
vertex -70.592 -10.122 0.0
endloop
endfacet
facet normal -0.9796726886720011 0.20060264970875297 0.0
outer loop
vertex -70.08699999999999 -6.682000000000002 2.0
vertex -69.451 -3.5759999999999934 2.0
vertex -70.08699999999999 -6.682000000000002 0.0
endloop
endfacet
facet normal -0.9624118106951205 0.27159437887139615 0.0
outer loop
vertex -69.451 -3.5759999999999934 2.0
vertex -68.68199999999999 -0.8509999999999991 2.0
vertex -69.451 -3.5759999999999934 0.0
endloop
endfacet
facet normal 0.0 0.0 1.0
outer loop
vertex -70.08699999999999 -6.682000000000002 2.0
vertex -70.592 -10.122 2.0
vertex -60.97599999999999 -16.48599999999999 2.0
endloop
endfacet
facet normal 0.0 0.0 1.0
outer loop
vertex -69.451 -3.5759999999999934 2.0
vertex -70.08699999999999 -6.682000000000002 2.0
vertex -60.97599999999999 -16.48599999999999 2.0
endloop
endfacet
facet normal 0.0 0.0 1.0
outer loop
vertex -68.68199999999999 -0.8509999999999991 2.0
vertex -69.451 -3.5759999999999934 2.0
vertex -60.97599999999999 -16.48599999999999 2.0
endloop
endfacet
facet normal 0.0 0.0 1.0
outer loop
vertex -68.68199999999999 -0.8509999999999991 2.0
vertex -60.97599999999999 -16.48599999999999 2.0
vertex -53.260999999999996 -18.224999999999994 2.0
endloop
endfacet
facet normal 0.0 0.0 1.0
outer loop
vertex -65.05699999999999 10.740000000000009 2.0
vertex -53.260999999999996 -18.224999999999994 2.0
vertex -46.614 -20.441999999999993 2.0
endloop
endfacet
facet normal 0.0 0.0 1.0
outer loop
vertex -67.44099999999999 2.456000000000003 2.0
vertex -68.68199999999999 -0.8509999999999991 2.0
vertex -53.260999999999996 -18.224999999999994 2.0
endloop
endfacet
facet normal 0.0 0.0 1.0
outer loop
vertex -66.685 5.344999999999999 2.0
vertex -67.44099999999999 2.456000000000003 2.0
vertex -53.260999999999996 -18.224999999999994 2.0
endloop
endfacet
facet normal 0.0 0.0 1.0
outer loop
vertex -65.05699999999999 10.740000000000009 2.0
vertex -66.685 5.344999999999999 2.0
vertex -53.260999999999996 -18.224999999999994 2.0
endloop
endfacet
facet normal 0.0 0.0 1.0
outer loop
vertex -57.178999999999995 24.941000000000003 2.0
vertex -46.614 -20.441999999999993 2.0
vertex -40.172 -23.274 2.0
endloop
endfacet
facet normal -0.0 0.0 1.0
outer loop
vertex -57.178999999999995 24.941000000000003 2.0
vertex -40.172 -23.274 2.0
vertex -35.965999999999994 -22.010999999999996 2.0
endloop
endfacet
facet normal -0.0 0.0 1.0
outer loop
vertex -57.178999999999995 24.941000000000003 2.0
vertex -35.965999999999994 -22.010999999999996 2.0
vertex -35.019999999999996 -20.384 2.0
endloop
endfacet
facet normal -0.0 0.0 1.0
outer loop
vertex -57.178999999999995 24.941000000000003 2.0
vertex -35.019999999999996 -20.384 2.0
vertex -34.443 -19.552999999999997 2.0
endloop
endfacet
facet normal -0.0 0.0 1.0
outer loop
vertex -57.178999999999995 24.941000000000003 2.0
vertex -34.443 -19.552999999999997 2.0
vertex -32.63099999999999 -17.444999999999993 2.0
endloop
endfacet
facet normal -0.0 0.0 1.0
outer loop
vertex -57.178999999999995 24.941000000000003 2.0
vertex -32.63099999999999 -17.444999999999993 2.0
vertex -30.531999999999993 -15.613 2.0
endloop
endfacet
facet normal -0.0 0.0 1.0
outer loop
vertex -57.178999999999995 24.941000000000003 2.0
vertex -30.531999999999993 -15.613 2.0
vertex -28.226999999999993 -14.083999999999989 2.0
endloop
endfacet
facet normal -0.0 0.0 1.0
outer loop
vertex -57.178999999999995 24.941000000000003 2.0
vertex -28.226999999999993 -14.083999999999989 2.0
vertex -25.753999999999994 -12.84599999999999 2.0
endloop
endfacet
facet normal 0.8644910785032169 -0.5026481624241204 0.0
outer loop
vertex -35.019999999999996 -20.384 2.0
vertex -35.965999999999994 -22.010999999999996 2.0
vertex -35.019999999999996 -20.384 0.0
endloop
endfacet
facet normal 0.8214085553322329 -0.570340236373881 0.0
outer loop
vertex -34.443 -19.552999999999997 2.0
vertex -35.019999999999996 -20.384 2.0
vertex -34.443 -19.552999999999997 0.0
endloop
endfacet
facet normal 0.7583416786885939 -0.6518572683983553 0.0
outer loop
vertex -32.63099999999999 -17.444999999999993 2.0
vertex -34.443 -19.552999999999997 2.0
vertex -32.63099999999999 -17.444999999999993 0.0
endloop
endfacet
facet normal 0.6575638820565269 -0.753398792814768 0.0
outer loop
vertex -30.531999999999993 -15.613 2.0
vertex -32.63099999999999 -17.444999999999993 2.0
vertex -30.531999999999993 -15.613 0.0
endloop
endfacet
facet normal 0.5527798294990296 -0.8333273427045482 0.0
outer loop
vertex -28.226999999999993 -14.083999999999989 2.0
vertex -30.531999999999993 -15.613 2.0
vertex -28.226999999999993 -14.083999999999989 0.0
endloop
endfacet
facet normal 0.4476474499351095 -0.8942101322209417 0.0
outer loop
vertex -25.753999999999994 -12.84599999999999 2.0
vertex -28.226999999999993 -14.083999999999989 2.0
vertex -25.753999999999994 -12.84599999999999 0.0
endloop
endfacet
facet normal 0.3455220723335611 -0.9384106230911505 0.0
outer loop
vertex -23.143999999999995 -11.884999999999991 2.0
vertex -25.753999999999994 -12.84599999999999 2.0
vertex -23.143999999999995 -11.884999999999991 0.0
endloop
endfacet
facet normal 0.24579845226500974 -0.9693209586427634 0.0
outer loop
vertex -20.418999999999993 -11.193999999999988 2.0
vertex -23.143999999999995 -11.884999999999991 2.0
vertex -20.418999999999993 -11.193999999999988 0.0
endloop
endfacet
facet normal 0.14174067269429913 -0.989903824471937 0.0
outer loop
vertex -17.380999999999993 -10.759 2.0
vertex -20.418999999999993 -11.193999999999988 2.0
vertex -17.380999999999993 -10.759 0.0
endloop
endfacet
facet normal 0.02659649733320503 -0.9996462505954818 0.0
outer loop
vertex -10.577999999999994 -10.577999999999989 2.0
vertex -17.380999999999993 -10.759 2.0
vertex -10.577999999999994 -10.577999999999989 0.0
endloop
endfacet
facet normal -0.0 -0.0 -1.0
outer loop
vertex -63.288 15.430000000000007 0.0
vertex -46.614 -20.441999999999993 0.0
vertex -65.05699999999999 10.740000000000009 0.0
endloop
endfacet
facet normal -0.0 -0.0 -1.0
outer loop
vertex -62.32899999999999 17.53800000000001 0.0
vertex -46.614 -20.441999999999993 0.0
vertex -63.288 15.430000000000007 0.0
endloop
endfacet
facet normal -0.0 -0.0 -1.0
outer loop
vertex -61.32399999999999 19.464 0.0
vertex -46.614 -20.441999999999993 0.0
vertex -62.32899999999999 17.53800000000001 0.0
endloop
endfacet
facet normal -0.0 -0.0 -1.0
outer loop
vertex -60.27799999999999 21.195000000000007 0.0
vertex -46.614 -20.441999999999993 0.0
vertex -61.32399999999999 19.464 0.0
endloop
endfacet
facet normal -0.0 -0.0 -1.0
outer loop
vertex -59.196999999999996 22.723 0.0
vertex -46.614 -20.441999999999993 0.0
vertex -60.27799999999999 21.195000000000007 0.0
endloop
endfacet
facet normal -0.0 -0.0 -1.0
outer loop
vertex -58.084999999999994 24.04700000000001 0.0
vertex -46.614 -20.441999999999993 0.0
vertex -59.196999999999996 22.723 0.0
endloop
endfacet
facet normal -0.0 -0.0 -1.0
outer loop
vertex -57.178999999999995 24.941000000000003 0.0
vertex -46.614 -20.441999999999993 0.0
vertex -58.084999999999994 24.04700000000001 0.0
endloop
endfacet
facet normal -0.9362477095231074 0.35134061309893416 0.0
outer loop
vertex -67.44099999999999 2.456000000000003 2.0
vertex -67.44099999999999 2.456000000000003 0.0
vertex -68.68199999999999 -0.8509999999999991 0.0
endloop
endfacet
facet normal -0.9674249636260557 0.253157934406814 0.0
outer loop
vertex -66.685 5.344999999999999 2.0
vertex -66.685 5.344999999999999 0.0
vertex -67.44099999999999 2.456000000000003 0.0
endloop
endfacet
facet normal -0.957361052913804 0.28889412310355583 0.0
outer loop
vertex -65.05699999999999 10.740000000000009 2.0
vertex -65.05699999999999 10.740000000000009 0.0
vertex -66.685 5.344999999999999 0.0
endloop
endfacet
facet normal -0.9356551734867428 0.35291556543668245 0.0
outer loop
vertex -63.288 15.430000000000007 2.0
vertex -63.288 15.430000000000007 0.0
vertex -65.05699999999999 10.740000000000009 0.0
endloop
endfacet
facet normal -0.9102333414912637 0.414095718448825 0.0
outer loop
vertex -62.32899999999999 17.53800000000001 2.0
vertex -62.32899999999999 17.53800000000001 0.0
vertex -63.288 15.430000000000007 0.0
endloop
endfacet
facet normal -0.8865602219983606 0.46261319995241973 0.0
outer loop
vertex -61.32399999999999 19.464 2.0
vertex -61.32399999999999 19.464 0.0
vertex -62.32899999999999 17.53800000000001 0.0
endloop
endfacet
facet normal -0.8558745062880753 0.5171835549262401 0.0
outer loop
vertex -60.27799999999999 21.195000000000007 2.0
vertex -60.27799999999999 21.195000000000007 0.0
vertex -61.32399999999999 19.464 0.0
endloop
endfacet
facet normal -0.8163603448248365 0.5775428879290903 0.0
outer loop
vertex -59.196999999999996 22.723 2.0
vertex -59.196999999999996 22.723 0.0
vertex -60.27799999999999 21.195000000000007 0.0
endloop
endfacet
facet normal -0.7657504373083668 0.6431378295218259 0.0
outer loop
vertex -58.084999999999994 24.04700000000001 2.0
vertex -58.084999999999994 24.04700000000001 0.0
vertex -59.196999999999996 22.723 0.0
endloop
endfacet
facet normal -0.7023771277714396 0.7118050086811294 0.0
outer loop
vertex -57.178999999999995 24.941000000000003 2.0
vertex -57.178999999999995 24.941000000000003 0.0
vertex -58.084999999999994 24.04700000000001 0.0
endloop
endfacet
facet normal 0.0 0.0 -1.0
outer loop
vertex -14.155999999999993 24.87100000000001 0.0
vertex -23.143999999999995 -11.884999999999991 0.0
vertex -25.753999999999994 -12.84599999999999 0.0
endloop
endfacet
facet normal 0.0 0.0 -1.0
outer loop
vertex -14.155999999999993 24.87100000000001 0.0
vertex -20.418999999999993 -11.193999999999988 0.0
vertex -23.143999999999995 -11.884999999999991 0.0
endloop
endfacet
facet normal -0.0 0.0 -1.0
outer loop
vertex -14.155999999999993 24.87100000000001 0.0
vertex -25.753999999999994 -12.84599999999999 0.0
vertex -57.178999999999995 24.941000000000003 0.0
endloop
endfacet
facet normal 0.0 0.0 -1.0
outer loop
vertex -14.155999999999993 24.87100000000001 0.0
vertex -17.380999999999993 -10.759 0.0
vertex -20.418999999999993 -11.193999999999988 0.0
endloop
endfacet
facet normal 0.0 -0.0 -0.9999999999999999
outer loop
vertex -14.155999999999993 24.87100000000001 0.0
vertex -10.577999999999994 -10.577999999999989 0.0
vertex -17.380999999999993 -10.759 0.0
endloop
endfacet
facet normal -0.0 0.0 -1.0
outer loop
vertex 21.665000000000006 24.546000000000006 0.0
vertex -10.577999999999994 -10.577999999999989 0.0
vertex -14.155999999999993 24.87100000000001 0.0
endloop
endfacet
facet normal 0.0016270345477182478 0.9999986763784143 0.0
outer loop
vertex -14.155999999999993 24.87100000000001 2.0
vertex -14.155999999999993 24.87100000000001 0.0
vertex -57.178999999999995 24.941000000000003 0.0
endloop
endfacet
facet normal -0.9362477095231074 0.35134061309893416 0.0
outer loop
vertex -68.68199999999999 -0.8509999999999991 2.0
vertex -67.44099999999999 2.456000000000003 2.0
vertex -68.68199999999999 -0.8509999999999991 0.0
endloop
endfacet
facet normal -0.9674249636260557 0.253157934406814 0.0
outer loop
vertex -67.44099999999999 2.456000000000003 2.0
vertex -66.685 5.344999999999999 2.0
vertex -67.44099999999999 2.456000000000003 0.0
endloop
endfacet
facet normal -0.957361052913804 0.28889412310355583 0.0
outer loop
vertex -66.685 5.344999999999999 2.0
vertex -65.05699999999999 10.740000000000009 2.0
vertex -66.685 5.344999999999999 0.0
endloop
endfacet
facet normal -0.9356551734867428 0.35291556543668245 0.0
outer loop
vertex -65.05699999999999 10.740000000000009 2.0
vertex -63.288 15.430000000000007 2.0
vertex -65.05699999999999 10.740000000000009 0.0
endloop
endfacet
facet normal 0.0 0.0 1.0
outer loop
vertex -63.288 15.430000000000007 2.0
vertex -65.05699999999999 10.740000000000009 2.0
vertex -46.614 -20.441999999999993 2.0
endloop
endfacet
facet normal 0.0 0.0 1.0
outer loop
vertex -62.32899999999999 17.53800000000001 2.0
vertex -63.288 15.430000000000007 2.0
vertex -46.614 -20.441999999999993 2.0
endloop
endfacet
facet normal 0.0 0.0 1.0
outer loop
vertex -61.32399999999999 19.464 2.0
vertex -62.32899999999999 17.53800000000001 2.0
vertex -46.614 -20.441999999999993 2.0
endloop
endfacet
facet normal 0.0 0.0 1.0
outer loop
vertex -60.27799999999999 21.195000000000007 2.0
vertex -61.32399999999999 19.464 2.0
vertex -46.614 -20.441999999999993 2.0
endloop
endfacet
facet normal 0.0 0.0 1.0
outer loop
vertex -59.196999999999996 22.723 2.0
vertex -60.27799999999999 21.195000000000007 2.0
vertex -46.614 -20.441999999999993 2.0
endloop
endfacet
facet normal 0.0 0.0 1.0
outer loop
vertex -58.084999999999994 24.04700000000001 2.0
vertex -59.196999999999996 22.723 2.0
vertex -46.614 -20.441999999999993 2.0
endloop
endfacet
facet normal 0.0 0.0 1.0
outer loop
vertex -57.178999999999995 24.941000000000003 2.0
vertex -58.084999999999994 24.04700000000001 2.0
vertex -46.614 -20.441999999999993 2.0
endloop
endfacet
facet normal -0.9102333414912637 0.414095718448825 0.0
outer loop
vertex -63.288 15.430000000000007 2.0
vertex -62.32899999999999 17.53800000000001 2.0
vertex -63.288 15.430000000000007 0.0
endloop
endfacet
facet normal -0.8865602219983606 0.46261319995241973 0.0
outer loop
vertex -62.32899999999999 17.53800000000001 2.0
vertex -61.32399999999999 19.464 2.0
vertex -62.32899999999999 17.53800000000001 0.0
endloop
endfacet
facet normal -0.8558745062880753 0.5171835549262401 0.0
outer loop
vertex -61.32399999999999 19.464 2.0
vertex -60.27799999999999 21.195000000000007 2.0
vertex -61.32399999999999 19.464 0.0
endloop
endfacet
facet normal -0.8163603448248365 0.5775428879290903 0.0
outer loop
vertex -60.27799999999999 21.195000000000007 2.0
vertex -59.196999999999996 22.723 2.0
vertex -60.27799999999999 21.195000000000007 0.0
endloop
endfacet
facet normal -0.7657504373083668 0.6431378295218259 0.0
outer loop
vertex -59.196999999999996 22.723 2.0
vertex -58.084999999999994 24.04700000000001 2.0
vertex -59.196999999999996 22.723 0.0
endloop
endfacet
facet normal -0.7023771277714396 0.7118050086811294 0.0
outer loop
vertex -58.084999999999994 24.04700000000001 2.0
vertex -57.178999999999995 24.941000000000003 2.0
vertex -58.084999999999994 24.04700000000001 0.0
endloop
endfacet
facet normal 0.0016270345477182478 0.9999986763784143 0.0
outer loop
vertex -57.178999999999995 24.941000000000003 2.0
vertex -14.155999999999993 24.87100000000001 2.0
vertex -57.178999999999995 24.941000000000003 0.0
endloop
endfacet
facet normal -0.0 0.0 1.0
outer loop
vertex -14.155999999999993 24.87100000000001 2.0
vertex -25.753999999999994 -12.84599999999999 2.0
vertex -23.143999999999995 -11.884999999999991 2.0
endloop
endfacet
facet normal -0.0 0.0 1.0
outer loop
vertex -14.155999999999993 24.87100000000001 2.0
vertex -23.143999999999995 -11.884999999999991 2.0
vertex -20.418999999999993 -11.193999999999988 2.0
endloop
endfacet
facet normal 0.0 0.0 1.0
outer loop
vertex -14.155999999999993 24.87100000000001 2.0
vertex -57.178999999999995 24.941000000000003 2.0
vertex -25.753999999999994 -12.84599999999999 2.0
endloop
endfacet
facet normal -0.0 0.0 1.0
outer loop
vertex -14.155999999999993 24.87100000000001 2.0
vertex -20.418999999999993 -11.193999999999988 2.0
vertex -17.380999999999993 -10.759 2.0
endloop
endfacet
facet normal -0.0 0.0 0.9999999999999999
outer loop
vertex -14.155999999999993 24.87100000000001 2.0
vertex -17.380999999999993 -10.759 2.0
vertex -10.577999999999994 -10.577999999999989 2.0
endloop
endfacet
facet normal 0.009072516799044758 0.9999588438725522 0.0
outer loop
vertex -14.155999999999993 24.87100000000001 2.0
vertex 21.665000000000006 24.546000000000006 2.0
vertex -14.155999999999993 24.87100000000001 0.0
endloop
endfacet
facet normal 0.0 0.0 1.0
outer loop
vertex 21.665000000000006 24.546000000000006 2.0
vertex -14.155999999999993 24.87100000000001 2.0
vertex -10.577999999999994 -10.577999999999989 2.0
endloop
endfacet
facet normal 0.015187183770446054 -0.9998846680738348 0.0
outer loop
vertex 20.354000000000006 -10.50099999999999 2.0
vertex 20.354000000000006 -10.50099999999999 0.0
vertex 28.452000000000005 -10.378 0.0
endloop
endfacet
facet normal 0.03334822491324502 -0.9994437932646014 0.0
outer loop
vertex 28.452000000000005 -10.378 2.0
vertex 28.452000000000005 -10.378 0.0
vertex 36.42400000000001 -10.111999999999995 0.0
endloop
endfacet
facet normal 0.059375578830743576 -0.9982357139666534 0.0
outer loop
vertex 36.42400000000001 -10.111999999999995 2.0
vertex 36.42400000000001 -10.111999999999995 0.0
vertex 44.12400000000001 -9.653999999999996 0.0
endloop
endfacet
facet normal 0.09517044646515031 -0.9954609917619193 0.0
outer loop
vertex 44.12400000000001 -9.653999999999996 2.0
vertex 44.12400000000001 -9.653999999999996 0.0
vertex 51.404 -8.957999999999998 0.0
endloop
endfacet
facet normal 0.14365330706270601 -0.98962807527371 0.0
outer loop
vertex 51.404 -8.957999999999998 2.0
vertex 51.404 -8.957999999999998 0.0
vertex 58.107000000000006 -7.984999999999999 0.0
endloop
endfacet
facet normal 0.20951787512946815 -0.9778048169247444 0.0
outer loop
vertex 58.107000000000006 -7.984999999999999 2.0
vertex 58.107000000000006 -7.984999999999999 0.0
vertex 64.06200000000001 -6.708999999999989 0.0
endloop
endfacet
facet normal 0.2996383207747148 -0.9540528689351073 0.0
outer loop
vertex 64.06200000000001 -6.708999999999989 2.0
vertex 64.06200000000001 -6.708999999999989 0.0
vertex 67.488 -5.632999999999996 0.0
endloop
endfacet
facet normal 0.8564618770255866 -0.5162102800233729 0.0
outer loop
vertex 67.488 -5.632999999999996 2.0
vertex 67.488 -5.632999999999996 0.0
vertex 68.019 -4.751999999999995 0.0
endloop
endfacet
facet normal 0.9004028879946235 -0.43505705291483454 0.0
outer loop
vertex 68.019 -4.751999999999995 2.0
vertex 68.019 -4.751999999999995 0.0
vertex 68.65100000000001 -3.4439999999999884 0.0
endloop
endfacet
facet normal 0.9328472800226728 -0.36027205297427795 0.0
outer loop
vertex 68.65100000000001 -3.4439999999999884 2.0
vertex 68.65100000000001 -3.4439999999999884 0.0
vertex 69.21100000000001 -1.9939999999999998 0.0
endloop
endfacet
facet normal 0.9567611771339765 -0.2908746292291708 0.0
outer loop
vertex 69.21100000000001 -1.9939999999999998 2.0
vertex 69.21100000000001 -1.9939999999999998 0.0
vertex 69.69500000000001 -0.402000000000001 0.0
endloop
endfacet
facet normal 0.0024893237238272146 -0.999996901628899 0.0
outer loop
vertex 20.354000000000006 -10.50099999999999 2.0
vertex -10.577999999999994 -10.577999999999989 2.0
vertex 20.354000000000006 -10.50099999999999 0.0
endloop
endfacet
facet normal 0.015187183770446054 -0.9998846680738348 0.0
outer loop
vertex 28.452000000000005 -10.378 2.0
vertex 20.354000000000006 -10.50099999999999 2.0
vertex 28.452000000000005 -10.378 0.0
endloop
endfacet
facet normal 0.03334822491324502 -0.9994437932646014 0.0
outer loop
vertex 36.42400000000001 -10.111999999999995 2.0
vertex 28.452000000000005 -10.378 2.0
vertex 36.42400000000001 -10.111999999999995 0.0
endloop
endfacet
facet normal 0.059375578830743576 -0.9982357139666534 0.0
outer loop
vertex 44.12400000000001 -9.653999999999996 2.0
vertex 36.42400000000001 -10.111999999999995 2.0
vertex 44.12400000000001 -9.653999999999996 0.0
endloop
endfacet
facet normal 0.09517044646515031 -0.9954609917619193 0.0
outer loop
vertex 51.404 -8.957999999999998 2.0
vertex 44.12400000000001 -9.653999999999996 2.0
vertex 51.404 -8.957999999999998 0.0
endloop
endfacet
facet normal 0.14365330706270601 -0.98962807527371 0.0
outer loop
vertex 58.107000000000006 -7.984999999999999 2.0
vertex 51.404 -8.957999999999998 2.0
vertex 58.107000000000006 -7.984999999999999 0.0
endloop
endfacet
facet normal 0.20951787512946815 -0.9778048169247444 0.0
outer loop
vertex 64.06200000000001 -6.708999999999989 2.0
vertex 58.107000000000006 -7.984999999999999 2.0
vertex 64.06200000000001 -6.708999999999989 0.0
endloop
endfacet
facet normal 0.2996383207747148 -0.9540528689351073 0.0
outer loop
vertex 67.488 -5.632999999999996 2.0
vertex 64.06200000000001 -6.708999999999989 2.0
vertex 67.488 -5.632999999999996 0.0
endloop
endfacet
facet normal 0.8564618770255866 -0.5162102800233729 0.0
outer loop
vertex 68.019 -4.751999999999995 2.0
vertex 67.488 -5.632999999999996 2.0
vertex 68.019 -4.751999999999995 0.0
endloop
endfacet
facet normal 0.9004028879946235 -0.43505705291483454 0.0
outer loop
vertex 68.65100000000001 -3.4439999999999884 2.0
vertex 68.019 -4.751999999999995 2.0
vertex 68.65100000000001 -3.4439999999999884 0.0
endloop
endfacet
facet normal 0.9328472800226728 -0.36027205297427795 0.0
outer loop
vertex 69.21100000000001 -1.9939999999999998 2.0
vertex 68.65100000000001 -3.4439999999999884 2.0
vertex 69.21100000000001 -1.9939999999999998 0.0
endloop
endfacet
facet normal 0.9567611771339765 -0.2908746292291708 0.0
outer loop
vertex 69.69500000000001 -0.402000000000001 2.0
vertex 69.21100000000001 -1.9939999999999998 2.0
vertex 69.69500000000001 -0.402000000000001 0.0
endloop
endfacet
facet normal 0.0 0.0 -1.0
outer loop
vertex 21.665000000000006 24.546000000000006 0.0
vertex 20.354000000000006 -10.50099999999999 0.0
vertex -10.577999999999994 -10.577999999999989 0.0
endloop
endfacet
facet normal 0.0 -0.0 -1.0
outer loop
vertex 21.665000000000006 24.546000000000006 0.0
vertex 28.452000000000005 -10.378 0.0
vertex 20.354000000000006 -10.50099999999999 0.0
endloop
endfacet
facet normal 0.0 -0.0 -1.0
outer loop
vertex 21.665000000000006 24.546000000000006 0.0
vertex 36.42400000000001 -10.111999999999995 0.0
vertex 28.452000000000005 -10.378 0.0
endloop
endfacet
facet normal -0.0 0.0 -0.9999999999999999
outer loop
vertex 42.687000000000005 24.098 0.0
vertex 36.42400000000001 -10.111999999999995 0.0
vertex 21.665000000000006 24.546000000000006 0.0
endloop
endfacet
facet normal 0.009072516799044758 0.9999588438725522 0.0
outer loop
vertex 21.665000000000006 24.546000000000006 2.0
vertex 21.665000000000006 24.546000000000006 0.0
vertex -14.155999999999993 24.87100000000001 0.0
endloop
endfacet
facet normal 0.0 -0.0 -1.0
outer loop
vertex 42.687000000000005 24.098 0.0
vertex 44.12400000000001 -9.653999999999996 0.0
vertex 36.42400000000001 -10.111999999999995 0.0
endloop
endfacet
facet normal 0.0 -0.0 -1.0
outer loop
vertex 42.687000000000005 24.098 0.0
vertex 51.404 -8.957999999999998 0.0
vertex 44.12400000000001 -9.653999999999996 0.0
endloop
endfacet
facet normal 0.0 -0.0 -1.0
outer loop
vertex 51.556000000000004 23.786 0.0
vertex 58.107000000000006 -7.984999999999999 0.0
vertex 51.404 -8.957999999999998 0.0
endloop
endfacet
facet normal 0.0 -0.0 -0.9999999999999999
outer loop
vertex 51.556000000000004 23.786 0.0
vertex 64.06200000000001 -6.708999999999989 0.0
vertex 58.107000000000006 -7.984999999999999 0.0
endloop
endfacet
facet normal 0.0 -0.0 -1.0
outer loop
vertex 51.556000000000004 23.786 0.0
vertex 67.488 -5.632999999999996 0.0
vertex 64.06200000000001 -6.708999999999989 0.0
endloop
endfacet
facet normal 0.0 -0.0 -1.0
outer loop
vertex 51.556000000000004 23.786 0.0
vertex 68.019 -4.751999999999995 0.0
vertex 67.488 -5.632999999999996 0.0
endloop
endfacet
facet normal 0.0 -0.0 -1.0
outer loop
vertex 51.556000000000004 23.786 0.0
vertex 68.65100000000001 -3.4439999999999884 0.0
vertex 68.019 -4.751999999999995 0.0
endloop
endfacet
facet normal 0.0 -0.0 -1.0
outer loop
vertex 51.556000000000004 23.786 0.0
vertex 69.21100000000001 -1.9939999999999998 0.0
vertex 68.65100000000001 -3.4439999999999884 0.0
endloop
endfacet
facet normal 0.0 -0.0 -1.0
outer loop
vertex 51.556000000000004 23.786 0.0
vertex 69.69500000000001 -0.402000000000001 0.0
vertex 69.21100000000001 -1.9939999999999998 0.0
endloop
endfacet
facet normal 0.0 -0.0 -1.0
outer loop
vertex 51.556000000000004 23.786 0.0
vertex 70.10300000000001 1.3269999999999982 0.0
vertex 69.69500000000001 -0.402000000000001 0.0
endloop
endfacet
facet normal 0.0 -0.0 -1.0
outer loop
vertex 51.556000000000004 23.786 0.0
vertex 70.691 5.132000000000005 0.0
vertex 70.10300000000001 1.3269999999999982 0.0
endloop
endfacet
facet normal 0.9732693178655342 -0.22966679102899903 0.0
outer loop
vertex 69.69500000000001 -0.402000000000001 2.0
vertex 69.69500000000001 -0.402000000000001 0.0
vertex 70.10300000000001 1.3269999999999982 0.0
endloop
endfacet
facet normal 0.9882693848200931 -0.1527207354202911 0.0
outer loop
vertex 70.10300000000001 1.3269999999999982 2.0
vertex 70.10300000000001 1.3269999999999982 0.0
vertex 70.691 5.132000000000005 0.0
endloop
endfacet
facet normal 0.9972733620408832 -0.07379594408687587 0.0
outer loop
vertex 70.691 5.132000000000005 2.0
vertex 70.691 5.132000000000005 0.0
vertex 71.01400000000001 9.497 0.0
endloop
endfacet
facet normal 0.999806136380037 -0.019689836383849538 0.0
outer loop
vertex 71.01400000000001 9.497 2.0
vertex 71.01400000000001 9.497 0.0
vertex 71.104 14.067000000000007 0.0
endloop
endfacet
facet normal -0.0 0.0 -1.0
outer loop
vertex 51.556000000000004 23.786 0.0
vertex 51.404 -8.957999999999998 0.0
vertex 42.687000000000005 24.098 0.0
endloop
endfacet
facet normal 0.0 -0.0 -1.0
outer loop
vertex 51.556000000000004 23.786 0.0
vertex 71.01400000000001 9.497 0.0
vertex 70.691 5.132000000000005 0.0
endloop
endfacet
facet normal 0.0 -0.0 -1.0
outer loop
vertex 58.99400000000001 23.40700000000001 0.0
vertex 71.104 14.067000000000007 0.0
vertex 71.01400000000001 9.497 0.0
endloop
endfacet
facet normal 0.0 0.0 -1.0
outer loop
vertex 58.99400000000001 23.40700000000001 0.0
vertex 71.04100000000001 15.554000000000002 0.0
vertex 71.104 14.067000000000007 0.0
endloop
endfacet
facet normal 0.0 0.0 -1.0
outer loop
vertex 64.516 22.977000000000004 0.0
vertex 70.869 16.834000000000003 0.0
vertex 71.04100000000001 15.554000000000002 0.0
endloop
endfacet
facet normal -0.0 -0.0 -1.0
outer loop
vertex 58.99400000000001 23.40700000000001 0.0
vertex 71.01400000000001 9.497 0.0
vertex 51.556000000000004 23.786 0.0
endloop
endfacet
facet normal -0.0 -0.0 -1.0
outer loop
vertex 64.516 22.977000000000004 0.0
vertex 71.04100000000001 15.554000000000002 0.0
vertex 58.99400000000001 23.40700000000001 0.0
endloop
endfacet
facet normal 0.0 0.0 -0.9999999999999999
outer loop
vertex 64.516 22.977000000000004 0.0
vertex 70.601 17.967 0.0
vertex 70.869 16.834000000000003 0.0
endloop
endfacet
facet normal 0.0 0.0 -1.0
outer loop
vertex 64.516 22.977000000000004 0.0
vertex 70.25200000000001 18.950000000000003 0.0
vertex 70.601 17.967 0.0
endloop
endfacet
facet normal 0.0 0.0 -1.0
outer loop
vertex 65.741 22.75200000000001 0.0
vertex 69.83800000000001 19.78800000000001 0.0
vertex 70.25200000000001 18.950000000000003 0.0
endloop
endfacet
facet normal 0.0 0.0 -1.0
outer loop
vertex 66.73700000000001 22.439000000000007 0.0
vertex 69.37 20.49600000000001 0.0
vertex 69.83800000000001 19.78800000000001 0.0
endloop
endfacet
facet normal -0.0 -0.0 -1.0
outer loop
vertex 65.741 22.75200000000001 0.0
vertex 70.25200000000001 18.950000000000003 0.0
vertex 64.516 22.977000000000004 0.0
endloop
endfacet
facet normal -0.0 -0.0 -1.0
outer loop
vertex 66.73700000000001 22.439000000000007 0.0
vertex 69.83800000000001 19.78800000000001 0.0
vertex 65.741 22.75200000000001 0.0
endloop
endfacet
facet normal -0.0 -0.0 -1.0
outer loop
vertex 68.84500000000001 21.095 0.0
vertex 69.37 20.49600000000001 0.0
vertex 67.561 22.054000000000002 0.0
endloop
endfacet
facet normal 0.0 0.0 -1.0
outer loop
vertex 68.84500000000001 21.095 0.0
vertex 67.561 22.054000000000002 0.0
vertex 68.25200000000001 21.608000000000004 0.0
endloop
endfacet
facet normal -0.0 -0.0 -1.0
outer loop
vertex 67.561 22.054000000000002 0.0
vertex 69.37 20.49600000000001 0.0
vertex 66.73700000000001 22.439000000000007 0.0
endloop
endfacet
facet normal 0.021306169870297317 0.9997729977977291 0.0
outer loop
vertex 42.687000000000005 24.098 2.0
vertex 42.687000000000005 24.098 0.0
vertex 21.665000000000006 24.546000000000006 0.0
endloop
endfacet
facet normal 0.035156964988231815 0.9993818028225331 0.0
outer loop
vertex 51.556000000000004 23.786 2.0
vertex 51.556000000000004 23.786 0.0
vertex 42.687000000000005 24.098 0.0
endloop
endfacet
facet normal 0.9991037173597419 0.0423292092761615 0.0
outer loop
vertex 71.104 14.067000000000007 2.0
vertex 71.104 14.067000000000007 0.0
vertex 71.04100000000001 15.554000000000002 0.0
endloop
endfacet
facet normal 0.9910921343829088 0.13317800555771198 0.0
outer loop
vertex 71.04100000000001 15.554000000000002 2.0
vertex 71.04100000000001 15.554000000000002 0.0
vertex 70.869 16.834000000000003 0.0
endloop
endfacet
facet normal 0.9731461444901313 0.2301881436216742 0.0
outer loop
vertex 70.869 16.834000000000003 2.0
vertex 70.869 16.834000000000003 0.0
vertex 70.601 17.967 0.0
endloop
endfacet
facet normal 0.9423692541826996 0.33457463856536207 0.0
outer loop
vertex 70.601 17.967 2.0
vertex 70.601 17.967 0.0
vertex 70.25200000000001 18.950000000000003 0.0
endloop
endfacet
facet normal 0.05088853784309777 0.9987043389893685 0.0
outer loop
vertex 58.99400000000001 23.40700000000001 2.0
vertex 58.99400000000001 23.40700000000001 0.0
vertex 51.556000000000004 23.786 0.0
endloop
endfacet
facet normal 0.8965567064796875 0.4429289695496281 0.0
outer loop
vertex 70.25200000000001 18.950000000000003 2.0
vertex 70.25200000000001 18.950000000000003 0.0
vertex 69.83800000000001 19.78800000000001 0.0
endloop
endfacet
facet normal 0.834219174646242 0.5514330137492162 0.0
outer loop
vertex 69.83800000000001 19.78800000000001 2.0
vertex 69.83800000000001 19.78800000000001 0.0
vertex 69.37 20.49600000000001 0.0
endloop
endfacet
facet normal 0.65425052256715 0.7562778945074431 0.0
outer loop
vertex 68.84500000000001 21.095 2.0
vertex 68.84500000000001 21.095 0.0
vertex 68.25200000000001 21.608000000000004 0.0
endloop
endfacet
facet normal 0.5422930297433319 0.8401894250059315 0.0
outer loop
vertex 68.25200000000001 21.608000000000004 2.0
vertex 68.25200000000001 21.608000000000004 0.0
vertex 67.561 22.054000000000002 0.0
endloop
endfacet
facet normal 0.7520320261909093 0.6591265671957058 0.0
outer loop
vertex 69.37 20.49600000000001 2.0
vertex 69.37 20.49600000000001 0.0
vertex 68.84500000000001 21.095 0.0
endloop
endfacet
facet normal 0.07763531049871684 0.9969818245904826 0.0
outer loop
vertex 64.516 22.977000000000004 2.0
vertex 64.516 22.977000000000004 0.0
vertex 58.99400000000001 23.40700000000001 0.0
endloop
endfacet
facet normal 0.29980169013698305 0.9540015443336601 0.0
outer loop
vertex 66.73700000000001 22.439000000000007 2.0
vertex 66.73700000000001 22.439000000000007 0.0
vertex 65.741 22.75200000000001 0.0
endloop
endfacet
facet normal 0.18065152032832896 0.9835471662320335 0.0
outer loop
vertex 65.741 22.75200000000001 2.0
vertex 65.741 22.75200000000001 0.0
vertex 64.516 22.977000000000004 0.0
endloop
endfacet
facet normal 0.42330676012387847 0.9059864164729101 0.0
outer loop
vertex 67.561 22.054000000000002 2.0
vertex 67.561 22.054000000000002 0.0
vertex 66.73700000000001 22.439000000000007 0.0
endloop
endfacet
facet normal -0.0 0.0 1.0
outer loop
vertex 21.665000000000006 24.546000000000006 2.0
vertex -10.577999999999994 -10.577999999999989 2.0
vertex 20.354000000000006 -10.50099999999999 2.0
endloop
endfacet
facet normal -0.0 0.0 1.0
outer loop
vertex 21.665000000000006 24.546000000000006 2.0
vertex 20.354000000000006 -10.50099999999999 2.0
vertex 28.452000000000005 -10.378 2.0
endloop
endfacet
facet normal -0.0 0.0 1.0
outer loop
vertex 21.665000000000006 24.546000000000006 2.0
vertex 28.452000000000005 -10.378 2.0
vertex 36.42400000000001 -10.111999999999995 2.0
endloop
endfacet
facet normal 0.021306169870297317 0.9997729977977291 0.0
outer loop
vertex 21.665000000000006 24.546000000000006 2.0
vertex 42.687000000000005 24.098 2.0
vertex 21.665000000000006 24.546000000000006 0.0
endloop
endfacet
facet normal 0.0 0.0 0.9999999999999999
outer loop
vertex 42.687000000000005 24.098 2.0
vertex 21.665000000000006 24.546000000000006 2.0
vertex 36.42400000000001 -10.111999999999995 2.0
endloop
endfacet
facet normal 0.9732693178655342 -0.22966679102899903 0.0
outer loop
vertex 70.10300000000001 1.3269999999999982 2.0
vertex 69.69500000000001 -0.402000000000001 2.0
vertex 70.10300000000001 1.3269999999999982 0.0
endloop
endfacet
facet normal 0.9882693848200931 -0.1527207354202911 0.0
outer loop
vertex 70.691 5.132000000000005 2.0
vertex 70.10300000000001 1.3269999999999982 2.0
vertex 70.691 5.132000000000005 0.0
endloop
endfacet
facet normal 0.9972733620408832 -0.07379594408687587 0.0
outer loop
vertex 71.01400000000001 9.497 2.0
vertex 70.691 5.132000000000005 2.0
vertex 71.01400000000001 9.497 0.0
endloop
endfacet
facet normal -0.0 0.0 1.0
outer loop
vertex 42.687000000000005 24.098 2.0
vertex 36.42400000000001 -10.111999999999995 2.0
vertex 44.12400000000001 -9.653999999999996 2.0
endloop
endfacet
facet normal -0.0 0.0 1.0
outer loop
vertex 42.687000000000005 24.098 2.0
vertex 44.12400000000001 -9.653999999999996 2.0
vertex 51.404 -8.957999999999998 2.0
endloop
endfacet
facet normal -0.0 0.0 1.0
outer loop
vertex 51.556000000000004 23.786 2.0
vertex 51.404 -8.957999999999998 2.0
vertex 58.107000000000006 -7.984999999999999 2.0
endloop
endfacet
facet normal -0.0 0.0 0.9999999999999999
outer loop
vertex 51.556000000000004 23.786 2.0
vertex 58.107000000000006 -7.984999999999999 2.0
vertex 64.06200000000001 -6.708999999999989 2.0
endloop
endfacet
facet normal -0.0 0.0 1.0
outer loop
vertex 51.556000000000004 23.786 2.0
vertex 64.06200000000001 -6.708999999999989 2.0
vertex 67.488 -5.632999999999996 2.0
endloop
endfacet
facet normal -0.0 0.0 1.0
outer loop
vertex 51.556000000000004 23.786 2.0
vertex 67.488 -5.632999999999996 2.0
vertex 68.019 -4.751999999999995 2.0
endloop
endfacet
facet normal -0.0 0.0 1.0
outer loop
vertex 51.556000000000004 23.786 2.0
vertex 68.019 -4.751999999999995 2.0
vertex 68.65100000000001 -3.4439999999999884 2.0
endloop
endfacet
facet normal -0.0 0.0 1.0
outer loop
vertex 51.556000000000004 23.786 2.0
vertex 68.65100000000001 -3.4439999999999884 2.0
vertex 69.21100000000001 -1.9939999999999998 2.0
endloop
endfacet
facet normal -0.0 0.0 1.0
outer loop
vertex 51.556000000000004 23.786 2.0
vertex 69.21100000000001 -1.9939999999999998 2.0
vertex 69.69500000000001 -0.402000000000001 2.0
endloop
endfacet
facet normal -0.0 0.0 1.0
outer loop
vertex 51.556000000000004 23.786 2.0
vertex 69.69500000000001 -0.402000000000001 2.0
vertex 70.10300000000001 1.3269999999999982 2.0
endloop
endfacet
facet normal -0.0 0.0 1.0
outer loop
vertex 51.556000000000004 23.786 2.0
vertex 70.10300000000001 1.3269999999999982 2.0
vertex 70.691 5.132000000000005 2.0
endloop
endfacet
facet normal 0.035156964988231815 0.9993818028225331 0.0
outer loop
vertex 42.687000000000005 24.098 2.0
vertex 51.556000000000004 23.786 2.0
vertex 42.687000000000005 24.098 0.0
endloop
endfacet
facet normal 0.999806136380037 -0.019689836383849538 0.0
outer loop
vertex 71.104 14.067000000000007 2.0
vertex 71.01400000000001 9.497 2.0
vertex 71.104 14.067000000000007 0.0
endloop
endfacet
facet normal 0.9991037173597419 0.0423292092761615 0.0
outer loop
vertex 71.04100000000001 15.554000000000002 2.0
vertex 71.104 14.067000000000007 2.0
vertex 71.04100000000001 15.554000000000002 0.0
endloop
endfacet
facet normal 0.9910921343829088 0.13317800555771198 0.0
outer loop
vertex 70.869 16.834000000000003 2.0
vertex 71.04100000000001 15.554000000000002 2.0
vertex 70.869 16.834000000000003 0.0
endloop
endfacet
facet normal 0.9731461444901313 0.2301881436216742 0.0
outer loop
vertex 70.601 17.967 2.0
vertex 70.869 16.834000000000003 2.0
vertex 70.601 17.967 0.0
endloop
endfacet
facet normal 0.9423692541826996 0.33457463856536207 0.0
outer loop
vertex 70.25200000000001 18.950000000000003 2.0
vertex 70.601 17.967 2.0
vertex 70.25200000000001 18.950000000000003 0.0
endloop
endfacet
facet normal 0.05088853784309777 0.9987043389893685 0.0
outer loop
vertex 51.556000000000004 23.786 2.0
vertex 58.99400000000001 23.40700000000001 2.0
vertex 51.556000000000004 23.786 0.0
endloop
endfacet
facet normal 0.07763531049871684 0.9969818245904826 0.0
outer loop
vertex 58.99400000000001 23.40700000000001 2.0
vertex 64.516 22.977000000000004 2.0
vertex 58.99400000000001 23.40700000000001 0.0
endloop
endfacet
facet normal 0.8965567064796875 0.4429289695496281 0.0
outer loop
vertex 69.83800000000001 19.78800000000001 2.0
vertex 70.25200000000001 18.950000000000003 2.0
vertex 69.83800000000001 19.78800000000001 0.0
endloop
endfacet
facet normal 0.834219174646242 0.5514330137492162 0.0
outer loop
vertex 69.37 20.49600000000001 2.0
vertex 69.83800000000001 19.78800000000001 2.0
vertex 69.37 20.49600000000001 0.0
endloop
endfacet
facet normal 0.65425052256715 0.7562778945074431 0.0
outer loop
vertex 68.25200000000001 21.608000000000004 2.0
vertex 68.84500000000001 21.095 2.0
vertex 68.25200000000001 21.608000000000004 0.0
endloop
endfacet
facet normal 0.7520320261909093 0.6591265671957058 0.0
outer loop
vertex 68.84500000000001 21.095 2.0
vertex 69.37 20.49600000000001 2.0
vertex 68.84500000000001 21.095 0.0
endloop
endfacet
facet normal 0.18065152032832896 0.9835471662320335 0.0
outer loop
vertex 64.516 22.977000000000004 2.0
vertex 65.741 22.75200000000001 2.0
vertex 64.516 22.977000000000004 0.0
endloop
endfacet
facet normal 0.29980169013698305 0.9540015443336601 0.0
outer loop
vertex 65.741 22.75200000000001 2.0
vertex 66.73700000000001 22.439000000000007 2.0
vertex 65.741 22.75200000000001 0.0
endloop
endfacet
facet normal 0.42330676012387847 0.9059864164729101 0.0
outer loop
vertex 66.73700000000001 22.439000000000007 2.0
vertex 67.561 22.054000000000002 2.0
vertex 66.73700000000001 22.439000000000007 0.0
endloop
endfacet
facet normal 0.5422930297433319 0.8401894250059315 0.0
outer loop
vertex 67.561 22.054000000000002 2.0
vertex 68.25200000000001 21.608000000000004 2.0
vertex 67.561 22.054000000000002 0.0
endloop
endfacet
facet normal 0.0 0.0 1.0
outer loop
vertex 51.556000000000004 23.786 2.0
vertex 42.687000000000005 24.098 2.0
vertex 51.404 -8.957999999999998 2.0
endloop
endfacet
facet normal -0.0 0.0 1.0
outer loop
vertex 51.556000000000004 23.786 2.0
vertex 70.691 5.132000000000005 2.0
vertex 71.01400000000001 9.497 2.0
endloop
endfacet
facet normal -0.0 0.0 1.0
outer loop
vertex 58.99400000000001 23.40700000000001 2.0
vertex 71.01400000000001 9.497 2.0
vertex 71.104 14.067000000000007 2.0
endloop
endfacet
facet normal -0.0 -0.0 1.0
outer loop
vertex 58.99400000000001 23.40700000000001 2.0
vertex 71.104 14.067000000000007 2.0
vertex 71.04100000000001 15.554000000000002 2.0
endloop
endfacet
facet normal -0.0 -0.0 0.9999999999999999
outer loop
vertex 64.516 22.977000000000004 2.0
vertex 71.04100000000001 15.554000000000002 2.0
vertex 70.869 16.834000000000003 2.0
endloop
endfacet
facet normal 0.0 0.0 1.0
outer loop
vertex 58.99400000000001 23.40700000000001 2.0
vertex 51.556000000000004 23.786 2.0
vertex 71.01400000000001 9.497 2.0
endloop
endfacet
facet normal 0.0 0.0 1.0
outer loop
vertex 64.516 22.977000000000004 2.0
vertex 58.99400000000001 23.40700000000001 2.0
vertex 71.04100000000001 15.554000000000002 2.0
endloop
endfacet
facet normal -0.0 -0.0 0.9999999999999999
outer loop
vertex 64.516 22.977000000000004 2.0
vertex 70.869 16.834000000000003 2.0
vertex 70.601 17.967 2.0
endloop
endfacet
facet normal -0.0 -0.0 1.0
outer loop
vertex 64.516 22.977000000000004 2.0
vertex 70.601 17.967 2.0
vertex 70.25200000000001 18.950000000000003 2.0
endloop
endfacet
facet normal -0.0 -0.0 1.0
outer loop
vertex 65.741 22.75200000000001 2.0
vertex 70.25200000000001 18.950000000000003 2.0
vertex 69.83800000000001 19.78800000000001 2.0
endloop
endfacet
facet normal -0.0 -0.0 1.0
outer loop
vertex 66.73700000000001 22.439000000000007 2.0
vertex 69.83800000000001 19.78800000000001 2.0
vertex 69.37 20.49600000000001 2.0
endloop
endfacet
facet normal 0.0 0.0 1.0
outer loop
vertex 65.741 22.75200000000001 2.0
vertex 64.516 22.977000000000004 2.0
vertex 70.25200000000001 18.950000000000003 2.0
endloop
endfacet
facet normal 0.0 0.0 1.0
outer loop
vertex 66.73700000000001 22.439000000000007 2.0
vertex 65.741 22.75200000000001 2.0
vertex 69.83800000000001 19.78800000000001 2.0
endloop
endfacet
facet normal 0.0 0.0 1.0
outer loop
vertex 68.84500000000001 21.095 2.0
vertex 67.561 22.054000000000002 2.0
vertex 69.37 20.49600000000001 2.0
endloop
endfacet
facet normal 0.0 0.0 0.9999999999999999
outer loop
vertex 68.84500000000001 21.095 2.0
vertex 68.25200000000001 21.608000000000004 2.0
vertex 67.561 22.054000000000002 2.0
endloop
endfacet
facet normal 0.0 0.0 1.0
outer loop
vertex 67.561 22.054000000000002 2.0
vertex 66.73700000000001 22.439000000000007 2.0
vertex 69.37 20.49600000000001 2.0
endloop
endfacet

endsolid
