solid 
facet normal -0.0 0.0 -1.0
outer loop
vertex -62.141999999999996 -13.1615 0.0
vertex -62.336 -15.7275 0.0
vertex -63.848 -14.554499999999999 0.0
endloop
endfacet
facet normal -0.0 0.0 -1.0
outer loop
vertex -62.141999999999996 -13.1615 0.0
vertex -63.848 -14.554499999999999 0.0
vertex -64.796 -13.6275 0.0
endloop
endfacet
facet normal -0.0 0.0 -1.0
outer loop
vertex -53.84400000000001 -10.2205 0.0
vertex -58.650999999999996 -17.737499999999997 0.0
vertex -60.60900000000001 -16.7915 0.0
endloop
endfacet
facet normal -0.0 0.0 -0.9999999999999999
outer loop
vertex -53.84400000000001 -10.2205 0.0
vertex -60.60900000000001 -16.7915 0.0
vertex -62.336 -15.7275 0.0
endloop
endfacet
facet normal -0.0 0.0 -0.9999999999999999
outer loop
vertex -53.84400000000001 -10.2205 0.0
vertex -62.336 -15.7275 0.0
vertex -62.141999999999996 -13.1615 0.0
endloop
endfacet
facet normal -0.0 -0.0 -1.0
outer loop
vertex -53.84400000000001 -10.2205 0.0
vertex -49.018 -20.2365 0.0
vertex -53.976 -19.2365 0.0
endloop
endfacet
facet normal -0.0 0.0 -1.0
outer loop
vertex -53.84400000000001 -10.2205 0.0
vertex -56.45100000000001 -18.5545 0.0
vertex -58.650999999999996 -17.737499999999997 0.0
endloop
endfacet
facet normal -0.0 0.0 -1.0
outer loop
vertex -53.84400000000001 -10.2205 0.0
vertex -53.976 -19.2365 0.0
vertex -56.45100000000001 -18.5545 0.0
endloop
endfacet
facet normal -0.0 0.0 -1.0
outer loop
vertex -45.994 -6.148499999999999 0.0
vertex -46.919 -20.5705 0.0
vertex -49.018 -20.2365 0.0
endloop
endfacet
facet normal -0.0 -0.0 -0.9999999999999999
outer loop
vertex -45.994 -6.148499999999999 0.0
vertex -45.06700000000001 -20.7445 0.0
vertex -46.919 -20.5705 0.0
endloop
endfacet
facet normal 0.0 -0.0 -1.0
outer loop
vertex -45.994 -6.148499999999999 0.0
vertex -41.884 -17.488500000000002 0.0
vertex -45.06700000000001 -20.7445 0.0
endloop
endfacet
facet normal -0.19771278603947187 -0.9802599931837013 -0.0
outer loop
vertex -53.976 -19.2365 2.0
vertex -53.976 -19.2365 0.0
vertex -49.018 -20.2365 0.0
endloop
endfacet
facet normal -0.5245374464842596 -0.8513873778931493 -0.0
outer loop
vertex -62.336 -15.7275 2.0
vertex -62.336 -15.7275 0.0
vertex -60.60900000000001 -16.7915 0.0
endloop
endfacet
facet normal -0.3481330358518507 -0.9374451393807394 -0.0
outer loop
vertex -58.650999999999996 -17.737499999999997 2.0
vertex -58.650999999999996 -17.737499999999997 0.0
vertex -56.45100000000001 -18.5545 0.0
endloop
endfacet
facet normal -0.4350319697895711 -0.9004150072388875 -0.0
outer loop
vertex -60.60900000000001 -16.7915 2.0
vertex -60.60900000000001 -16.7915 0.0
vertex -58.650999999999996 -17.737499999999997 0.0
endloop
endfacet
facet normal -0.6129633574628403 -0.7901113354508225 -0.0
outer loop
vertex -63.848 -14.554499999999999 2.0
vertex -63.848 -14.554499999999999 0.0
vertex -62.336 -15.7275 0.0
endloop
endfacet
facet normal -0.6991433363422581 -0.7149815349001792 -0.0
outer loop
vertex -64.796 -13.6275 2.0
vertex -64.796 -13.6275 0.0
vertex -63.848 -14.554499999999999 0.0
endloop
endfacet
facet normal -0.1729384357102833 0.9849326359980566 0.0
outer loop
vertex -62.141999999999996 -13.1615 2.0
vertex -62.141999999999996 -13.1615 0.0
vertex -64.796 -13.6275 0.0
endloop
endfacet
facet normal -0.2656543846931614 -0.9640683315477684 -0.0
outer loop
vertex -56.45100000000001 -18.5545 2.0
vertex -56.45100000000001 -18.5545 0.0
vertex -53.976 -19.2365 0.0
endloop
endfacet
facet normal -0.15714633618155005 -0.9875753282786661 -0.0
outer loop
vertex -49.018 -20.2365 2.0
vertex -49.018 -20.2365 0.0
vertex -46.919 -20.5705 0.0
endloop
endfacet
facet normal -0.0935405464153057 -0.9956154710410672 -0.0
outer loop
vertex -46.919 -20.5705 2.0
vertex -46.919 -20.5705 0.0
vertex -45.06700000000001 -20.7445 0.0
endloop
endfacet
facet normal 0.7150774134056018 -0.6990452723802328 0.0
outer loop
vertex -45.06700000000001 -20.7445 2.0
vertex -45.06700000000001 -20.7445 0.0
vertex -41.884 -17.488500000000002 0.0
endloop
endfacet
facet normal 0.5686271269465185 -0.8225953990270964 0.0
outer loop
vertex -41.884 -17.488500000000002 2.0
vertex -41.884 -17.488500000000002 0.0
vertex -33.589 -11.7545 0.0
endloop
endfacet
facet normal -0.0 0.0 -1.0
outer loop
vertex -45.994 -6.148499999999999 0.0
vertex -49.018 -20.2365 0.0
vertex -53.84400000000001 -10.2205 0.0
endloop
endfacet
facet normal 0.0 -0.0 -1.0
outer loop
vertex -45.994 -6.148499999999999 0.0
vertex -33.589 -11.7545 0.0
vertex -41.884 -17.488500000000002 0.0
endloop
endfacet
facet normal 0.0 -0.0 -1.0
outer loop
vertex -37.673 -0.6894999999999998 0.0
vertex -25.953000000000003 -8.6525 0.0
vertex -33.589 -11.7545 0.0
endloop
endfacet
facet normal -0.0 -0.0 -1.0
outer loop
vertex -37.673 -0.6894999999999998 0.0
vertex -33.589 -11.7545 0.0
vertex -45.994 -6.148499999999999 0.0
endloop
endfacet
facet normal -0.33406160551944547 0.9425512419586377 0.0
outer loop
vertex -53.84400000000001 -10.2205 2.0
vertex -53.84400000000001 -10.2205 0.0
vertex -62.141999999999996 -13.1615 0.0
endloop
endfacet
facet normal -0.4604623898885068 0.8876792142988169 0.0
outer loop
vertex -45.994 -6.148499999999999 2.0
vertex -45.994 -6.148499999999999 0.0
vertex -53.84400000000001 -10.2205 0.0
endloop
endfacet
facet normal -0.5485401083752593 0.8361242428632593 0.0
outer loop
vertex -37.673 -0.6894999999999998 2.0
vertex -37.673 -0.6894999999999998 0.0
vertex -45.994 -6.148499999999999 0.0
endloop
endfacet
facet normal 0.0 -0.0 -1.0
outer loop
vertex -30.396000000000004 4.7875000000000005 0.0
vertex -17.351000000000003 -7.3315 0.0
vertex -25.953000000000003 -8.6525 0.0
endloop
endfacet
facet normal -0.0 -0.0 -1.0
outer loop
vertex -30.396000000000004 4.7875000000000005 0.0
vertex -25.953000000000003 -8.6525 0.0
vertex -37.673 -0.6894999999999998 0.0
endloop
endfacet
facet normal 0.37636402917133593 -0.9264718654907541 0.0
outer loop
vertex -33.589 -11.7545 2.0
vertex -33.589 -11.7545 0.0
vertex -25.953000000000003 -8.6525 0.0
endloop
endfacet
facet normal 0.15178950979653028 -0.9884128412337272 0.0
outer loop
vertex -25.953000000000003 -8.6525 2.0
vertex -25.953000000000003 -8.6525 0.0
vertex -17.351000000000003 -7.3315 0.0
endloop
endfacet
facet normal -0.08937095314766096 -0.9959984100054974 -0.0
outer loop
vertex -17.351000000000003 -7.3315 2.0
vertex -17.351000000000003 -7.3315 0.0
vertex -9.795000000000002 -8.0095 0.0
endloop
endfacet
facet normal -0.19363303189666073 -0.9810740282764124 -0.0
outer loop
vertex -9.795000000000002 -8.0095 2.0
vertex -9.795000000000002 -8.0095 0.0
vertex -8.807000000000002 -8.2045 0.0
endloop
endfacet
facet normal -0.30123723529144303 -0.9535492268750302 -0.0
outer loop
vertex -8.807000000000002 -8.2045 2.0
vertex -8.807000000000002 -8.2045 0.0
vertex -1.4790000000000028 -10.519499999999999 0.0
endloop
endfacet
facet normal -0.19771278603947187 -0.9802599931837013 0.0
outer loop
vertex -49.018 -20.2365 2.0
vertex -53.976 -19.2365 2.0
vertex -49.018 -20.2365 0.0
endloop
endfacet
facet normal -0.5245374464842596 -0.8513873778931493 0.0
outer loop
vertex -60.60900000000001 -16.7915 2.0
vertex -62.336 -15.7275 2.0
vertex -60.60900000000001 -16.7915 0.0
endloop
endfacet
facet normal -0.3481330358518507 -0.9374451393807394 0.0
outer loop
vertex -56.45100000000001 -18.5545 2.0
vertex -58.650999999999996 -17.737499999999997 2.0
vertex -56.45100000000001 -18.5545 0.0
endloop
endfacet
facet normal -0.4350319697895711 -0.9004150072388875 0.0
outer loop
vertex -58.650999999999996 -17.737499999999997 2.0
vertex -60.60900000000001 -16.7915 2.0
vertex -58.650999999999996 -17.737499999999997 0.0
endloop
endfacet
facet normal -0.6129633574628403 -0.7901113354508225 0.0
outer loop
vertex -62.336 -15.7275 2.0
vertex -63.848 -14.554499999999999 2.0
vertex -62.336 -15.7275 0.0
endloop
endfacet
facet normal -0.6991433363422581 -0.7149815349001792 0.0
outer loop
vertex -63.848 -14.554499999999999 2.0
vertex -64.796 -13.6275 2.0
vertex -63.848 -14.554499999999999 0.0
endloop
endfacet
facet normal -0.1729384357102833 0.9849326359980566 0.0
outer loop
vertex -64.796 -13.6275 2.0
vertex -62.141999999999996 -13.1615 2.0
vertex -64.796 -13.6275 0.0
endloop
endfacet
facet normal -0.2656543846931614 -0.9640683315477684 0.0
outer loop
vertex -53.976 -19.2365 2.0
vertex -56.45100000000001 -18.5545 2.0
vertex -53.976 -19.2365 0.0
endloop
endfacet
facet normal -0.15714633618155005 -0.9875753282786661 0.0
outer loop
vertex -46.919 -20.5705 2.0
vertex -49.018 -20.2365 2.0
vertex -46.919 -20.5705 0.0
endloop
endfacet
facet normal -0.0935405464153057 -0.9956154710410672 0.0
outer loop
vertex -45.06700000000001 -20.7445 2.0
vertex -46.919 -20.5705 2.0
vertex -45.06700000000001 -20.7445 0.0
endloop
endfacet
facet normal 0.7150774134056018 -0.6990452723802328 0.0
outer loop
vertex -41.884 -17.488500000000002 2.0
vertex -45.06700000000001 -20.7445 2.0
vertex -41.884 -17.488500000000002 0.0
endloop
endfacet
facet normal 0.5686271269465185 -0.8225953990270964 0.0
outer loop
vertex -33.589 -11.7545 2.0
vertex -41.884 -17.488500000000002 2.0
vertex -33.589 -11.7545 0.0
endloop
endfacet
facet normal 0.0 0.0 1.0
outer loop
vertex -62.141999999999996 -13.1615 2.0
vertex -63.848 -14.554499999999999 2.0
vertex -62.336 -15.7275 2.0
endloop
endfacet
facet normal 0.0 0.0 1.0
outer loop
vertex -62.141999999999996 -13.1615 2.0
vertex -64.796 -13.6275 2.0
vertex -63.848 -14.554499999999999 2.0
endloop
endfacet
facet normal 0.0 0.0 1.0
outer loop
vertex -53.84400000000001 -10.2205 2.0
vertex -60.60900000000001 -16.7915 2.0
vertex -58.650999999999996 -17.737499999999997 2.0
endloop
endfacet
facet normal 0.0 0.0 0.9999999999999999
outer loop
vertex -53.84400000000001 -10.2205 2.0
vertex -62.336 -15.7275 2.0
vertex -60.60900000000001 -16.7915 2.0
endloop
endfacet
facet normal 0.0 0.0 0.9999999999999999
outer loop
vertex -53.84400000000001 -10.2205 2.0
vertex -62.141999999999996 -13.1615 2.0
vertex -62.336 -15.7275 2.0
endloop
endfacet
facet normal 0.0 0.0 1.0
outer loop
vertex -53.84400000000001 -10.2205 2.0
vertex -53.976 -19.2365 2.0
vertex -49.018 -20.2365 2.0
endloop
endfacet
facet normal 0.0 0.0 1.0
outer loop
vertex -53.84400000000001 -10.2205 2.0
vertex -58.650999999999996 -17.737499999999997 2.0
vertex -56.45100000000001 -18.5545 2.0
endloop
endfacet
facet normal 0.0 0.0 1.0
outer loop
vertex -53.84400000000001 -10.2205 2.0
vertex -56.45100000000001 -18.5545 2.0
vertex -53.976 -19.2365 2.0
endloop
endfacet
facet normal 0.0 0.0 1.0
outer loop
vertex -45.994 -6.148499999999999 2.0
vertex -49.018 -20.2365 2.0
vertex -46.919 -20.5705 2.0
endloop
endfacet
facet normal 0.0 0.0 0.9999999999999999
outer loop
vertex -45.994 -6.148499999999999 2.0
vertex -46.919 -20.5705 2.0
vertex -45.06700000000001 -20.7445 2.0
endloop
endfacet
facet normal -0.0 0.0 1.0
outer loop
vertex -45.994 -6.148499999999999 2.0
vertex -45.06700000000001 -20.7445 2.0
vertex -41.884 -17.488500000000002 2.0
endloop
endfacet
facet normal -0.33406160551944547 0.9425512419586377 0.0
outer loop
vertex -62.141999999999996 -13.1615 2.0
vertex -53.84400000000001 -10.2205 2.0
vertex -62.141999999999996 -13.1615 0.0
endloop
endfacet
facet normal -0.4604623898885068 0.8876792142988169 0.0
outer loop
vertex -53.84400000000001 -10.2205 2.0
vertex -45.994 -6.148499999999999 2.0
vertex -53.84400000000001 -10.2205 0.0
endloop
endfacet
facet normal -0.5485401083752593 0.8361242428632593 0.0
outer loop
vertex -45.994 -6.148499999999999 2.0
vertex -37.673 -0.6894999999999998 2.0
vertex -45.994 -6.148499999999999 0.0
endloop
endfacet
facet normal 0.0 0.0 1.0
outer loop
vertex -45.994 -6.148499999999999 2.0
vertex -53.84400000000001 -10.2205 2.0
vertex -49.018 -20.2365 2.0
endloop
endfacet
facet normal -0.0 0.0 1.0
outer loop
vertex -45.994 -6.148499999999999 2.0
vertex -41.884 -17.488500000000002 2.0
vertex -33.589 -11.7545 2.0
endloop
endfacet
facet normal -0.0 0.0 1.0
outer loop
vertex -37.673 -0.6894999999999998 2.0
vertex -33.589 -11.7545 2.0
vertex -25.953000000000003 -8.6525 2.0
endloop
endfacet
facet normal 0.0 0.0 1.0
outer loop
vertex -37.673 -0.6894999999999998 2.0
vertex -45.994 -6.148499999999999 2.0
vertex -33.589 -11.7545 2.0
endloop
endfacet
facet normal 0.37636402917133593 -0.9264718654907541 0.0
outer loop
vertex -25.953000000000003 -8.6525 2.0
vertex -33.589 -11.7545 2.0
vertex -25.953000000000003 -8.6525 0.0
endloop
endfacet
facet normal 0.15178950979653028 -0.9884128412337272 0.0
outer loop
vertex -17.351000000000003 -7.3315 2.0
vertex -25.953000000000003 -8.6525 2.0
vertex -17.351000000000003 -7.3315 0.0
endloop
endfacet
facet normal -0.08937095314766096 -0.9959984100054974 0.0
outer loop
vertex -9.795000000000002 -8.0095 2.0
vertex -17.351000000000003 -7.3315 2.0
vertex -9.795000000000002 -8.0095 0.0
endloop
endfacet
facet normal -0.19363303189666073 -0.9810740282764124 0.0
outer loop
vertex -8.807000000000002 -8.2045 2.0
vertex -9.795000000000002 -8.0095 2.0
vertex -8.807000000000002 -8.2045 0.0
endloop
endfacet
facet normal -0.30123723529144303 -0.9535492268750302 0.0
outer loop
vertex -1.4790000000000028 -10.519499999999999 2.0
vertex -8.807000000000002 -8.2045 2.0
vertex -1.4790000000000028 -10.519499999999999 0.0
endloop
endfacet
facet normal -0.0 0.0 0.9999999999999999
outer loop
vertex -30.396000000000004 4.7875000000000005 2.0
vertex -25.953000000000003 -8.6525 2.0
vertex -17.351000000000003 -7.3315 2.0
endloop
endfacet
facet normal 0.0 0.0 1.0
outer loop
vertex -30.396000000000004 4.7875000000000005 2.0
vertex -37.673 -0.6894999999999998 2.0
vertex -25.953000000000003 -8.6525 2.0
endloop
endfacet
facet normal -0.6013518270756492 0.7989843428207956 0.0
outer loop
vertex -30.396000000000004 4.7875000000000005 2.0
vertex -30.396000000000004 4.7875000000000005 0.0
vertex -37.673 -0.6894999999999998 0.0
endloop
endfacet
facet normal -0.0 0.0 -1.0
outer loop
vertex -16.288000000000004 16.1475 0.0
vertex -17.351000000000003 -7.3315 0.0
vertex -30.396000000000004 4.7875000000000005 0.0
endloop
endfacet
facet normal -0.0 -0.0 -1.0
outer loop
vertex -16.288000000000004 16.1475 0.0
vertex -9.795000000000002 -8.0095 0.0
vertex -17.351000000000003 -7.3315 0.0
endloop
endfacet
facet normal -0.0 -0.0 -1.0
outer loop
vertex -9.210000000000003 20.6175 0.0
vertex -8.807000000000002 -8.2045 0.0
vertex -9.795000000000002 -8.0095 0.0
endloop
endfacet
facet normal -0.0 -0.0 -0.9999999999999999
outer loop
vertex -9.210000000000003 20.6175 0.0
vertex -1.4790000000000028 -10.519499999999999 0.0
vertex -8.807000000000002 -8.2045 0.0
endloop
endfacet
facet normal -0.0 0.0 -1.0
outer loop
vertex -9.210000000000003 20.6175 0.0
vertex -9.795000000000002 -8.0095 0.0
vertex -16.288000000000004 16.1475 0.0
endloop
endfacet
facet normal -0.0 0.0 -1.0
outer loop
vertex -0.5050000000000026 23.9195 0.0
vertex -1.4790000000000028 -10.519499999999999 0.0
vertex -9.210000000000003 20.6175 0.0
endloop
endfacet
facet normal -0.6271695566564874 0.7788827557490955 0.0
outer loop
vertex -16.288000000000004 16.1475 2.0
vertex -16.288000000000004 16.1475 0.0
vertex -30.396000000000004 4.7875000000000005 0.0
endloop
endfacet
facet normal -0.5339660249273367 0.8455059338782306 0.0
outer loop
vertex -9.210000000000003 20.6175 2.0
vertex -9.210000000000003 20.6175 0.0
vertex -16.288000000000004 16.1475 0.0
endloop
endfacet
facet normal -0.3546639477895244 0.9349938417649335 0.0
outer loop
vertex -0.5050000000000026 23.9195 2.0
vertex -0.5050000000000026 23.9195 0.0
vertex -9.210000000000003 20.6175 0.0
endloop
endfacet
facet normal -0.6013518270756492 0.7989843428207956 0.0
outer loop
vertex -37.673 -0.6894999999999998 2.0
vertex -30.396000000000004 4.7875000000000005 2.0
vertex -37.673 -0.6894999999999998 0.0
endloop
endfacet
facet normal -0.6271695566564874 0.7788827557490955 0.0
outer loop
vertex -30.396000000000004 4.7875000000000005 2.0
vertex -16.288000000000004 16.1475 2.0
vertex -30.396000000000004 4.7875000000000005 0.0
endloop
endfacet
facet normal 0.0 0.0 1.0
outer loop
vertex -16.288000000000004 16.1475 2.0
vertex -30.396000000000004 4.7875000000000005 2.0
vertex -17.351000000000003 -7.3315 2.0
endloop
endfacet
facet normal 0.0 0.0 1.0
outer loop
vertex -16.288000000000004 16.1475 2.0
vertex -17.351000000000003 -7.3315 2.0
vertex -9.795000000000002 -8.0095 2.0
endloop
endfacet
facet normal 0.0 0.0 1.0
outer loop
vertex -9.210000000000003 20.6175 2.0
vertex -9.795000000000002 -8.0095 2.0
vertex -8.807000000000002 -8.2045 2.0
endloop
endfacet
facet normal 0.0 0.0 0.9999999999999999
outer loop
vertex -9.210000000000003 20.6175 2.0
vertex -8.807000000000002 -8.2045 2.0
vertex -1.4790000000000028 -10.519499999999999 2.0
endloop
endfacet
facet normal 0.0 0.0 1.0
outer loop
vertex -9.210000000000003 20.6175 2.0
vertex -16.288000000000004 16.1475 2.0
vertex -9.795000000000002 -8.0095 2.0
endloop
endfacet
facet normal 0.0 0.0 1.0
outer loop
vertex -0.5050000000000026 23.9195 2.0
vertex -9.210000000000003 20.6175 2.0
vertex -1.4790000000000028 -10.519499999999999 2.0
endloop
endfacet
facet normal -0.5339660249273367 0.8455059338782306 0.0
outer loop
vertex -16.288000000000004 16.1475 2.0
vertex -9.210000000000003 20.6175 2.0
vertex -16.288000000000004 16.1475 0.0
endloop
endfacet
facet normal -0.3546639477895244 0.9349938417649335 0.0
outer loop
vertex -9.210000000000003 20.6175 2.0
vertex -0.5050000000000026 23.9195 2.0
vertex -9.210000000000003 20.6175 0.0
endloop
endfacet
facet normal -0.5732862918210463 -0.8193551291168403 -0.0
outer loop
vertex 13.064999999999998 -19.9415 2.0
vertex 13.064999999999998 -19.9415 0.0
vertex 18.063 -23.4385 0.0
endloop
endfacet
facet normal -0.5537804655619104 -0.8326627144060395 -0.0
outer loop
vertex 5.583999999999998 -14.3115 2.0
vertex 5.583999999999998 -14.3115 0.0
vertex 6.419999999999998 -14.8675 0.0
endloop
endfacet
facet normal -0.6068861300938105 -0.7947887927617993 -0.0
outer loop
vertex 6.419999999999998 -14.8675 2.0
vertex 6.419999999999998 -14.8675 0.0
vertex 13.064999999999998 -19.9415 0.0
endloop
endfacet
facet normal -0.3451440870990352 -0.9385497105324649 -0.0
outer loop
vertex 18.063 -23.4385 2.0
vertex 18.063 -23.4385 0.0
vertex 23.487999999999996 -25.4335 0.0
endloop
endfacet
facet normal -0.044842626290852027 -0.9989940634795279 -0.0
outer loop
vertex 23.487999999999996 -25.4335 2.0
vertex 23.487999999999996 -25.4335 0.0
vertex 29.102 -25.6855 0.0
endloop
endfacet
facet normal 0.25006892636432054 -0.9682280372241842 0.0
outer loop
vertex 29.102 -25.6855 2.0
vertex 29.102 -25.6855 0.0
vertex 35.084 -24.1405 0.0
endloop
endfacet
facet normal -0.0 0.0 -1.0
outer loop
vertex 29.614 24.2645 0.0
vertex 6.419999999999998 -14.8675 0.0
vertex 5.583999999999998 -14.3115 0.0
endloop
endfacet
facet normal -0.0 0.0 -0.9999999999999999
outer loop
vertex 40.884 21.2215 0.0
vertex 18.063 -23.4385 0.0
vertex 13.064999999999998 -19.9415 0.0
endloop
endfacet
facet normal -0.0 0.0 -1.0
outer loop
vertex 40.884 21.2215 0.0
vertex 29.102 -25.6855 0.0
vertex 23.487999999999996 -25.4335 0.0
endloop
endfacet
facet normal -0.0 0.0 -1.0
outer loop
vertex 40.884 21.2215 0.0
vertex 23.487999999999996 -25.4335 0.0
vertex 18.063 -23.4385 0.0
endloop
endfacet
facet normal -0.0 0.0 -1.0
outer loop
vertex 29.614 24.2645 0.0
vertex 13.064999999999998 -19.9415 0.0
vertex 6.419999999999998 -14.8675 0.0
endloop
endfacet
facet normal -0.47302085138695044 -0.8810512324224763 -0.0
outer loop
vertex -1.4790000000000028 -10.519499999999999 2.0
vertex -1.4790000000000028 -10.519499999999999 0.0
vertex 5.583999999999998 -14.3115 0.0
endloop
endfacet
facet normal 0.47211532555516034 -0.8815367941135215 0.0
outer loop
vertex 35.084 -24.1405 2.0
vertex 35.084 -24.1405 0.0
vertex 42.001999999999995 -20.4355 0.0
endloop
endfacet
facet normal 0.6163650398851326 -0.7874605625727545 0.0
outer loop
vertex 42.001999999999995 -20.4355 2.0
vertex 42.001999999999995 -20.4355 0.0
vertex 49.480999999999995 -14.5815 0.0
endloop
endfacet
facet normal 0.0 0.0 -1.0
outer loop
vertex 40.884 21.2215 0.0
vertex 35.084 -24.1405 0.0
vertex 29.102 -25.6855 0.0
endloop
endfacet
facet normal 0.0 -0.0 -1.0
outer loop
vertex 40.884 21.2215 0.0
vertex 42.001999999999995 -20.4355 0.0
vertex 35.084 -24.1405 0.0
endloop
endfacet
facet normal 0.0 -0.0 -0.9999999999999999
outer loop
vertex 40.884 21.2215 0.0
vertex 49.480999999999995 -14.5815 0.0
vertex 42.001999999999995 -20.4355 0.0
endloop
endfacet
facet normal 0.0 -0.0 -1.0
outer loop
vertex 54.175 15.7015 0.0
vertex 58.093 -5.9755 0.0
vertex 49.480999999999995 -14.5815 0.0
endloop
endfacet
facet normal 0.7068603309802909 -0.707353145526641 0.0
outer loop
vertex 49.480999999999995 -14.5815 2.0
vertex 49.480999999999995 -14.5815 0.0
vertex 58.093 -5.9755 0.0
endloop
endfacet
facet normal 0.7645594885440484 -0.6445531696278152 0.0
outer loop
vertex 58.093 -5.9755 2.0
vertex 58.093 -5.9755 0.0
vertex 64.796 1.9755000000000003 0.0
endloop
endfacet
facet normal -0.47302085138695044 -0.8810512324224763 0.0
outer loop
vertex 5.583999999999998 -14.3115 2.0
vertex -1.4790000000000028 -10.519499999999999 2.0
vertex 5.583999999999998 -14.3115 0.0
endloop
endfacet
facet normal -0.5537804655619104 -0.8326627144060395 0.0
outer loop
vertex 6.419999999999998 -14.8675 2.0
vertex 5.583999999999998 -14.3115 2.0
vertex 6.419999999999998 -14.8675 0.0
endloop
endfacet
facet normal -0.6068861300938105 -0.7947887927617993 0.0
outer loop
vertex 13.064999999999998 -19.9415 2.0
vertex 6.419999999999998 -14.8675 2.0
vertex 13.064999999999998 -19.9415 0.0
endloop
endfacet
facet normal -0.3451440870990352 -0.9385497105324649 0.0
outer loop
vertex 23.487999999999996 -25.4335 2.0
vertex 18.063 -23.4385 2.0
vertex 23.487999999999996 -25.4335 0.0
endloop
endfacet
facet normal -0.5732862918210463 -0.8193551291168403 0.0
outer loop
vertex 18.063 -23.4385 2.0
vertex 13.064999999999998 -19.9415 2.0
vertex 18.063 -23.4385 0.0
endloop
endfacet
facet normal -0.044842626290852027 -0.9989940634795279 0.0
outer loop
vertex 29.102 -25.6855 2.0
vertex 23.487999999999996 -25.4335 2.0
vertex 29.102 -25.6855 0.0
endloop
endfacet
facet normal 0.0 0.0 1.0
outer loop
vertex 29.614 24.2645 2.0
vertex 5.583999999999998 -14.3115 2.0
vertex 6.419999999999998 -14.8675 2.0
endloop
endfacet
facet normal 0.0 0.0 1.0
outer loop
vertex 40.884 21.2215 2.0
vertex 13.064999999999998 -19.9415 2.0
vertex 18.063 -23.4385 2.0
endloop
endfacet
facet normal 0.0 0.0 1.0
outer loop
vertex 40.884 21.2215 2.0
vertex 23.487999999999996 -25.4335 2.0
vertex 29.102 -25.6855 2.0
endloop
endfacet
facet normal 0.0 0.0 1.0
outer loop
vertex 40.884 21.2215 2.0
vertex 18.063 -23.4385 2.0
vertex 23.487999999999996 -25.4335 2.0
endloop
endfacet
facet normal 0.0 0.0 1.0
outer loop
vertex 29.614 24.2645 2.0
vertex 6.419999999999998 -14.8675 2.0
vertex 13.064999999999998 -19.9415 2.0
endloop
endfacet
facet normal 0.25006892636432054 -0.9682280372241842 0.0
outer loop
vertex 35.084 -24.1405 2.0
vertex 29.102 -25.6855 2.0
vertex 35.084 -24.1405 0.0
endloop
endfacet
facet normal 0.47211532555516034 -0.8815367941135215 0.0
outer loop
vertex 42.001999999999995 -20.4355 2.0
vertex 35.084 -24.1405 2.0
vertex 42.001999999999995 -20.4355 0.0
endloop
endfacet
facet normal 0.6163650398851326 -0.7874605625727545 0.0
outer loop
vertex 49.480999999999995 -14.5815 2.0
vertex 42.001999999999995 -20.4355 2.0
vertex 49.480999999999995 -14.5815 0.0
endloop
endfacet
facet normal 0.7068603309802909 -0.707353145526641 0.0
outer loop
vertex 58.093 -5.9755 2.0
vertex 49.480999999999995 -14.5815 2.0
vertex 58.093 -5.9755 0.0
endloop
endfacet
facet normal 0.7645594885440484 -0.6445531696278152 0.0
outer loop
vertex 64.796 1.9755000000000003 2.0
vertex 58.093 -5.9755 2.0
vertex 64.796 1.9755000000000003 0.0
endloop
endfacet
facet normal -0.0 0.0 1.0
outer loop
vertex 40.884 21.2215 2.0
vertex 29.102 -25.6855 2.0
vertex 35.084 -24.1405 2.0
endloop
endfacet
facet normal -0.0 0.0 1.0
outer loop
vertex 40.884 21.2215 2.0
vertex 35.084 -24.1405 2.0
vertex 42.001999999999995 -20.4355 2.0
endloop
endfacet
facet normal -0.0 0.0 0.9999999999999999
outer loop
vertex 40.884 21.2215 2.0
vertex 42.001999999999995 -20.4355 2.0
vertex 49.480999999999995 -14.5815 2.0
endloop
endfacet
facet normal -0.0 0.0 1.0
outer loop
vertex 54.175 15.7015 2.0
vertex 49.480999999999995 -14.5815 2.0
vertex 58.093 -5.9755 2.0
endloop
endfacet
facet normal -0.0 0.0 -1.0
outer loop
vertex 8.358999999999998 25.5265 0.0
vertex 5.583999999999998 -14.3115 0.0
vertex -1.4790000000000028 -10.519499999999999 0.0
endloop
endfacet
facet normal -0.0 0.0 -1.0
outer loop
vertex 18.900999999999996 25.6855 0.0
vertex 5.583999999999998 -14.3115 0.0
vertex 8.358999999999998 25.5265 0.0
endloop
endfacet
facet normal -0.0 0.0 -1.0
outer loop
vertex 29.614 24.2645 0.0
vertex 5.583999999999998 -14.3115 0.0
vertex 18.900999999999996 25.6855 0.0
endloop
endfacet
facet normal -0.0 0.0 -1.0
outer loop
vertex 40.884 21.2215 0.0
vertex 13.064999999999998 -19.9415 0.0
vertex 29.614 24.2645 0.0
endloop
endfacet
facet normal -0.0 0.0 -1.0
outer loop
vertex 8.358999999999998 25.5265 0.0
vertex -1.4790000000000028 -10.519499999999999 0.0
vertex -0.5050000000000026 23.9195 0.0
endloop
endfacet
facet normal -0.17838721872776955 0.9839603651542937 0.0
outer loop
vertex 8.358999999999998 25.5265 2.0
vertex 8.358999999999998 25.5265 0.0
vertex -0.5050000000000026 23.9195 0.0
endloop
endfacet
facet normal -0.015080811820952694 0.9998862780910742 0.0
outer loop
vertex 18.900999999999996 25.6855 2.0
vertex 18.900999999999996 25.6855 0.0
vertex 8.358999999999998 25.5265 0.0
endloop
endfacet
facet normal 0.1314908983425049 0.9913173778629532 0.0
outer loop
vertex 29.614 24.2645 2.0
vertex 29.614 24.2645 0.0
vertex 18.900999999999996 25.6855 0.0
endloop
endfacet
facet normal -0.0 0.0 -1.0
outer loop
vertex 52.997 16.334500000000002 0.0
vertex 49.480999999999995 -14.5815 0.0
vertex 40.884 21.2215 0.0
endloop
endfacet
facet normal -0.0 0.0 -1.0
outer loop
vertex 54.175 15.7015 0.0
vertex 49.480999999999995 -14.5815 0.0
vertex 52.997 16.334500000000002 0.0
endloop
endfacet
facet normal 0.0 0.0 -1.0
outer loop
vertex 58.093 -5.9755 0.0
vertex 60.944 8.2235 0.0
vertex 63.102999999999994 4.9385 0.0
endloop
endfacet
facet normal 0.0 0.0 -1.0
outer loop
vertex 58.093 -5.9755 0.0
vertex 63.102999999999994 4.9385 0.0
vertex 64.796 1.9755000000000003 0.0
endloop
endfacet
facet normal 0.0 0.0 -1.0
outer loop
vertex 58.093 -5.9755 0.0
vertex 58.553 11.2715 0.0
vertex 60.944 8.2235 0.0
endloop
endfacet
facet normal -0.0 -0.0 -0.9999999999999999
outer loop
vertex 55.878 14.148500000000002 0.0
vertex 58.093 -5.9755 0.0
vertex 54.175 15.7015 0.0
endloop
endfacet
facet normal 0.0 -0.0 -1.0
outer loop
vertex 55.878 14.148500000000002 0.0
vertex 58.553 11.2715 0.0
vertex 58.093 -5.9755 0.0
endloop
endfacet
facet normal 0.8682611744422438 0.49610738046936526 0.0
outer loop
vertex 64.796 1.9755000000000003 2.0
vertex 64.796 1.9755000000000003 0.0
vertex 63.102999999999994 4.9385 0.0
endloop
endfacet
facet normal 0.8356721202531322 0.5492286476793017 0.0
outer loop
vertex 63.102999999999994 4.9385 2.0
vertex 63.102999999999994 4.9385 0.0
vertex 60.944 8.2235 0.0
endloop
endfacet
facet normal 0.7868017994785426 0.61720574230748 0.0
outer loop
vertex 60.944 8.2235 2.0
vertex 60.944 8.2235 0.0
vertex 58.553 11.2715 0.0
endloop
endfacet
facet normal 0.7323490880973609 0.6809293745778368 0.0
outer loop
vertex 58.553 11.2715 2.0
vertex 58.553 11.2715 0.0
vertex 55.878 14.148500000000002 0.0
endloop
endfacet
facet normal 0.2606738365708122 0.9654269267673516 0.0
outer loop
vertex 40.884 21.2215 2.0
vertex 40.884 21.2215 0.0
vertex 29.614 24.2645 0.0
endloop
endfacet
facet normal 0.4733415818216633 0.8808789626949696 0.0
outer loop
vertex 54.175 15.7015 2.0
vertex 54.175 15.7015 0.0
vertex 52.997 16.334500000000002 0.0
endloop
endfacet
facet normal 0.6738165701686432 0.7388986600110775 0.0
outer loop
vertex 55.878 14.148500000000002 2.0
vertex 55.878 14.148500000000002 0.0
vertex 54.175 15.7015 0.0
endloop
endfacet
facet normal 0.37414783034365195 0.927369074882885 0.0
outer loop
vertex 52.997 16.334500000000002 2.0
vertex 52.997 16.334500000000002 0.0
vertex 40.884 21.2215 0.0
endloop
endfacet
facet normal 0.0 0.0 1.0
outer loop
vertex 8.358999999999998 25.5265 2.0
vertex -1.4790000000000028 -10.519499999999999 2.0
vertex 5.583999999999998 -14.3115 2.0
endloop
endfacet
facet normal 0.0 0.0 1.0
outer loop
vertex 18.900999999999996 25.6855 2.0
vertex 8.358999999999998 25.5265 2.0
vertex 5.583999999999998 -14.3115 2.0
endloop
endfacet
facet normal 0.0 0.0 1.0
outer loop
vertex 29.614 24.2645 2.0
vertex 18.900999999999996 25.6855 2.0
vertex 5.583999999999998 -14.3115 2.0
endloop
endfacet
facet normal 0.0 0.0 1.0
outer loop
vertex 40.884 21.2215 2.0
vertex 29.614 24.2645 2.0
vertex 13.064999999999998 -19.9415 2.0
endloop
endfacet
facet normal -0.17838721872776955 0.9839603651542937 0.0
outer loop
vertex -0.5050000000000026 23.9195 2.0
vertex 8.358999999999998 25.5265 2.0
vertex -0.5050000000000026 23.9195 0.0
endloop
endfacet
facet normal -0.015080811820952694 0.9998862780910742 0.0
outer loop
vertex 8.358999999999998 25.5265 2.0
vertex 18.900999999999996 25.6855 2.0
vertex 8.358999999999998 25.5265 0.0
endloop
endfacet
facet normal 0.1314908983425049 0.9913173778629532 0.0
outer loop
vertex 18.900999999999996 25.6855 2.0
vertex 29.614 24.2645 2.0
vertex 18.900999999999996 25.6855 0.0
endloop
endfacet
facet normal 0.0 0.0 1.0
outer loop
vertex 8.358999999999998 25.5265 2.0
vertex -0.5050000000000026 23.9195 2.0
vertex -1.4790000000000028 -10.519499999999999 2.0
endloop
endfacet
facet normal 0.8682611744422438 0.49610738046936526 0.0
outer loop
vertex 63.102999999999994 4.9385 2.0
vertex 64.796 1.9755000000000003 2.0
vertex 63.102999999999994 4.9385 0.0
endloop
endfacet
facet normal 0.8356721202531322 0.5492286476793017 0.0
outer loop
vertex 60.944 8.2235 2.0
vertex 63.102999999999994 4.9385 2.0
vertex 60.944 8.2235 0.0
endloop
endfacet
facet normal 0.7868017994785426 0.61720574230748 0.0
outer loop
vertex 58.553 11.2715 2.0
vertex 60.944 8.2235 2.0
vertex 58.553 11.2715 0.0
endloop
endfacet
facet normal 0.0 0.0 1.0
outer loop
vertex 52.997 16.334500000000002 2.0
vertex 40.884 21.2215 2.0
vertex 49.480999999999995 -14.5815 2.0
endloop
endfacet
facet normal 0.0 0.0 1.0
outer loop
vertex 54.175 15.7015 2.0
vertex 52.997 16.334500000000002 2.0
vertex 49.480999999999995 -14.5815 2.0
endloop
endfacet
facet normal 0.0 -0.0 0.9999999999999999
outer loop
vertex 58.093 -5.9755 2.0
vertex 63.102999999999994 4.9385 2.0
vertex 60.944 8.2235 2.0
endloop
endfacet
facet normal 0.0 -0.0 1.0
outer loop
vertex 58.093 -5.9755 2.0
vertex 64.796 1.9755000000000003 2.0
vertex 63.102999999999994 4.9385 2.0
endloop
endfacet
facet normal 0.0 -0.0 0.9999999999999999
outer loop
vertex 58.093 -5.9755 2.0
vertex 60.944 8.2235 2.0
vertex 58.553 11.2715 2.0
endloop
endfacet
facet normal 0.0 0.0 0.9999999999999999
outer loop
vertex 55.878 14.148500000000002 2.0
vertex 54.175 15.7015 2.0
vertex 58.093 -5.9755 2.0
endloop
endfacet
facet normal -0.0 0.0 1.0
outer loop
vertex 55.878 14.148500000000002 2.0
vertex 58.093 -5.9755 2.0
vertex 58.553 11.2715 2.0
endloop
endfacet
facet normal 0.2606738365708122 0.9654269267673516 0.0
outer loop
vertex 29.614 24.2645 2.0
vertex 40.884 21.2215 2.0
vertex 29.614 24.2645 0.0
endloop
endfacet
facet normal 0.37414783034365195 0.927369074882885 0.0
outer loop
vertex 40.884 21.2215 2.0
vertex 52.997 16.334500000000002 2.0
vertex 40.884 21.2215 0.0
endloop
endfacet
facet normal 0.6738165701686432 0.7388986600110775 0.0
outer loop
vertex 54.175 15.7015 2.0
vertex 55.878 14.148500000000002 2.0
vertex 54.175 15.7015 0.0
endloop
endfacet
facet normal 0.4733415818216633 0.8808789626949696 0.0
outer loop
vertex 52.997 16.334500000000002 2.0
vertex 54.175 15.7015 2.0
vertex 52.997 16.334500000000002 0.0
endloop
endfacet
facet normal 0.7323490880973609 0.6809293745778368 0.0
outer loop
vertex 55.878 14.148500000000002 2.0
vertex 58.553 11.2715 2.0
vertex 55.878 14.148500000000002 0.0
endloop
endfacet

endsolid
