solid 
facet normal -0.9999999999999999 0.0 -0.0
outer loop
vertex -4.815999999999999 -6.415 19.28
vertex -4.815999999999999 -0.41500000000000004 19.28
vertex -4.815999999999999 -6.415 0.0
endloop
endfacet
facet normal -0.0 -1.0 -0.0
outer loop
vertex 2.384000000000001 -6.415 0.0
vertex -4.815999999999999 -6.415 19.28
vertex -4.815999999999999 -6.415 0.0
endloop
endfacet
facet normal -0.9999999999999999 0.0 0.0
outer loop
vertex -4.815999999999999 -6.415 0.0
vertex -4.815999999999999 -0.41500000000000004 19.28
vertex -4.815999999999999 -0.41500000000000004 0.0
endloop
endfacet
facet normal -0.0 -0.0 -1.0
outer loop
vertex -4.815999999999999 -0.41500000000000004 0.0
vertex 2.384000000000001 -6.415 0.0
vertex -4.815999999999999 -6.415 0.0
endloop
endfacet
facet normal 0.0 -0.0 1.0
outer loop
vertex -4.815999999999999 -6.415 19.28
vertex 2.384000000000001 -0.41500000000000004 19.28
vertex -4.815999999999999 -0.41500000000000004 19.28
endloop
endfacet
facet normal -0.0 -1.0 -0.0
outer loop
vertex 2.384000000000001 -6.415 19.28
vertex -4.815999999999999 -6.415 19.28
vertex 2.384000000000001 -6.415 0.0
endloop
endfacet
facet normal 0.0 -0.0 1.0
outer loop
vertex 2.384000000000001 -6.415 19.28
vertex 2.384000000000001 -0.41500000000000004 19.28
vertex -4.815999999999999 -6.415 19.28
endloop
endfacet
facet normal -0.0 1.0 0.0
outer loop
vertex -4.815999999999999 -0.41500000000000004 19.28
vertex 2.384000000000001 -0.41500000000000004 19.28
vertex -4.815999999999999 -0.41500000000000004 0.0
endloop
endfacet
facet normal -0.0 -0.0 -1.0
outer loop
vertex 2.384000000000001 -0.41500000000000004 0.0
vertex 2.384000000000001 -6.415 0.0
vertex -4.815999999999999 -0.41500000000000004 0.0
endloop
endfacet
facet normal -0.0 1.0 0.0
outer loop
vertex -4.815999999999999 -0.41500000000000004 0.0
vertex 2.384000000000001 -0.41500000000000004 19.28
vertex 2.384000000000001 -0.41500000000000004 0.0
endloop
endfacet
facet normal 0.9999999999999999 0.0 0.0
outer loop
vertex 2.384000000000001 -0.41500000000000004 0.0
vertex 2.384000000000001 -6.415 19.28
vertex 2.384000000000001 -6.415 0.0
endloop
endfacet
facet normal 0.9999999999999999 0.0 0.0
outer loop
vertex 2.384000000000001 -0.41500000000000004 19.28
vertex 2.384000000000001 -6.415 19.28
vertex 2.384000000000001 -0.41500000000000004 0.0
endloop
endfacet
facet normal -1.0 0.0 -0.0
outer loop
vertex -4.9559999999999995 -6.555 0.8
vertex -4.9559999999999995 -0.2749999999999999 0.8
vertex -4.9559999999999995 -6.555 0.0
endloop
endfacet
facet normal -0.0 -1.0 -0.0
outer loop
vertex 2.524000000000001 -6.555 0.0
vertex -4.9559999999999995 -6.555 0.8
vertex -4.9559999999999995 -6.555 0.0
endloop
endfacet
facet normal -1.0 0.0 0.0
outer loop
vertex -4.9559999999999995 -6.555 0.0
vertex -4.9559999999999995 -0.2749999999999999 0.8
vertex -4.9559999999999995 -0.2749999999999999 0.0
endloop
endfacet
facet normal -0.0 -0.0 -1.0
outer loop
vertex -4.9559999999999995 -0.2749999999999999 0.0
vertex 2.524000000000001 -6.555 0.0
vertex -4.9559999999999995 -6.555 0.0
endloop
endfacet
facet normal 0.0 -0.0 1.0
outer loop
vertex -4.9559999999999995 -6.555 0.8
vertex 2.524000000000001 -0.2749999999999999 0.8
vertex -4.9559999999999995 -0.2749999999999999 0.8
endloop
endfacet
facet normal -0.0 -1.0 -0.0
outer loop
vertex 2.524000000000001 -6.555 0.8
vertex -4.9559999999999995 -6.555 0.8
vertex 2.524000000000001 -6.555 0.0
endloop
endfacet
facet normal 0.0 -0.0 1.0
outer loop
vertex 2.524000000000001 -6.555 0.8
vertex 2.524000000000001 -0.2749999999999999 0.8
vertex -4.9559999999999995 -6.555 0.8
endloop
endfacet
facet normal -0.0 1.0 0.0
outer loop
vertex -4.9559999999999995 -0.2749999999999999 0.8
vertex 2.524000000000001 -0.2749999999999999 0.8
vertex -4.9559999999999995 -0.2749999999999999 0.0
endloop
endfacet
facet normal -0.0 -0.0 -1.0
outer loop
vertex 2.524000000000001 -0.2749999999999999 0.0
vertex 2.524000000000001 -6.555 0.0
vertex -4.9559999999999995 -0.2749999999999999 0.0
endloop
endfacet
facet normal -0.0 1.0 0.0
outer loop
vertex -4.9559999999999995 -0.2749999999999999 0.0
vertex 2.524000000000001 -0.2749999999999999 0.8
vertex 2.524000000000001 -0.2749999999999999 0.0
endloop
endfacet
facet normal 1.0 0.0 0.0
outer loop
vertex 2.524000000000001 -0.2749999999999999 0.0
vertex 2.524000000000001 -6.555 0.8
vertex 2.524000000000001 -6.555 0.0
endloop
endfacet
facet normal 1.0 0.0 0.0
outer loop
vertex 2.524000000000001 -0.2749999999999999 0.8
vertex 2.524000000000001 -6.555 0.8
vertex 2.524000000000001 -0.2749999999999999 0.0
endloop
endfacet
facet normal -1.0 0.0 -0.0
outer loop
vertex -5.065999999999999 -6.665 21.48
vertex -5.065999999999999 -0.16500000000000004 21.48
vertex -5.065999999999999 -6.665 19.28
endloop
endfacet
facet normal -0.0 -1.0 -0.0
outer loop
vertex 2.634000000000001 -6.665 19.28
vertex -5.065999999999999 -6.665 21.48
vertex -5.065999999999999 -6.665 19.28
endloop
endfacet
facet normal -1.0 0.0 0.0
outer loop
vertex -5.065999999999999 -6.665 19.28
vertex -5.065999999999999 -0.16500000000000004 21.48
vertex -5.065999999999999 -0.16500000000000004 19.28
endloop
endfacet
facet normal -0.0 -0.0 -0.9999999999999999
outer loop
vertex -5.065999999999999 -0.16500000000000004 19.28
vertex 2.634000000000001 -6.665 19.28
vertex -5.065999999999999 -6.665 19.28
endloop
endfacet
facet normal 0.0 -0.0 0.9999999999999999
outer loop
vertex -5.065999999999999 -6.665 21.48
vertex 2.634000000000001 -0.16500000000000004 21.48
vertex -5.065999999999999 -0.16500000000000004 21.48
endloop
endfacet
facet normal -0.0 -1.0 -0.0
outer loop
vertex 2.634000000000001 -6.665 21.48
vertex -5.065999999999999 -6.665 21.48
vertex 2.634000000000001 -6.665 19.28
endloop
endfacet
facet normal 0.0 -0.0 0.9999999999999999
outer loop
vertex 2.634000000000001 -6.665 21.48
vertex 2.634000000000001 -0.16500000000000004 21.48
vertex -5.065999999999999 -6.665 21.48
endloop
endfacet
facet normal -0.0 1.0 0.0
outer loop
vertex -5.065999999999999 -0.16500000000000004 21.48
vertex 2.634000000000001 -0.16500000000000004 21.48
vertex -5.065999999999999 -0.16500000000000004 19.28
endloop
endfacet
facet normal -0.0 -0.0 -0.9999999999999999
outer loop
vertex 2.634000000000001 -0.16500000000000004 19.28
vertex 2.634000000000001 -6.665 19.28
vertex -5.065999999999999 -0.16500000000000004 19.28
endloop
endfacet
facet normal -0.0 1.0 0.0
outer loop
vertex -5.065999999999999 -0.16500000000000004 19.28
vertex 2.634000000000001 -0.16500000000000004 21.48
vertex 2.634000000000001 -0.16500000000000004 19.28
endloop
endfacet
facet normal 1.0 0.0 0.0
outer loop
vertex 2.634000000000001 -0.16500000000000004 19.28
vertex 2.634000000000001 -6.665 21.48
vertex 2.634000000000001 -6.665 19.28
endloop
endfacet
facet normal 1.0 0.0 0.0
outer loop
vertex 2.634000000000001 -0.16500000000000004 21.48
vertex 2.634000000000001 -6.665 21.48
vertex 2.634000000000001 -0.16500000000000004 19.28
endloop
endfacet
facet normal 0.0 1.0 -0.0
outer loop
vertex -22.409999999999997 6.665 20.309
vertex -23.512999999999998 6.665 19.723
vertex -22.545 6.665 20.514
endloop
endfacet
facet normal 0.8351708648198666 0.0 0.5499905695155474
outer loop
vertex -22.409999999999997 6.665 20.309
vertex -22.545 6.665 20.514
vertex -22.409999999999997 0.5049999999999999 20.309
endloop
endfacet
facet normal 0.8351708648198666 0.0 0.5499905695155474
outer loop
vertex -22.409999999999997 0.5049999999999999 20.309
vertex -22.545 6.665 20.514
vertex -22.545 0.5049999999999999 20.514
endloop
endfacet
facet normal -0.0 -1.0 0.0
outer loop
vertex -22.409999999999997 0.5049999999999999 20.309
vertex -22.545 0.5049999999999999 20.514
vertex -23.512999999999998 0.5049999999999999 19.723
endloop
endfacet
facet normal 0.0 1.0 -0.0
outer loop
vertex -22.545 6.665 20.514
vertex -23.512999999999998 6.665 19.723
vertex -22.717999999999996 6.665 20.687
endloop
endfacet
facet normal 0.707106781186562 0.0 0.707106781186533
outer loop
vertex -22.545 6.665 20.514
vertex -22.717999999999996 6.665 20.687
vertex -22.545 0.5049999999999999 20.514
endloop
endfacet
facet normal 0.707106781186562 0.0 0.707106781186533
outer loop
vertex -22.545 0.5049999999999999 20.514
vertex -22.717999999999996 6.665 20.687
vertex -22.717999999999996 0.5049999999999999 20.687
endloop
endfacet
facet normal -0.0 -1.0 0.0
outer loop
vertex -22.545 0.5049999999999999 20.514
vertex -22.717999999999996 0.5049999999999999 20.687
vertex -23.512999999999998 0.5049999999999999 19.723
endloop
endfacet
facet normal 0.0 1.0 -0.0
outer loop
vertex -22.717999999999996 6.665 20.687
vertex -23.512999999999998 6.665 19.723
vertex -22.921999999999997 6.665 20.823
endloop
endfacet
facet normal 0.5547001962252257 0.0 0.8320502943378459
outer loop
vertex -22.717999999999996 6.665 20.687
vertex -22.921999999999997 6.665 20.823
vertex -22.717999999999996 0.5049999999999999 20.687
endloop
endfacet
facet normal 0.5547001962252257 0.0 0.8320502943378459
outer loop
vertex -22.717999999999996 0.5049999999999999 20.687
vertex -22.921999999999997 6.665 20.823
vertex -22.921999999999997 0.5049999999999999 20.823
endloop
endfacet
facet normal -0.0 -1.0 0.0
outer loop
vertex -22.717999999999996 0.5049999999999999 20.687
vertex -22.921999999999997 0.5049999999999999 20.823
vertex -23.512999999999998 0.5049999999999999 19.723
endloop
endfacet
facet normal 0.0 1.0 -0.0
outer loop
vertex -22.921999999999997 6.665 20.823
vertex -23.512999999999998 6.665 19.723
vertex -23.147999999999996 6.665 20.918
endloop
endfacet
facet normal 0.3875098589505113 0.0 0.9218655591875395
outer loop
vertex -22.921999999999997 6.665 20.823
vertex -23.147999999999996 6.665 20.918
vertex -22.921999999999997 0.5049999999999999 20.823
endloop
endfacet
facet normal 0.3875098589505113 0.0 0.9218655591875395
outer loop
vertex -22.921999999999997 0.5049999999999999 20.823
vertex -23.147999999999996 6.665 20.918
vertex -23.147999999999996 0.5049999999999999 20.918
endloop
endfacet
facet normal -0.0 -1.0 0.0
outer loop
vertex -22.921999999999997 0.5049999999999999 20.823
vertex -23.147999999999996 0.5049999999999999 20.918
vertex -23.512999999999998 0.5049999999999999 19.723
endloop
endfacet
facet normal 0.0 1.0 -0.0
outer loop
vertex -23.147999999999996 6.665 20.918
vertex -23.512999999999998 6.665 19.723
vertex -23.387999999999998 6.665 20.966
endloop
endfacet
facet normal 0.19611613513818962 0.0 0.9805806756909191
outer loop
vertex -23.147999999999996 6.665 20.918
vertex -23.387999999999998 6.665 20.966
vertex -23.147999999999996 0.5049999999999999 20.918
endloop
endfacet
facet normal 0.19611613513818962 0.0 0.9805806756909191
outer loop
vertex -23.147999999999996 0.5049999999999999 20.918
vertex -23.387999999999998 6.665 20.966
vertex -23.387999999999998 0.5049999999999999 20.966
endloop
endfacet
facet normal -0.0 -1.0 0.0
outer loop
vertex -23.147999999999996 0.5049999999999999 20.918
vertex -23.387999999999998 0.5049999999999999 20.966
vertex -23.512999999999998 0.5049999999999999 19.723
endloop
endfacet
facet normal 0.0 0.9999999999999999 0.0
outer loop
vertex -23.387999999999998 6.665 20.966
vertex -23.512999999999998 6.665 19.723
vertex -23.634 6.665 20.967
endloop
endfacet
facet normal 0.004065007064318342 0.0 0.9999917378246518
outer loop
vertex -23.387999999999998 6.665 20.966
vertex -23.634 6.665 20.967
vertex -23.387999999999998 0.5049999999999999 20.966
endloop
endfacet
facet normal 0.004065007064318342 0.0 0.9999917378246518
outer loop
vertex -23.387999999999998 0.5049999999999999 20.966
vertex -23.634 6.665 20.967
vertex -23.634 0.5049999999999999 20.967
endloop
endfacet
facet normal -0.0 -0.9999999999999999 -0.0
outer loop
vertex -23.387999999999998 0.5049999999999999 20.966
vertex -23.634 0.5049999999999999 20.967
vertex -23.512999999999998 0.5049999999999999 19.723
endloop
endfacet
facet normal 0.0 1.0 0.0
outer loop
vertex -23.634 6.665 20.967
vertex -23.512999999999998 6.665 19.723
vertex -23.874000000000002 6.665 20.92
endloop
endfacet
facet normal -0.1921828313510742 0.0 0.9813591388140658
outer loop
vertex -23.634 6.665 20.967
vertex -23.874000000000002 6.665 20.92
vertex -23.634 0.5049999999999999 20.967
endloop
endfacet
facet normal -0.1921828313510742 0.0 0.9813591388140658
outer loop
vertex -23.634 0.5049999999999999 20.967
vertex -23.874000000000002 6.665 20.92
vertex -23.874000000000002 0.5049999999999999 20.92
endloop
endfacet
facet normal 0.0 -1.0 -0.0
outer loop
vertex -23.634 0.5049999999999999 20.967
vertex -23.874000000000002 0.5049999999999999 20.92
vertex -23.512999999999998 0.5049999999999999 19.723
endloop
endfacet
facet normal 0.0 1.0 0.0
outer loop
vertex -23.874000000000002 6.665 20.92
vertex -23.512999999999998 6.665 19.723
vertex -24.1 6.665 20.826
endloop
endfacet
facet normal -0.3840351221308388 0.0 0.9233184851230651
outer loop
vertex -23.874000000000002 6.665 20.92
vertex -24.1 6.665 20.826
vertex -23.874000000000002 0.5049999999999999 20.92
endloop
endfacet
facet normal -0.3840351221308388 0.0 0.9233184851230651
outer loop
vertex -23.874000000000002 0.5049999999999999 20.92
vertex -24.1 6.665 20.826
vertex -24.1 0.5049999999999999 20.826
endloop
endfacet
facet normal 0.0 -1.0 -0.0
outer loop
vertex -23.874000000000002 0.5049999999999999 20.92
vertex -24.1 0.5049999999999999 20.826
vertex -23.512999999999998 0.5049999999999999 19.723
endloop
endfacet
facet normal 0.0 1.0 0.0
outer loop
vertex -24.1 6.665 20.826
vertex -23.512999999999998 6.665 19.723
vertex -24.304000000000002 6.665 20.691
endloop
endfacet
facet normal -0.5518669008484488 0.0 0.8339322057265378
outer loop
vertex -24.1 6.665 20.826
vertex -24.304000000000002 6.665 20.691
vertex -24.1 0.5049999999999999 20.826
endloop
endfacet
facet normal -0.5518669008484488 0.0 0.8339322057265378
outer loop
vertex -24.1 0.5049999999999999 20.826
vertex -24.304000000000002 6.665 20.691
vertex -24.304000000000002 0.5049999999999999 20.691
endloop
endfacet
facet normal 0.0 -1.0 -0.0
outer loop
vertex -24.1 0.5049999999999999 20.826
vertex -24.304000000000002 0.5049999999999999 20.691
vertex -23.512999999999998 0.5049999999999999 19.723
endloop
endfacet
facet normal 0.0 1.0 0.0
outer loop
vertex -24.304000000000002 6.665 20.691
vertex -23.512999999999998 6.665 19.723
vertex -24.478 6.665 20.518
endloop
endfacet
facet normal -0.705066081692482 0.0 0.7091416081762586
outer loop
vertex -24.304000000000002 6.665 20.691
vertex -24.478 6.665 20.518
vertex -24.304000000000002 0.5049999999999999 20.691
endloop
endfacet
facet normal -0.705066081692482 0.0 0.7091416081762586
outer loop
vertex -24.304000000000002 0.5049999999999999 20.691
vertex -24.478 6.665 20.518
vertex -24.478 0.5049999999999999 20.518
endloop
endfacet
facet normal 0.0 -1.0 -0.0
outer loop
vertex -24.304000000000002 0.5049999999999999 20.691
vertex -24.478 0.5049999999999999 20.518
vertex -23.512999999999998 0.5049999999999999 19.723
endloop
endfacet
facet normal 0.0 1.0 0.0
outer loop
vertex -24.478 6.665 20.518
vertex -23.512999999999998 6.665 19.723
vertex -24.613999999999997 6.665 20.314
endloop
endfacet
facet normal -0.8320502943378526 0.0 0.5547001962252157
outer loop
vertex -24.478 6.665 20.518
vertex -24.613999999999997 6.665 20.314
vertex -24.478 0.5049999999999999 20.518
endloop
endfacet
facet normal -0.8320502943378526 0.0 0.5547001962252157
outer loop
vertex -24.478 0.5049999999999999 20.518
vertex -24.613999999999997 6.665 20.314
vertex -24.613999999999997 0.5049999999999999 20.314
endloop
endfacet
facet normal 0.0 -1.0 -0.0
outer loop
vertex -24.478 0.5049999999999999 20.518
vertex -24.613999999999997 0.5049999999999999 20.314
vertex -23.512999999999998 0.5049999999999999 19.723
endloop
endfacet
facet normal 0.0 1.0 0.0
outer loop
vertex -24.613999999999997 6.665 20.314
vertex -23.512999999999998 6.665 19.723
vertex -24.708999999999996 6.665 20.088
endloop
endfacet
facet normal -0.9218655591875395 0.0 0.3875098589505113
outer loop
vertex -24.613999999999997 6.665 20.314
vertex -24.708999999999996 6.665 20.088
vertex -24.613999999999997 0.5049999999999999 20.314
endloop
endfacet
facet normal -0.9218655591875395 0.0 0.3875098589505113
outer loop
vertex -24.613999999999997 0.5049999999999999 20.314
vertex -24.708999999999996 6.665 20.088
vertex -24.708999999999996 0.5049999999999999 20.088
endloop
endfacet
facet normal 0.0 -1.0 -0.0
outer loop
vertex -24.613999999999997 0.5049999999999999 20.314
vertex -24.708999999999996 0.5049999999999999 20.088
vertex -23.512999999999998 0.5049999999999999 19.723
endloop
endfacet
facet normal 0.0 1.0 0.0
outer loop
vertex -24.708999999999996 6.665 20.088
vertex -23.512999999999998 6.665 19.723
vertex -24.756999999999998 6.665 19.848
endloop
endfacet
facet normal -0.9805806756909191 0.0 0.19611613513818962
outer loop
vertex -24.708999999999996 6.665 20.088
vertex -24.756999999999998 6.665 19.848
vertex -24.708999999999996 0.5049999999999999 20.088
endloop
endfacet
facet normal -0.9805806756909191 0.0 0.19611613513818962
outer loop
vertex -24.708999999999996 0.5049999999999999 20.088
vertex -24.756999999999998 6.665 19.848
vertex -24.756999999999998 0.5049999999999999 19.848
endloop
endfacet
facet normal 0.0 -1.0 -0.0
outer loop
vertex -24.708999999999996 0.5049999999999999 20.088
vertex -24.756999999999998 0.5049999999999999 19.848
vertex -23.512999999999998 0.5049999999999999 19.723
endloop
endfacet
facet normal 0.0 1.0 0.0
outer loop
vertex -24.756999999999998 6.665 19.848
vertex -23.512999999999998 6.665 19.723
vertex -24.758000000000003 6.665 19.602
endloop
endfacet
facet normal -0.9999917378246517 0.0 0.004065007064347284
outer loop
vertex -24.756999999999998 6.665 19.848
vertex -24.758000000000003 6.665 19.602
vertex -24.756999999999998 0.5049999999999999 19.848
endloop
endfacet
facet normal -0.9999917378246517 0.0 0.004065007064347284
outer loop
vertex -24.756999999999998 0.5049999999999999 19.848
vertex -24.758000000000003 6.665 19.602
vertex -24.758000000000003 0.5049999999999999 19.602
endloop
endfacet
facet normal 0.0 -1.0 -0.0
outer loop
vertex -24.756999999999998 0.5049999999999999 19.848
vertex -24.758000000000003 0.5049999999999999 19.602
vertex -23.512999999999998 0.5049999999999999 19.723
endloop
endfacet
facet normal -0.0 1.0 0.0
outer loop
vertex -24.758000000000003 6.665 19.602
vertex -23.512999999999998 6.665 19.723
vertex -24.71 6.665 19.362
endloop
endfacet
facet normal -0.9805806756909191 0.0 -0.19611613513818962
outer loop
vertex -24.758000000000003 6.665 19.602
vertex -24.71 6.665 19.362
vertex -24.758000000000003 0.5049999999999999 19.602
endloop
endfacet
facet normal -0.9805806756909191 -0.0 -0.19611613513818962
outer loop
vertex -24.758000000000003 0.5049999999999999 19.602
vertex -24.71 6.665 19.362
vertex -24.71 0.5049999999999999 19.362
endloop
endfacet
facet normal 0.0 -1.0 0.0
outer loop
vertex -24.758000000000003 0.5049999999999999 19.602
vertex -24.71 0.5049999999999999 19.362
vertex -23.512999999999998 0.5049999999999999 19.723
endloop
endfacet
facet normal -0.0 1.0 0.0
outer loop
vertex -24.71 6.665 19.362
vertex -23.512999999999998 6.665 19.723
vertex -24.616999999999997 6.665 19.136
endloop
endfacet
facet normal -0.9247628184599646 0.0 -0.38054399166716946
outer loop
vertex -24.71 6.665 19.362
vertex -24.616999999999997 6.665 19.136
vertex -24.71 0.5049999999999999 19.362
endloop
endfacet
facet normal -0.9247628184599646 -0.0 -0.38054399166716946
outer loop
vertex -24.71 0.5049999999999999 19.362
vertex -24.616999999999997 6.665 19.136
vertex -24.616999999999997 0.5049999999999999 19.136
endloop
endfacet
facet normal 0.0 -1.0 0.0
outer loop
vertex -24.71 0.5049999999999999 19.362
vertex -24.616999999999997 0.5049999999999999 19.136
vertex -23.512999999999998 0.5049999999999999 19.723
endloop
endfacet
facet normal -0.0 1.0 0.0
outer loop
vertex -24.616999999999997 6.665 19.136
vertex -23.512999999999998 6.665 19.723
vertex -24.481 6.665 18.932
endloop
endfacet
facet normal -0.8320502943378526 0.0 -0.5547001962252157
outer loop
vertex -24.616999999999997 6.665 19.136
vertex -24.481 6.665 18.932
vertex -24.616999999999997 0.5049999999999999 19.136
endloop
endfacet
facet normal -0.8320502943378526 -0.0 -0.5547001962252157
outer loop
vertex -24.616999999999997 0.5049999999999999 19.136
vertex -24.481 6.665 18.932
vertex -24.481 0.5049999999999999 18.932
endloop
endfacet
facet normal 0.0 -1.0 0.0
outer loop
vertex -24.616999999999997 0.5049999999999999 19.136
vertex -24.481 0.5049999999999999 18.932
vertex -23.512999999999998 0.5049999999999999 19.723
endloop
endfacet
facet normal -0.0 0.9999999999999999 0.0
outer loop
vertex -24.481 6.665 18.932
vertex -23.512999999999998 6.665 19.723
vertex -24.308999999999997 6.665 18.758
endloop
endfacet
facet normal -0.7111822225646072 0.0 -0.703007714259286
outer loop
vertex -24.481 6.665 18.932
vertex -24.308999999999997 6.665 18.758
vertex -24.481 0.5049999999999999 18.932
endloop
endfacet
facet normal -0.7111822225646072 -0.0 -0.703007714259286
outer loop
vertex -24.481 0.5049999999999999 18.932
vertex -24.308999999999997 6.665 18.758
vertex -24.308999999999997 0.5049999999999999 18.758
endloop
endfacet
facet normal 0.0 -1.0 0.0
outer loop
vertex -24.481 0.5049999999999999 18.932
vertex -24.308999999999997 0.5049999999999999 18.758
vertex -23.512999999999998 0.5049999999999999 19.723
endloop
endfacet
facet normal -0.0 1.0 0.0
outer loop
vertex -24.308999999999997 6.665 18.758
vertex -23.512999999999998 6.665 19.723
vertex -24.104999999999997 6.665 18.622
endloop
endfacet
facet normal -0.5547001962252257 0.0 -0.8320502943378459
outer loop
vertex -24.308999999999997 6.665 18.758
vertex -24.104999999999997 6.665 18.622
vertex -24.308999999999997 0.5049999999999999 18.758
endloop
endfacet
facet normal -0.5547001962252257 -0.0 -0.8320502943378459
outer loop
vertex -24.308999999999997 0.5049999999999999 18.758
vertex -24.104999999999997 6.665 18.622
vertex -24.104999999999997 0.5049999999999999 18.622
endloop
endfacet
facet normal 0.0 -1.0 0.0
outer loop
vertex -24.308999999999997 0.5049999999999999 18.758
vertex -24.104999999999997 0.5049999999999999 18.622
vertex -23.512999999999998 0.5049999999999999 19.723
endloop
endfacet
facet normal -0.0 1.0 0.0
outer loop
vertex -24.104999999999997 6.665 18.622
vertex -23.512999999999998 6.665 19.723
vertex -23.878999999999998 6.665 18.527
endloop
endfacet
facet normal -0.3875098589505113 0.0 -0.9218655591875395
outer loop
vertex -24.104999999999997 6.665 18.622
vertex -23.878999999999998 6.665 18.527
vertex -24.104999999999997 0.5049999999999999 18.622
endloop
endfacet
facet normal -0.3875098589505113 -0.0 -0.9218655591875395
outer loop
vertex -24.104999999999997 0.5049999999999999 18.622
vertex -23.878999999999998 6.665 18.527
vertex -23.878999999999998 0.5049999999999999 18.527
endloop
endfacet
facet normal 0.0 -0.9999999999999999 0.0
outer loop
vertex -24.104999999999997 0.5049999999999999 18.622
vertex -23.878999999999998 0.5049999999999999 18.527
vertex -23.512999999999998 0.5049999999999999 19.723
endloop
endfacet
facet normal -0.0 1.0 0.0
outer loop
vertex -23.878999999999998 6.665 18.527
vertex -23.512999999999998 6.665 19.723
vertex -23.637999999999998 6.665 18.479
endloop
endfacet
facet normal -0.1953334865970885 0.0 -0.9807368806228433
outer loop
vertex -23.878999999999998 6.665 18.527
vertex -23.637999999999998 6.665 18.479
vertex -23.878999999999998 0.5049999999999999 18.527
endloop
endfacet
facet normal -0.1953334865970885 -0.0 -0.9807368806228433
outer loop
vertex -23.878999999999998 0.5049999999999999 18.527
vertex -23.637999999999998 6.665 18.479
vertex -23.637999999999998 0.5049999999999999 18.479
endloop
endfacet
facet normal 0.0 -1.0 0.0
outer loop
vertex -23.878999999999998 0.5049999999999999 18.527
vertex -23.637999999999998 0.5049999999999999 18.479
vertex -23.512999999999998 0.5049999999999999 19.723
endloop
endfacet
facet normal -0.0 1.0 0.0
outer loop
vertex -23.637999999999998 6.665 18.479
vertex -23.512999999999998 6.665 19.723
vertex -23.393 6.665 18.478
endloop
endfacet
facet normal -0.0040815986540375555 0.0 -0.9999916702415212
outer loop
vertex -23.637999999999998 6.665 18.479
vertex -23.393 6.665 18.478
vertex -23.637999999999998 0.5049999999999999 18.479
endloop
endfacet
facet normal -0.0040815986540375555 -0.0 -0.9999916702415212
outer loop
vertex -23.637999999999998 0.5049999999999999 18.479
vertex -23.393 6.665 18.478
vertex -23.393 0.5049999999999999 18.478
endloop
endfacet
facet normal 0.0 -1.0 0.0
outer loop
vertex -23.637999999999998 0.5049999999999999 18.479
vertex -23.393 0.5049999999999999 18.478
vertex -23.512999999999998 0.5049999999999999 19.723
endloop
endfacet
facet normal -0.0 1.0 -0.0
outer loop
vertex -23.393 6.665 18.478
vertex -23.512999999999998 6.665 19.723
vertex -23.153 6.665 18.526
endloop
endfacet
facet normal 0.19611613513817566 0.0 -0.9805806756909219
outer loop
vertex -23.393 6.665 18.478
vertex -23.153 6.665 18.526
vertex -23.393 0.5049999999999999 18.478
endloop
endfacet
facet normal 0.19611613513817566 0.0 -0.9805806756909219
outer loop
vertex -23.393 0.5049999999999999 18.478
vertex -23.153 6.665 18.526
vertex -23.153 0.5049999999999999 18.526
endloop
endfacet
facet normal 0.0 -1.0 0.0
outer loop
vertex -23.393 0.5049999999999999 18.478
vertex -23.153 0.5049999999999999 18.526
vertex -23.512999999999998 0.5049999999999999 19.723
endloop
endfacet
facet normal -0.0 1.0 -0.0
outer loop
vertex -23.153 6.665 18.526
vertex -23.512999999999998 6.665 19.723
vertex -22.927 6.665 18.619
endloop
endfacet
facet normal 0.380543991667157 0.0 -0.9247628184599697
outer loop
vertex -23.153 6.665 18.526
vertex -22.927 6.665 18.619
vertex -23.153 0.5049999999999999 18.526
endloop
endfacet
facet normal 0.380543991667157 0.0 -0.9247628184599697
outer loop
vertex -23.153 0.5049999999999999 18.526
vertex -22.927 6.665 18.619
vertex -22.927 0.5049999999999999 18.619
endloop
endfacet
facet normal 0.0 -0.9999999999999999 0.0
outer loop
vertex -23.153 0.5049999999999999 18.526
vertex -22.927 0.5049999999999999 18.619
vertex -23.512999999999998 0.5049999999999999 19.723
endloop
endfacet
facet normal -0.0 1.0 -0.0
outer loop
vertex -22.927 6.665 18.619
vertex -23.512999999999998 6.665 19.723
vertex -22.722 6.665 18.755
endloop
endfacet
facet normal 0.5528226910539129 0.0 -0.8332989093092047
outer loop
vertex -22.927 6.665 18.619
vertex -22.722 6.665 18.755
vertex -22.927 0.5049999999999999 18.619
endloop
endfacet
facet normal 0.5528226910539129 0.0 -0.8332989093092047
outer loop
vertex -22.927 0.5049999999999999 18.619
vertex -22.722 6.665 18.755
vertex -22.722 0.5049999999999999 18.755
endloop
endfacet
facet normal 0.0 -1.0 0.0
outer loop
vertex -22.927 0.5049999999999999 18.619
vertex -22.722 0.5049999999999999 18.755
vertex -23.512999999999998 0.5049999999999999 19.723
endloop
endfacet
facet normal -0.0 1.0 -0.0
outer loop
vertex -22.722 6.665 18.755
vertex -23.512999999999998 6.665 19.723
vertex -22.549 6.665 18.927
endloop
endfacet
facet normal 0.7050542345292362 0.0 -0.709153387055574
outer loop
vertex -22.722 6.665 18.755
vertex -22.549 6.665 18.927
vertex -22.722 0.5049999999999999 18.755
endloop
endfacet
facet normal 0.7050542345292362 0.0 -0.709153387055574
outer loop
vertex -22.722 0.5049999999999999 18.755
vertex -22.549 6.665 18.927
vertex -22.549 0.5049999999999999 18.927
endloop
endfacet
facet normal 0.0 -1.0 0.0
outer loop
vertex -22.722 0.5049999999999999 18.755
vertex -22.549 0.5049999999999999 18.927
vertex -23.512999999999998 0.5049999999999999 19.723
endloop
endfacet
facet normal -0.0 1.0 -0.0
outer loop
vertex -22.549 6.665 18.927
vertex -23.512999999999998 6.665 19.723
vertex -22.412999999999997 6.665 19.131
endloop
endfacet
facet normal 0.8320502943378393 0.0 -0.5547001962252358
outer loop
vertex -22.549 6.665 18.927
vertex -22.412999999999997 6.665 19.131
vertex -22.549 0.5049999999999999 18.927
endloop
endfacet
facet normal 0.8320502943378393 0.0 -0.5547001962252358
outer loop
vertex -22.549 0.5049999999999999 18.927
vertex -22.412999999999997 6.665 19.131
vertex -22.412999999999997 0.5049999999999999 19.131
endloop
endfacet
facet normal 0.0 -1.0 0.0
outer loop
vertex -22.549 0.5049999999999999 18.927
vertex -22.412999999999997 0.5049999999999999 19.131
vertex -23.512999999999998 0.5049999999999999 19.723
endloop
endfacet
facet normal -0.0 1.0 -0.0
outer loop
vertex -22.412999999999997 6.665 19.131
vertex -23.512999999999998 6.665 19.723
vertex -22.317999999999998 6.665 19.357
endloop
endfacet
facet normal 0.9218655591875395 0.0 -0.3875098589505113
outer loop
vertex -22.412999999999997 6.665 19.131
vertex -22.317999999999998 6.665 19.357
vertex -22.412999999999997 0.5049999999999999 19.131
endloop
endfacet
facet normal 0.9218655591875395 0.0 -0.3875098589505113
outer loop
vertex -22.412999999999997 0.5049999999999999 19.131
vertex -22.317999999999998 6.665 19.357
vertex -22.317999999999998 0.5049999999999999 19.357
endloop
endfacet
facet normal 0.0 -1.0 0.0
outer loop
vertex -22.412999999999997 0.5049999999999999 19.131
vertex -22.317999999999998 0.5049999999999999 19.357
vertex -23.512999999999998 0.5049999999999999 19.723
endloop
endfacet
facet normal -0.0 0.9999999999999999 -0.0
outer loop
vertex -22.317999999999998 6.665 19.357
vertex -23.512999999999998 6.665 19.723
vertex -22.269999999999996 6.665 19.598
endloop
endfacet
facet normal 0.9807368806228433 0.0 -0.1953334865970885
outer loop
vertex -22.317999999999998 6.665 19.357
vertex -22.269999999999996 6.665 19.598
vertex -22.317999999999998 0.5049999999999999 19.357
endloop
endfacet
facet normal 0.9807368806228433 0.0 -0.1953334865970885
outer loop
vertex -22.317999999999998 0.5049999999999999 19.357
vertex -22.269999999999996 6.665 19.598
vertex -22.269999999999996 0.5049999999999999 19.598
endloop
endfacet
facet normal 0.0 -0.9999999999999999 0.0
outer loop
vertex -22.317999999999998 0.5049999999999999 19.357
vertex -22.269999999999996 0.5049999999999999 19.598
vertex -23.512999999999998 0.5049999999999999 19.723
endloop
endfacet
facet normal 0.0 0.9999999999999999 -0.0
outer loop
vertex -22.269999999999996 6.665 19.598
vertex -23.512999999999998 6.665 19.723
vertex -22.269 6.665 19.843
endloop
endfacet
facet normal 0.9999916702415212 0.0 -0.0040815986540374966
outer loop
vertex -22.269999999999996 6.665 19.598
vertex -22.269 6.665 19.843
vertex -22.269999999999996 0.5049999999999999 19.598
endloop
endfacet
facet normal 0.9999916702415212 0.0 -0.0040815986540374966
outer loop
vertex -22.269999999999996 0.5049999999999999 19.598
vertex -22.269 6.665 19.843
vertex -22.269 0.5049999999999999 19.843
endloop
endfacet
facet normal -0.0 -1.0 0.0
outer loop
vertex -22.269999999999996 0.5049999999999999 19.598
vertex -22.269 0.5049999999999999 19.843
vertex -23.512999999999998 0.5049999999999999 19.723
endloop
endfacet
facet normal 0.0 1.0 -0.0
outer loop
vertex -22.269 6.665 19.843
vertex -23.512999999999998 6.665 19.723
vertex -22.316000000000003 6.665 20.083
endloop
endfacet
facet normal 0.9813591388140597 0.0 0.19218283135110492
outer loop
vertex -22.269 6.665 19.843
vertex -22.316000000000003 6.665 20.083
vertex -22.269 0.5049999999999999 19.843
endloop
endfacet
facet normal 0.9813591388140597 0.0 0.19218283135110492
outer loop
vertex -22.269 0.5049999999999999 19.843
vertex -22.316000000000003 6.665 20.083
vertex -22.316000000000003 0.5049999999999999 20.083
endloop
endfacet
facet normal -0.0 -1.0 0.0
outer loop
vertex -22.269 0.5049999999999999 19.843
vertex -22.316000000000003 0.5049999999999999 20.083
vertex -23.512999999999998 0.5049999999999999 19.723
endloop
endfacet
facet normal 0.0 1.0 -0.0
outer loop
vertex -22.316000000000003 6.665 20.083
vertex -23.512999999999998 6.665 19.723
vertex -22.409999999999997 6.665 20.309
endloop
endfacet
facet normal 0.9233184851230776 0.0 0.3840351221308089
outer loop
vertex -22.316000000000003 6.665 20.083
vertex -22.409999999999997 6.665 20.309
vertex -22.316000000000003 0.5049999999999999 20.083
endloop
endfacet
facet normal 0.9233184851230776 0.0 0.3840351221308089
outer loop
vertex -22.316000000000003 0.5049999999999999 20.083
vertex -22.409999999999997 6.665 20.309
vertex -22.409999999999997 0.5049999999999999 20.309
endloop
endfacet
facet normal -0.0 -1.0 0.0
outer loop
vertex -22.316000000000003 0.5049999999999999 20.083
vertex -22.409999999999997 0.5049999999999999 20.309
vertex -23.512999999999998 0.5049999999999999 19.723
endloop
endfacet
facet normal -0.8830266997646768 0.0 -0.4693227540858246
outer loop
vertex -20.141 -4.105 5.456
vertex -20.141 -2.725 5.456
vertex -19.39 -4.105 4.043
endloop
endfacet
facet normal 0.0 -1.0 -0.0
outer loop
vertex 24.758000000000003 -4.105 27.517
vertex -20.141 -4.105 5.456
vertex -19.39 -4.105 4.043
endloop
endfacet
facet normal -0.8830266997646768 0.0 -0.4693227540858246
outer loop
vertex -19.39 -4.105 4.043
vertex -20.141 -2.725 5.456
vertex -19.39 -2.725 4.043
endloop
endfacet
facet normal 0.46947299739299586 0.0 -0.8829468300633033
outer loop
vertex -19.39 -2.725 4.043
vertex 24.758000000000003 -4.105 27.517
vertex -19.39 -4.105 4.043
endloop
endfacet
facet normal -0.46947299739299597 0.0 0.8829468300633034
outer loop
vertex -20.141 -4.105 5.456
vertex 24.006999999999998 -2.725 28.93
vertex -20.141 -2.725 5.456
endloop
endfacet
facet normal 0.0 -1.0 -0.0
outer loop
vertex 24.006999999999998 -4.105 28.93
vertex -20.141 -4.105 5.456
vertex 24.758000000000003 -4.105 27.517
endloop
endfacet
facet normal -0.46947299739299597 0.0 0.8829468300633034
outer loop
vertex 24.006999999999998 -4.105 28.93
vertex 24.006999999999998 -2.725 28.93
vertex -20.141 -4.105 5.456
endloop
endfacet
facet normal -0.0 1.0 0.0
outer loop
vertex -20.141 -2.725 5.456
vertex 24.006999999999998 -2.725 28.93
vertex -19.39 -2.725 4.043
endloop
endfacet
facet normal 0.46947299739299586 0.0 -0.8829468300633033
outer loop
vertex 24.758000000000003 -2.725 27.517
vertex 24.758000000000003 -4.105 27.517
vertex -19.39 -2.725 4.043
endloop
endfacet
facet normal -0.0 1.0 0.0
outer loop
vertex -19.39 -2.725 4.043
vertex 24.006999999999998 -2.725 28.93
vertex 24.758000000000003 -2.725 27.517
endloop
endfacet
facet normal 0.883026699764675 0.0 0.46932275408582796
outer loop
vertex 24.758000000000003 -2.725 27.517
vertex 24.006999999999998 -4.105 28.93
vertex 24.758000000000003 -4.105 27.517
endloop
endfacet
facet normal 0.883026699764675 0.0 0.46932275408582796
outer loop
vertex 24.006999999999998 -2.725 28.93
vertex 24.006999999999998 -4.105 28.93
vertex 24.758000000000003 -2.725 27.517
endloop
endfacet
facet normal -0.8829473558333157 0.0 -0.4694720085659594
outer loop
vertex 22.936 -4.1850000000000005 28.813
vertex 22.936 -2.645 28.813
vertex 23.875 -4.1850000000000005 27.047
endloop
endfacet
facet normal -0.0 -1.0 -0.0
outer loop
vertex 24.758000000000003 -4.1850000000000005 27.517
vertex 22.936 -4.1850000000000005 28.813
vertex 23.875 -4.1850000000000005 27.047
endloop
endfacet
facet normal -0.8829473558333157 0.0 -0.4694720085659594
outer loop
vertex 23.875 -4.1850000000000005 27.047
vertex 22.936 -2.645 28.813
vertex 23.875 -2.645 27.047
endloop
endfacet
facet normal 0.46986164611482784 0.0 -0.8827400713178623
outer loop
vertex 23.875 -2.645 27.047
vertex 24.758000000000003 -4.1850000000000005 27.517
vertex 23.875 -4.1850000000000005 27.047
endloop
endfacet
facet normal -0.46986164611483067 0.0 0.8827400713178607
outer loop
vertex 22.936 -4.1850000000000005 28.813
vertex 23.819000000000003 -2.645 29.283
vertex 22.936 -2.645 28.813
endloop
endfacet
facet normal 0.0 -1.0 -0.0
outer loop
vertex 23.819000000000003 -4.1850000000000005 29.283
vertex 22.936 -4.1850000000000005 28.813
vertex 24.758000000000003 -4.1850000000000005 27.517
endloop
endfacet
facet normal -0.46986164611483067 0.0 0.8827400713178607
outer loop
vertex 23.819000000000003 -4.1850000000000005 29.283
vertex 23.819000000000003 -2.645 29.283
vertex 22.936 -4.1850000000000005 28.813
endloop
endfacet
facet normal -0.0 1.0 0.0
outer loop
vertex 22.936 -2.645 28.813
vertex 23.819000000000003 -2.645 29.283
vertex 23.875 -2.645 27.047
endloop
endfacet
facet normal 0.46986164611482784 0.0 -0.8827400713178623
outer loop
vertex 24.758000000000003 -2.645 27.517
vertex 24.758000000000003 -4.1850000000000005 27.517
vertex 23.875 -2.645 27.047
endloop
endfacet
facet normal -0.0 1.0 -0.0
outer loop
vertex 23.875 -2.645 27.047
vertex 23.819000000000003 -2.645 29.283
vertex 24.758000000000003 -2.645 27.517
endloop
endfacet
facet normal 0.8829473558333161 0.0 0.46947200856595867
outer loop
vertex 24.758000000000003 -2.645 27.517
vertex 23.819000000000003 -4.1850000000000005 29.283
vertex 24.758000000000003 -4.1850000000000005 27.517
endloop
endfacet
facet normal 0.8829473558333161 0.0 0.46947200856595867
outer loop
vertex 23.819000000000003 -2.645 29.283
vertex 23.819000000000003 -4.1850000000000005 29.283
vertex 24.758000000000003 -2.645 27.517
endloop
endfacet
facet normal -0.8826296457507835 0.0 -0.47006904646216213
outer loop
vertex -18.650999999999996 -3.843 6.701
vertex -18.650999999999996 -2.987 6.701
vertex -18.463 -3.843 6.348
endloop
endfacet
facet normal 0.0 -1.0 -0.0
outer loop
vertex -12.988999999999999 -3.843 9.259
vertex -18.650999999999996 -3.843 6.701
vertex -18.463 -3.843 6.348
endloop
endfacet
facet normal -0.8826296457507835 0.0 -0.47006904646216213
outer loop
vertex -18.463 -3.843 6.348
vertex -18.650999999999996 -2.987 6.701
vertex -18.463 -2.987 6.348
endloop
endfacet
facet normal 0.4695246975697394 0.0 -0.8829193385423407
outer loop
vertex -18.463 -2.987 6.348
vertex -12.988999999999999 -3.843 9.259
vertex -18.463 -3.843 6.348
endloop
endfacet
facet normal -0.4695246975697398 0.0 0.8829193385423406
outer loop
vertex -18.650999999999996 -3.843 6.701
vertex -13.177 -2.987 9.612
vertex -18.650999999999996 -2.987 6.701
endloop
endfacet
facet normal 0.0 -0.9999999999999999 -0.0
outer loop
vertex -13.177 -3.843 9.612
vertex -18.650999999999996 -3.843 6.701
vertex -12.988999999999999 -3.843 9.259
endloop
endfacet
facet normal -0.4695246975697398 0.0 0.8829193385423406
outer loop
vertex -13.177 -3.843 9.612
vertex -13.177 -2.987 9.612
vertex -18.650999999999996 -3.843 6.701
endloop
endfacet
facet normal -0.0 1.0 0.0
outer loop
vertex -18.650999999999996 -2.987 6.701
vertex -13.177 -2.987 9.612
vertex -18.463 -2.987 6.348
endloop
endfacet
facet normal 0.4695246975697394 0.0 -0.8829193385423407
outer loop
vertex -12.988999999999999 -2.987 9.259
vertex -12.988999999999999 -3.843 9.259
vertex -18.463 -2.987 6.348
endloop
endfacet
facet normal -0.0 1.0 0.0
outer loop
vertex -18.463 -2.987 6.348
vertex -13.177 -2.987 9.612
vertex -12.988999999999999 -2.987 9.259
endloop
endfacet
facet normal 0.882629645750778 0.0 0.4700690464621725
outer loop
vertex -12.988999999999999 -2.987 9.259
vertex -13.177 -3.843 9.612
vertex -12.988999999999999 -3.843 9.259
endloop
endfacet
facet normal 0.882629645750778 0.0 0.4700690464621725
outer loop
vertex -13.177 -2.987 9.612
vertex -13.177 -3.843 9.612
vertex -12.988999999999999 -2.987 9.259
endloop
endfacet
facet normal -0.882629645750778 0.0 -0.4700690464621725
outer loop
vertex -8.939 -3.843 11.865
vertex -8.939 -2.987 11.865
vertex -8.751 -3.843 11.512
endloop
endfacet
facet normal 0.0 -1.0 -0.0
outer loop
vertex -3.2769999999999992 -3.843 14.423
vertex -8.939 -3.843 11.865
vertex -8.751 -3.843 11.512
endloop
endfacet
facet normal -0.882629645750778 0.0 -0.4700690464621725
outer loop
vertex -8.751 -3.843 11.512
vertex -8.939 -2.987 11.865
vertex -8.751 -2.987 11.512
endloop
endfacet
facet normal 0.46952469756973947 0.0 -0.882919338542341
outer loop
vertex -8.751 -2.987 11.512
vertex -3.2769999999999992 -3.843 14.423
vertex -8.751 -3.843 11.512
endloop
endfacet
facet normal -0.46945784122838247 0.0 0.8829548886037083
outer loop
vertex -8.939 -3.843 11.865
vertex -3.4639999999999995 -2.987 14.776
vertex -8.939 -2.987 11.865
endloop
endfacet
facet normal 0.0 -1.0 -0.0
outer loop
vertex -3.4639999999999995 -3.843 14.776
vertex -8.939 -3.843 11.865
vertex -3.2769999999999992 -3.843 14.423
endloop
endfacet
facet normal -0.46945784122838247 0.0 0.8829548886037083
outer loop
vertex -3.4639999999999995 -3.843 14.776
vertex -3.4639999999999995 -2.987 14.776
vertex -8.939 -3.843 11.865
endloop
endfacet
facet normal -0.0 1.0 0.0
outer loop
vertex -8.939 -2.987 11.865
vertex -3.4639999999999995 -2.987 14.776
vertex -8.751 -2.987 11.512
endloop
endfacet
facet normal 0.46952469756973947 0.0 -0.882919338542341
outer loop
vertex -3.2769999999999992 -2.987 14.423
vertex -3.2769999999999992 -3.843 14.423
vertex -8.751 -2.987 11.512
endloop
endfacet
facet normal -0.0 1.0 0.0
outer loop
vertex -8.751 -2.987 11.512
vertex -3.4639999999999995 -2.987 14.776
vertex -3.2769999999999992 -2.987 14.423
endloop
endfacet
facet normal 0.8836661040823004 0.0 0.46811773785663036
outer loop
vertex -3.2769999999999992 -2.987 14.423
vertex -3.4639999999999995 -3.843 14.776
vertex -3.2769999999999992 -3.843 14.423
endloop
endfacet
facet normal 0.8836661040823004 0.0 0.46811773785663036
outer loop
vertex -3.4639999999999995 -2.987 14.776
vertex -3.4639999999999995 -3.843 14.776
vertex -3.2769999999999992 -2.987 14.423
endloop
endfacet
facet normal -0.8826296457507795 0.0 -0.4700690464621694
outer loop
vertex 0.7740000000000007 -3.843 17.029
vertex 0.7740000000000007 -2.987 17.029
vertex 0.9620000000000006 -3.843 16.676
endloop
endfacet
facet normal 0.0 -1.0 -0.0
outer loop
vertex 6.436000000000001 -3.843 19.587
vertex 0.7740000000000007 -3.843 17.029
vertex 0.9620000000000006 -3.843 16.676
endloop
endfacet
facet normal -0.8826296457507795 0.0 -0.4700690464621694
outer loop
vertex 0.9620000000000006 -3.843 16.676
vertex 0.7740000000000007 -2.987 17.029
vertex 0.9620000000000006 -2.987 16.676
endloop
endfacet
facet normal 0.4695246975697397 0.0 -0.8829193385423408
outer loop
vertex 0.9620000000000006 -2.987 16.676
vertex 6.436000000000001 -3.843 19.587
vertex 0.9620000000000006 -3.843 16.676
endloop
endfacet
facet normal -0.4695246975697397 0.0 0.8829193385423408
outer loop
vertex 0.7740000000000007 -3.843 17.029
vertex 6.248000000000001 -2.987 19.94
vertex 0.7740000000000007 -2.987 17.029
endloop
endfacet
facet normal 0.0 -0.9999999999999999 -0.0
outer loop
vertex 6.248000000000001 -3.843 19.94
vertex 0.7740000000000007 -3.843 17.029
vertex 6.436000000000001 -3.843 19.587
endloop
endfacet
facet normal -0.4695246975697397 0.0 0.8829193385423408
outer loop
vertex 6.248000000000001 -3.843 19.94
vertex 6.248000000000001 -2.987 19.94
vertex 0.7740000000000007 -3.843 17.029
endloop
endfacet
facet normal -0.0 1.0 0.0
outer loop
vertex 0.7740000000000007 -2.987 17.029
vertex 6.248000000000001 -2.987 19.94
vertex 0.9620000000000006 -2.987 16.676
endloop
endfacet
facet normal 0.4695246975697397 0.0 -0.8829193385423408
outer loop
vertex 6.436000000000001 -2.987 19.587
vertex 6.436000000000001 -3.843 19.587
vertex 0.9620000000000006 -2.987 16.676
endloop
endfacet
facet normal -0.0 1.0 0.0
outer loop
vertex 0.9620000000000006 -2.987 16.676
vertex 6.248000000000001 -2.987 19.94
vertex 6.436000000000001 -2.987 19.587
endloop
endfacet
facet normal 0.88262964575078 0.0 0.470069046462169
outer loop
vertex 6.436000000000001 -2.987 19.587
vertex 6.248000000000001 -3.843 19.94
vertex 6.436000000000001 -3.843 19.587
endloop
endfacet
facet normal 0.88262964575078 0.0 0.470069046462169
outer loop
vertex 6.248000000000001 -2.987 19.94
vertex 6.248000000000001 -3.843 19.94
vertex 6.436000000000001 -2.987 19.587
endloop
endfacet
facet normal -0.8831803152185804 0.0 -0.46903361373190394
outer loop
vertex 10.486 -3.843 22.194
vertex 10.486 -2.987 22.194
vertex 10.674000000000001 -3.843 21.84
endloop
endfacet
facet normal 0.0 -1.0 -0.0
outer loop
vertex 16.148000000000003 -3.843 24.751
vertex 10.486 -3.843 22.194
vertex 10.674000000000001 -3.843 21.84
endloop
endfacet
facet normal -0.8831803152185804 0.0 -0.46903361373190394
outer loop
vertex 10.674000000000001 -3.843 21.84
vertex 10.486 -2.987 22.194
vertex 10.674000000000001 -2.987 21.84
endloop
endfacet
facet normal 0.4695246975697396 0.0 -0.8829193385423407
outer loop
vertex 10.674000000000001 -2.987 21.84
vertex 16.148000000000003 -3.843 24.751
vertex 10.674000000000001 -3.843 21.84
endloop
endfacet
facet normal -0.46933209911917595 0.0 0.8830217328788619
outer loop
vertex 10.486 -3.843 22.194
vertex 15.961 -2.987 25.104
vertex 10.486 -2.987 22.194
endloop
endfacet
facet normal 0.0 -1.0 -0.0
outer loop
vertex 15.961 -3.843 25.104
vertex 10.486 -3.843 22.194
vertex 16.148000000000003 -3.843 24.751
endloop
endfacet
facet normal -0.46933209911917595 0.0 0.8830217328788619
outer loop
vertex 15.961 -3.843 25.104
vertex 15.961 -2.987 25.104
vertex 10.486 -3.843 22.194
endloop
endfacet
facet normal -0.0 1.0 0.0
outer loop
vertex 10.486 -2.987 22.194
vertex 15.961 -2.987 25.104
vertex 10.674000000000001 -2.987 21.84
endloop
endfacet
facet normal 0.4695246975697396 0.0 -0.8829193385423407
outer loop
vertex 16.148000000000003 -2.987 24.751
vertex 16.148000000000003 -3.843 24.751
vertex 10.674000000000001 -2.987 21.84
endloop
endfacet
facet normal -0.0 1.0 0.0
outer loop
vertex 10.674000000000001 -2.987 21.84
vertex 15.961 -2.987 25.104
vertex 16.148000000000003 -2.987 24.751
endloop
endfacet
facet normal 0.8836661040822967 0.0 0.4681177378566375
outer loop
vertex 16.148000000000003 -2.987 24.751
vertex 15.961 -3.843 25.104
vertex 16.148000000000003 -3.843 24.751
endloop
endfacet
facet normal 0.8836661040822967 0.0 0.4681177378566375
outer loop
vertex 15.961 -2.987 25.104
vertex 15.961 -3.843 25.104
vertex 16.148000000000003 -2.987 24.751
endloop
endfacet

endsolid
