solid wedge_100x20x40
  facet normal 0.000000e+00 0.000000e+00 -1.000000e+00
    outer loop
      vertex 0.000000e+00 0.000000e+00 0.000000e+00
      vertex 1.000000e+02 2.000000e+01 0.000000e+00
      vertex 1.000000e+02 0.000000e+00 0.000000e+00
    endloop
  endfacet
  facet normal 0.000000e+00 0.000000e+00 -1.000000e+00
    outer loop
      vertex 0.000000e+00 0.000000e+00 0.000000e+00
      vertex 0.000000e+00 2.000000e+01 0.000000e+00
      vertex 1.000000e+02 2.000000e+01 0.000000e+00
    endloop
  endfacet
  facet normal -0.000000e+00 8.916949e-01 4.526370e-01
    outer loop
      vertex 0.000000e+00 0.000000e+00 4.000000e+01
      vertex 1.000000e+02 0.000000e+00 4.000000e+01
      vertex 1.000000e+02 2.000000e+01 6.000000e-01
    endloop
  endfacet
  facet normal 0.000000e+00 8.916949e-01 4.526370e-01
    outer loop
      vertex 0.000000e+00 0.000000e+00 4.000000e+01
      vertex 1.000000e+02 2.000000e+01 6.000000e-01
      vertex 0.000000e+00 2.000000e+01 6.000000e-01
    endloop
  endfacet
  facet normal -1.000000e+00 0.000000e+00 0.000000e+00
    outer loop
      vertex 0.000000e+00 0.000000e+00 0.000000e+00
      vertex 0.000000e+00 0.000000e+00 4.000000e+01
      vertex 0.000000e+00 2.000000e+01 6.000000e-01
    endloop
  endfacet
  facet normal -1.000000e+00 0.000000e+00 0.000000e+00
    outer loop
      vertex 0.000000e+00 0.000000e+00 0.000000e+00
      vertex 0.000000e+00 2.000000e+01 6.000000e-01
      vertex 0.000000e+00 2.000000e+01 0.000000e+00
    endloop
  endfacet
  facet normal 1.000000e+00 0.000000e+00 0.000000e+00
    outer loop
      vertex 1.000000e+02 0.000000e+00 0.000000e+00
      vertex 1.000000e+02 2.000000e+01 0.000000e+00
      vertex 1.000000e+02 2.000000e+01 6.000000e-01
    endloop
  endfacet
  facet normal 1.000000e+00 0.000000e+00 0.000000e+00
    outer loop
      vertex 1.000000e+02 0.000000e+00 0.000000e+00
      vertex 1.000000e+02 2.000000e+01 6.000000e-01
      vertex 1.000000e+02 0.000000e+00 4.000000e+01
    endloop
  endfacet
  facet normal 0.000000e+00 -1.000000e+00 0.000000e+00
    outer loop
      vertex 0.000000e+00 0.000000e+00 0.000000e+00
      vertex 1.000000e+02 0.000000e+00 0.000000e+00
      vertex 1.000000e+02 0.000000e+00 4.000000e+01
    endloop
  endfacet
  facet normal 0.000000e+00 -1.000000e+00 0.000000e+00
    outer loop
      vertex 0.000000e+00 0.000000e+00 0.000000e+00
      vertex 1.000000e+02 0.000000e+00 4.000000e+01
      vertex 0.000000e+00 0.000000e+00 4.000000e+01
    endloop
  endfacet
  facet normal 0.000000e+00 1.000000e+00 0.000000e+00
    outer loop
      vertex 0.000000e+00 2.000000e+01 0.000000e+00
      vertex 0.000000e+00 2.000000e+01 6.000000e-01
      vertex 1.000000e+02 2.000000e+01 6.000000e-01
    endloop
  endfacet
  facet normal 0.000000e+00 1.000000e+00 0.000000e+00
    outer loop
      vertex 0.000000e+00 2.000000e+01 0.000000e+00
      vertex 1.000000e+02 2.000000e+01 6.000000e-01
      vertex 1.000000e+02 2.000000e+01 0.000000e+00
    endloop
  endfacet
endsolid wedge_100x20x40
